<svg width="512" height="512" viewBox="0 0 512 512" fill="none" xmlns="http://www.w3.org/2000/svg">
<g clip-path="url(#clip0_1_1051)">
<path fill-rule="evenodd" clip-rule="evenodd" d="M0 262.495C0 378.45 73.3449 476.841 175.072 511.55C187.881 513.967 192.548 505.862 192.548 498.901C192.548 492.665 192.328 476.164 192.202 454.266C120.995 470.122 105.971 419.073 105.971 419.073C94.3253 388.747 77.541 380.674 77.541 380.674C54.2976 364.382 79.3011 364.721 79.3011 364.721C104.996 366.574 118.512 391.776 118.512 391.776C141.362 431.883 178.435 420.298 193.02 413.578C195.345 396.61 201.962 385.057 209.27 378.482C152.426 371.859 92.6594 349.348 92.6594 248.766C92.6594 220.099 102.639 196.67 119.015 178.316C116.39 171.677 107.605 144.992 121.529 108.865C121.529 108.865 143.028 101.791 191.919 135.759C212.35 129.942 234.242 127.025 256.008 126.929C277.758 127.025 299.65 129.942 320.112 135.759C368.972 101.791 390.439 108.865 390.439 108.865C404.395 144.992 395.61 171.677 392.985 178.316C409.393 196.67 419.293 220.099 419.293 248.766C419.293 349.59 359.448 371.779 302.416 378.289C311.61 386.394 319.782 402.411 319.782 426.888C319.782 461.984 319.483 490.296 319.483 498.901C319.483 505.926 324.088 514.08 337.085 511.518C438.718 476.744 512 378.434 512 262.495C512 117.518 397.37 0 255.976 0C114.63 0 0 117.518 0 262.495Z" fill="black"/>
</g>
<defs>
<clipPath id="clip0_1_1051">
<rect width="512" height="512" fill="white"/>
</clipPath>
</defs>
</svg>
