<svg width="512" height="513" viewBox="0 0 512 513" fill="none" xmlns="http://www.w3.org/2000/svg">
<path d="M113.474 309.428L95.6515 375.962L30.5101 377.34C11.0424 341.232 0 299.92 0 256.018C0 213.565 10.3244 173.532 28.625 138.282H28.639L86.6332 148.914L112.038 206.56C106.721 222.062 103.823 238.702 103.823 256.018C103.825 274.811 107.229 292.816 113.474 309.428Z" fill="#FBBB00"/>
<path d="M507.527 208.188C510.467 223.674 512 239.668 512 256.014C512 274.342 510.073 292.221 506.402 309.467C493.939 368.152 461.375 419.396 416.265 455.659L416.251 455.645L343.204 451.918L332.866 387.38C362.799 369.826 386.191 342.354 398.514 309.467H261.619V208.188H400.511H507.527Z" fill="#518EF8"/>
<path d="M416.292 455.637L416.306 455.651C372.434 490.915 316.702 512.015 256.033 512.015C158.539 512.015 73.7749 457.522 30.5343 377.329L113.498 309.417C135.118 367.117 190.779 408.191 256.033 408.191C284.082 408.191 310.358 400.609 332.906 387.372L416.292 455.637Z" fill="#28B446"/>
<path d="M419.399 58.9382L336.463 126.837C313.127 112.25 285.542 103.824 255.989 103.824C189.257 103.824 132.555 146.782 112.019 206.552L28.6186 138.273H28.6046C71.2121 56.1251 157.045 0 255.989 0C318.106 0 375.061 22.1268 419.399 58.9382Z" fill="#F14336"/>
</svg>
