<svg width="56" height="40" viewBox="0 0 56 40" fill="none" xmlns="http://www.w3.org/2000/svg">
<rect width="56" height="40" rx="4" fill="white"/>
<mask id="mask0_102_902" style="mask-type:luminance" maskUnits="userSpaceOnUse" x="0" y="0" width="56" height="40">
<rect width="56" height="40" rx="4" fill="white"/>
</mask>
<g mask="url(#mask0_102_902)">
<rect width="56" height="40" fill="#1537D1"/>
<rect x="26.6667" width="29.3333" height="40" fill="#EA3058"/>
<path fill-rule="evenodd" clip-rule="evenodd" d="M18.6667 40H37.3333V0H18.6667V40Z" fill="#FFCF3C"/>
<path fill-rule="evenodd" clip-rule="evenodd" d="M25.3333 17.3333H28V18.6666H25.3333V17.3333Z" fill="#FFEDB1"/>
<path d="M24.7847 17.3887C24.7523 17 25.059 16.6667 25.4491 16.6667H30.5509C30.941 16.6667 31.2477 17 31.2153 17.3887L30.8727 21.4994C30.7863 22.536 29.9198 23.3333 28.8796 23.3333H27.1203C26.0802 23.3333 25.2136 22.536 25.1273 21.4994L24.7847 17.3887Z" stroke="#D32E28" stroke-width="1.33333"/>
<path fill-rule="evenodd" clip-rule="evenodd" d="M25.3333 18.6667H30.6667V20H29.3333H26.6667H25.3333V18.6667Z" fill="#D32E28"/>
</g>
</svg>
