<svg width="56" height="40" viewBox="0 0 56 40" fill="none" xmlns="http://www.w3.org/2000/svg">
<rect width="56" height="40" rx="4" fill="white"/>
<mask id="mask0_102_2339" style="mask-type:luminance" maskUnits="userSpaceOnUse" x="0" y="0" width="56" height="40">
<rect width="56" height="40" rx="4" fill="white"/>
</mask>
<g mask="url(#mask0_102_2339)">
<rect x="26.6667" width="29.3333" height="40" fill="#1AB11F"/>
<path fill-rule="evenodd" clip-rule="evenodd" d="M0 40H18.6667V0H0V40Z" fill="#262626"/>
<path fill-rule="evenodd" clip-rule="evenodd" d="M18.6667 40H37.3333V0H18.6667V40Z" fill="#DC0D18"/>
<path opacity="0.75" d="M25.9964 22.1297L26.6655 20.9765L25.9964 22.1297ZM26.4805 23.9522L27.6337 24.6213L27.6337 24.6213L26.4805 23.9522ZM24.6581 24.4363L25.3272 23.283H25.3272L24.6581 24.4363ZM31.5881 24.2862L32.3065 25.4095L31.5881 24.2862ZM29.7464 23.8814L28.6232 24.5998H28.6232L29.7464 23.8814ZM30.1513 22.0397L30.8697 23.163L30.1513 22.0397ZM25.3333 18.6667C25.3333 17.1939 24.1394 16 22.6667 16V18.6667H25.3333ZM26.6655 20.9765C25.8638 20.5113 25.3333 19.6499 25.3333 18.6667H22.6667C22.6667 20.6375 23.7358 22.3596 25.3272 23.283L26.6655 20.9765ZM27.6337 24.6213C28.3729 23.3475 27.9394 21.7156 26.6655 20.9765L25.3272 23.283L25.3272 23.283L27.6337 24.6213ZM23.9889 25.5895C25.2627 26.3286 26.8946 25.8952 27.6337 24.6213L25.3272 23.283L23.9889 25.5895ZM20 18.6667C20 21.6278 21.6101 24.2092 23.9889 25.5895L25.3272 23.283C23.7361 22.3597 22.6667 20.6378 22.6667 18.6667H20ZM22.6667 16C21.1939 16 20 17.1939 20 18.6667H22.6667V16ZM36 18.6667C36 17.1939 34.8061 16 33.3333 16V18.6667H36ZM32.3065 25.4095C34.5215 23.9928 36 21.5035 36 18.6667H33.3333C33.3333 20.5554 32.3515 22.2152 30.8697 23.163L32.3065 25.4095ZM28.6232 24.5998C29.4167 25.8405 31.0658 26.203 32.3065 25.4095L30.8697 23.163V23.163L28.6232 24.5998ZM29.4329 20.9165C28.1922 21.71 27.8297 23.3591 28.6232 24.5998L30.8697 23.163L29.4329 20.9165ZM30.6667 18.6667C30.6667 19.6091 30.18 20.4387 29.4329 20.9165L30.8697 23.163C32.3518 22.2151 33.3333 20.5551 33.3333 18.6667H30.6667ZM33.3333 16C31.8606 16 30.6667 17.1939 30.6667 18.6667H33.3333V16Z" fill="white"/>
<ellipse cx="28" cy="17.3334" rx="2.66667" ry="4" fill="white" fill-opacity="0.5"/>
</g>
</svg>
