<svg width="56" height="40" viewBox="0 0 56 40" fill="none" xmlns="http://www.w3.org/2000/svg">
<mask id="mask0_102_1964" style="mask-type:luminance" maskUnits="userSpaceOnUse" x="0" y="0" width="56" height="40">
<rect width="56" height="40" rx="4" fill="white"/>
</mask>
<g mask="url(#mask0_102_1964)">
<rect width="56" height="40" fill="#EE343C"/>
<path fill-rule="evenodd" clip-rule="evenodd" d="M24.7729 8.77289C24.3235 8.32347 23.6193 8.25374 23.0905 8.60629L21.9117 9.39217C21.0599 9.96005 21.1393 11.2363 22.055 11.6941L24.5963 12.9648C25.048 13.1906 25.3333 13.6523 25.3333 14.1573V14.6666C25.3333 15.403 24.7364 16 24 16H22.9814C22.7744 16 22.5703 15.9518 22.3851 15.8592L18.1929 13.7631C17.6796 13.5064 17.0596 13.607 16.6538 14.0128L15.9747 14.6919C15.3312 15.3354 15.5073 16.4203 16.3213 16.8273L18.2091 17.7712C19.0071 18.1702 19.0764 19.2824 18.334 19.7773C17.4727 20.3515 17.7356 21.6804 18.7507 21.8834L19.8746 22.1082C20.9537 22.324 21.2691 23.7148 20.3888 24.3751L19.3826 25.1297C18.7261 25.622 19.0743 26.6666 19.8949 26.6666C19.9647 26.6666 20.0342 26.6581 20.102 26.6411L22.6255 26.0103C23.5824 25.771 24.3322 26.835 23.7851 27.6557C23.307 28.3728 23.8211 29.3333 24.6829 29.3333H25.8499C26.3377 29.3333 26.7707 29.6454 26.9249 30.1082C27.2693 31.1413 28.7307 31.1413 29.075 30.1082C29.2293 29.6454 29.6623 29.3333 30.1501 29.3333H31.3171C32.1789 29.3333 32.693 28.3728 32.2149 27.6557C31.6678 26.835 32.4176 25.771 33.3745 26.0103L35.898 26.6411C35.9657 26.6581 36.0353 26.6666 36.1051 26.6666C36.9257 26.6666 37.2739 25.622 36.6174 25.1297L35.6112 24.3751C34.7309 23.7148 35.0463 22.324 36.1254 22.1082L37.2493 21.8834C38.2644 21.6804 38.5273 20.3515 37.666 19.7773C36.9236 19.2824 36.9929 18.1702 37.7908 17.7712L39.6787 16.8273C40.4927 16.4203 40.6688 15.3354 40.0253 14.6919L39.3462 14.0128C38.9404 13.607 38.3204 13.5064 37.8071 13.7631L33.6149 15.8592C33.4297 15.9518 33.2256 16 33.0186 16H32C31.2636 16 30.6667 15.403 30.6667 14.6666V14.1573C30.6667 13.6523 30.952 13.1907 31.4037 12.9648C32.1888 12.5722 33.1242 12.1046 33.9454 11.6939C34.8611 11.2361 34.9401 9.96005 34.0883 9.39217L32.9095 8.60629C32.3807 8.25374 31.6765 8.32347 31.2271 8.77289L28.9428 11.0572C28.4221 11.5779 27.5779 11.5779 27.0572 11.0572L24.7729 8.77289Z" fill="#262626"/>
</g>
</svg>
