<svg width="56" height="40" viewBox="0 0 56 40" fill="none" xmlns="http://www.w3.org/2000/svg">
<rect width="56" height="40" rx="4" fill="white"/>
<mask id="mask0_102_2053" style="mask-type:luminance" maskUnits="userSpaceOnUse" x="0" y="0" width="56" height="40">
<rect width="56" height="40" rx="4" fill="white"/>
</mask>
<g mask="url(#mask0_102_2053)">
<rect width="56" height="40" fill="url(#paint0_linear_102_2053)"/>
<g filter="url(#filter0_d_102_2053)">
<path fill-rule="evenodd" clip-rule="evenodd" d="M0 40H56V21.3333H0V40Z" fill="#262626"/>
</g>
<g filter="url(#filter1_d_102_2053)">
<path fill-rule="evenodd" clip-rule="evenodd" d="M0 21.3333H56V0H0V21.3333Z" fill="#DD2137"/>
</g>
<g filter="url(#filter2_d_102_2053)">
<path fill-rule="evenodd" clip-rule="evenodd" d="M32.3955 23.1056C32.7282 22.5222 32.9923 21.887 33.1743 21.2078C34.3179 16.9401 31.7852 12.5534 27.5175 11.4098C26.8062 11.2192 26.0751 11.6414 25.8845 12.3526C25.6939 13.0639 26.116 13.7951 26.8273 13.9856C29.6724 14.748 31.3609 17.6725 30.5985 20.5176C30.4939 20.9082 30.3484 21.277 30.1681 21.6207L26.0729 18.8906C25.4602 18.4821 24.6324 18.6477 24.2239 19.2604C23.8155 19.8731 23.981 20.7009 24.5937 21.1094L28.3483 23.6124C27.1255 24.4046 25.5847 24.6956 24.0665 24.2888C23.3553 24.0983 22.6241 24.5204 22.4336 25.2317C22.243 25.9429 22.6651 26.6741 23.3764 26.8647C26.0426 27.5791 28.7553 26.8586 30.6946 25.1766L32.5937 26.4427C33.2064 26.8512 34.0343 26.6856 34.4427 26.0729C34.8512 25.4602 34.6856 24.6324 34.0729 24.2239L32.3955 23.1056ZM26.6667 16C26.6667 16.7364 26.0697 17.3333 25.3333 17.3333C24.597 17.3333 24 16.7364 24 16C24 15.2636 24.597 14.6666 25.3333 14.6666C26.0697 14.6666 26.6667 15.2636 26.6667 16Z" fill="#F8D84B"/>
</g>
</g>
<defs>
<filter id="filter0_d_102_2053" x="0" y="21.3333" width="56" height="18.6667" filterUnits="userSpaceOnUse" color-interpolation-filters="sRGB">
<feFlood flood-opacity="0" result="BackgroundImageFix"/>
<feColorMatrix in="SourceAlpha" type="matrix" values="0 0 0 0 0 0 0 0 0 0 0 0 0 0 0 0 0 0 127 0" result="hardAlpha"/>
<feOffset/>
<feColorMatrix type="matrix" values="0 0 0 0 0 0 0 0 0 0 0 0 0 0 0 0 0 0 0.06 0"/>
<feBlend mode="normal" in2="BackgroundImageFix" result="effect1_dropShadow_102_2053"/>
<feBlend mode="normal" in="SourceGraphic" in2="effect1_dropShadow_102_2053" result="shape"/>
</filter>
<filter id="filter1_d_102_2053" x="0" y="0" width="56" height="21.3333" filterUnits="userSpaceOnUse" color-interpolation-filters="sRGB">
<feFlood flood-opacity="0" result="BackgroundImageFix"/>
<feColorMatrix in="SourceAlpha" type="matrix" values="0 0 0 0 0 0 0 0 0 0 0 0 0 0 0 0 0 0 127 0" result="hardAlpha"/>
<feOffset/>
<feColorMatrix type="matrix" values="0 0 0 0 0 0 0 0 0 0 0 0 0 0 0 0 0 0 0.06 0"/>
<feBlend mode="normal" in2="BackgroundImageFix" result="effect1_dropShadow_102_2053"/>
<feBlend mode="normal" in="SourceGraphic" in2="effect1_dropShadow_102_2053" result="shape"/>
</filter>
<filter id="filter2_d_102_2053" x="22.3878" y="11.3641" width="12.279" height="17.7751" filterUnits="userSpaceOnUse" color-interpolation-filters="sRGB">
<feFlood flood-opacity="0" result="BackgroundImageFix"/>
<feColorMatrix in="SourceAlpha" type="matrix" values="0 0 0 0 0 0 0 0 0 0 0 0 0 0 0 0 0 0 127 0" result="hardAlpha"/>
<feOffset dy="2"/>
<feColorMatrix type="matrix" values="0 0 0 0 0 0 0 0 0 0 0 0 0 0 0 0 0 0 0.06 0"/>
<feBlend mode="normal" in2="BackgroundImageFix" result="effect1_dropShadow_102_2053"/>
<feBlend mode="normal" in="SourceGraphic" in2="effect1_dropShadow_102_2053" result="shape"/>
</filter>
<linearGradient id="paint0_linear_102_2053" x1="0" y1="0" x2="0" y2="40" gradientUnits="userSpaceOnUse">
<stop stop-color="#FF323E"/>
<stop offset="1" stop-color="#FD0D1B"/>
</linearGradient>
</defs>
</svg>
