<svg width="56" height="40" viewBox="0 0 56 40" fill="none" xmlns="http://www.w3.org/2000/svg">
<rect width="56" height="40" rx="4" fill="white"/>
<mask id="mask0_102_1857" style="mask-type:luminance" maskUnits="userSpaceOnUse" x="0" y="0" width="56" height="40">
<rect width="56" height="40" rx="4" fill="white"/>
</mask>
<g mask="url(#mask0_102_1857)">
<path fill-rule="evenodd" clip-rule="evenodd" d="M0 13.3333H56V0H0V13.3333Z" fill="#24AAD5"/>
<path fill-rule="evenodd" clip-rule="evenodd" d="M0 40H56V26.6667H0V40Z" fill="#21BF75"/>
<path fill-rule="evenodd" clip-rule="evenodd" d="M0 26.6667H56V13.3333H0V26.6667Z" fill="#ED1845"/>
<g filter="url(#filter0_d_102_1857)">
<path fill-rule="evenodd" clip-rule="evenodd" d="M30 16.6667C30.0749 16.6667 30.1492 16.6691 30.2229 16.674C29.5871 16.2483 28.8226 16 28 16C25.7909 16 24 17.7909 24 20C24 22.2091 25.7909 24 28 24C28.8226 24 29.5871 23.7517 30.2229 23.326C30.1492 23.3309 30.0749 23.3333 30 23.3333C28.1591 23.3333 26.6667 21.8409 26.6667 20C26.6667 18.1591 28.1591 16.6667 30 16.6667ZM30.6667 21.3333C31.403 21.3333 32 20.7364 32 20C32 19.2636 31.403 18.6667 30.6667 18.6667C29.9303 18.6667 29.3333 19.2636 29.3333 20C29.3333 20.7364 29.9303 21.3333 30.6667 21.3333Z" fill="white"/>
</g>
</g>
<defs>
<filter id="filter0_d_102_1857" x="24" y="16" width="8" height="10" filterUnits="userSpaceOnUse" color-interpolation-filters="sRGB">
<feFlood flood-opacity="0" result="BackgroundImageFix"/>
<feColorMatrix in="SourceAlpha" type="matrix" values="0 0 0 0 0 0 0 0 0 0 0 0 0 0 0 0 0 0 127 0" result="hardAlpha"/>
<feOffset dy="2"/>
<feColorMatrix type="matrix" values="0 0 0 0 0 0 0 0 0 0 0 0 0 0 0 0 0 0 0.06 0"/>
<feBlend mode="normal" in2="BackgroundImageFix" result="effect1_dropShadow_102_1857"/>
<feBlend mode="normal" in="SourceGraphic" in2="effect1_dropShadow_102_1857" result="shape"/>
</filter>
</defs>
</svg>
