<svg width="56" height="40" viewBox="0 0 56 40" fill="none" xmlns="http://www.w3.org/2000/svg">
<rect width="56" height="40" rx="4" fill="white"/>
<mask id="mask0_102_813" style="mask-type:luminance" maskUnits="userSpaceOnUse" x="0" y="0" width="56" height="40">
<rect width="56" height="40" rx="4" fill="white"/>
</mask>
<g mask="url(#mask0_102_813)">
<rect width="56" height="40" fill="url(#paint0_linear_102_813)"/>
<rect x="26.6667" width="29.3333" height="40" fill="#08379D"/>
<path fill-rule="evenodd" clip-rule="evenodd" d="M0 40H18.6667V0H0V40Z" fill="#08379D"/>
<path fill-rule="evenodd" clip-rule="evenodd" d="M18.6667 40H37.3333V0H18.6667V40Z" fill="#FFCC50"/>
<path fill-rule="evenodd" clip-rule="evenodd" d="M27.4912 12.827C27.7587 12.4336 28.3404 12.439 28.6006 12.8373L29.993 14.9687C30.2826 15.4121 29.9645 16 29.4348 16H29.4033C29.0089 16 28.7007 16.3405 28.74 16.733L29.2733 22.0663C29.3074 22.4071 29.5942 22.6667 29.9367 22.6667H30.3926C30.5682 22.6667 30.7367 22.5974 30.8615 22.4739L31.8022 21.5433C31.9288 21.4181 32 21.2475 32 21.0694V18.9428C32 18.766 31.9298 18.5964 31.8047 18.4714L31.4294 18.0961C31.079 17.7457 31.2198 17.1489 31.69 16.9922L33.596 16.3569C34.0773 16.1965 34.5543 16.611 34.4625 17.1099L33.4794 22.4555C33.4542 22.5928 33.3864 22.7187 33.2858 22.8155L30.8602 25.1473C30.736 25.2667 30.5704 25.3333 30.3982 25.3333H30C29.6318 25.3333 29.3333 25.6318 29.3333 26V27.3333C29.3333 27.7015 29.0348 28 28.6667 28H27.3333C26.9651 28 26.6667 27.7015 26.6667 27.3333V26C26.6667 25.6318 26.3682 25.3333 26 25.3333H25.6095C25.4327 25.3333 25.2631 25.2631 25.1381 25.1381L22.8094 22.8094C22.7163 22.7163 22.6529 22.5978 22.6271 22.4687L21.5586 17.1265C21.4582 16.6245 21.9375 16.2014 22.4232 16.3633L24.31 16.9922C24.7801 17.1489 24.921 17.7457 24.5706 18.0961L24.1953 18.4714C24.0702 18.5964 24 18.766 24 18.9428V21.0694C24 21.2475 24.0712 21.4181 24.1978 21.5433L25.1385 22.4739C25.2633 22.5974 25.4318 22.6667 25.6074 22.6667H26.0633C26.4058 22.6667 26.6926 22.4071 26.7267 22.0663L27.26 16.733C27.2993 16.3405 26.9897 16 26.5953 16C26.06 16 25.7407 15.401 26.0417 14.9584L27.4912 12.827Z" fill="#262626"/>
</g>
<defs>
<linearGradient id="paint0_linear_102_813" x1="0" y1="0" x2="0" y2="40" gradientUnits="userSpaceOnUse">
<stop stop-color="#1132C7"/>
<stop offset="1" stop-color="#0522A5"/>
</linearGradient>
</defs>
</svg>
