<svg width="56" height="40" viewBox="0 0 56 40" fill="none" xmlns="http://www.w3.org/2000/svg">
<rect width="56" height="40" rx="4" fill="white"/>
<mask id="mask0_102_2380" style="mask-type:luminance" maskUnits="userSpaceOnUse" x="0" y="0" width="56" height="40">
<rect width="56" height="40" rx="4" fill="white"/>
</mask>
<g mask="url(#mask0_102_2380)">
<rect width="56" height="40" fill="#E4233B"/>
<path fill-rule="evenodd" clip-rule="evenodd" d="M0 0L24 20L0 40V0Z" fill="#34CD4E"/>
<path fill-rule="evenodd" clip-rule="evenodd" d="M56 0L32 20L56 40V0Z" fill="#34CD4E"/>
<path fill-rule="evenodd" clip-rule="evenodd" d="M33.9242 12.7875C32.3127 11.4623 30.2493 10.6667 28 10.6667C25.7507 10.6667 23.6873 11.4623 22.0758 12.7875L-2.56494 -3.83289L-5.5473 0.588648L19.0915 17.2077C18.8155 18.0894 18.6667 19.0273 18.6667 20C18.6667 20.9727 18.8155 21.9106 19.0915 22.7923L-5.5473 39.4114L-2.56494 43.8329L22.0758 27.2125C23.6873 28.5377 25.7507 29.3333 28 29.3333C30.2493 29.3333 32.3127 28.5377 33.9242 27.2125L58.5649 43.8329L61.5473 39.4114L36.9085 22.7923C37.1845 21.9106 37.3333 20.9727 37.3333 20C37.3333 19.0273 37.1845 18.0894 36.9085 17.2077L61.5473 0.588647L58.5649 -3.83289L33.9242 12.7875Z" fill="white"/>
<path fill-rule="evenodd" clip-rule="evenodd" d="M28 17.3333L26.1144 17.8856L26.6667 16L26.1144 14.1144L28 14.6667L29.8856 14.1144L29.3333 16L29.8856 17.8856L28 17.3333ZM24 24L22.1144 24.5523L22.6667 22.6667L22.1144 20.781L24 21.3333L25.8856 20.781L25.3333 22.6667L25.8856 24.5523L24 24ZM30.1144 24.5523L32 24L33.8856 24.5523L33.3333 22.6667L33.8856 20.781L32 21.3333L30.1144 20.781L30.6667 22.6667L30.1144 24.5523Z" fill="#DF2239"/>
</g>
</svg>
