<svg width="56" height="40" viewBox="0 0 56 40" fill="none" xmlns="http://www.w3.org/2000/svg">
<rect width="56" height="40" rx="4" fill="white"/>
<mask id="mask0_102_2257" style="mask-type:luminance" maskUnits="userSpaceOnUse" x="0" y="0" width="56" height="40">
<rect width="56" height="40" rx="4" fill="white"/>
</mask>
<g mask="url(#mask0_102_2257)">
<rect width="56" height="40" fill="#FF5F38"/>
<path fill-rule="evenodd" clip-rule="evenodd" d="M0 40L56 0H0V40Z" fill="#FFD951"/>
<path fill-rule="evenodd" clip-rule="evenodd" d="M48 10.339C48 10.339 46.8166 10.2572 46.1854 10.2572C45.8496 10.2572 45.5362 10.373 45.2095 10.4938C44.922 10.6 44.6242 10.7101 44.2919 10.7484C44.5543 10.6123 44.7439 10.4258 44.928 10.2449C45.0761 10.0993 45.2206 9.95731 45.3965 9.84782C45.4724 9.81628 45.5572 9.78779 45.6451 9.75823C46.0135 9.63433 46.4373 9.49185 46.501 9.02913C46.1065 9.35661 45.5542 9.27474 45.0809 9.19287C44.716 9.19287 44.4448 9.43613 44.1951 9.66011L44.1951 9.66014C44.1209 9.7267 44.0486 9.79155 43.9763 9.84782C44.047 9.51771 44.1652 9.23691 44.2813 8.96122L44.2813 8.9612C44.4242 8.62155 44.5639 8.28968 44.6075 7.88297C44.64 7.61309 44.8333 7.37101 45.0272 7.12809C45.3039 6.7815 45.582 6.4332 45.3965 6C45.3531 6.35994 45.0953 6.5468 44.8325 6.73722C44.6172 6.89329 44.3985 7.05177 44.2919 7.3099C44.1941 7.61438 44.0289 7.89091 43.8632 8.16836C43.6279 8.5623 43.3915 8.95811 43.3452 9.43848C43.2926 10.0934 42.9595 10.0934 42.5562 10.0934C42.3546 10.0934 42.1354 10.0934 41.925 10.1753C41.8715 10.2031 41.7545 10.1178 41.5831 9.99301C41.2493 9.74986 40.7093 9.35661 40.0316 9.35661C38.4536 9.43848 37.8225 9.43848 35.7712 7.3099C35.2978 6.81868 33.641 6.65495 33.0099 7.06429C33.641 7.06429 34.1933 7.22803 34.6667 7.5555C34.5121 7.67582 34.3196 7.59966 34.1171 7.51953C33.9062 7.43609 33.6845 7.34835 33.4832 7.47363C34.1144 7.47363 34.3511 7.80111 34.2722 8.37419C33.7199 7.96484 32.7732 7.39176 32.0631 7.71924C31.8884 7.80986 31.6601 7.82246 31.4295 7.83518C31.0352 7.85693 30.6346 7.87904 30.4852 8.29232C31.1164 7.96484 31.7475 8.21045 32.3787 8.45605C32.2946 8.47787 32.1769 8.49387 32.045 8.5118C31.6819 8.56117 31.2111 8.62518 31.0375 8.8654C31.3531 8.78353 31.6686 8.78353 31.9053 8.8654C31.8264 9.111 31.7475 9.35661 31.8264 9.60221L31.7147 9.55991C30.8592 9.23526 29.7418 8.81121 28.9862 9.43848C28.1183 10.1753 29.4596 10.994 29.6963 10.5028C29.144 10.7484 28.9073 9.76595 29.6963 9.76595C30.8008 9.68408 31.8264 10.1753 32.7732 10.6665C32.2998 10.8302 30.8008 10.6665 30.5641 10.0116C30.4852 10.2572 30.4852 10.5846 30.7219 10.7484C30.3757 10.7484 30.0482 10.9235 29.7304 11.0936C29.3963 11.2723 29.0729 11.4453 28.7495 11.4033C28.1972 11.4033 27.0927 11.4033 27.0138 12.1401C27.5712 11.6143 28.2587 11.6964 28.9511 11.779C29.3367 11.825 29.7238 11.8712 30.0907 11.8127C29.854 12.3039 29.6963 12.877 29.5385 13.45C29.4083 13.8551 29.1351 14.1365 28.8499 14.4302C28.6164 14.6707 28.3748 14.9194 28.1972 15.2511C28.5128 14.9237 28.9073 14.6781 29.3807 14.5962C29.327 14.7262 29.2529 14.8731 29.1743 15.0293L29.1743 15.0293C28.9063 15.5611 28.5844 16.1999 28.8284 16.6429C28.9376 16.0196 29.2358 15.9454 29.6184 15.8501C29.7885 15.8078 29.9753 15.7613 30.1696 15.6605C30.0118 16.0698 30.3274 16.8066 30.8797 16.6429C30.643 17.0522 30.8797 17.6253 31.3531 17.7891C31.1979 17.9903 30.9284 18.0332 30.6758 18.0735C30.4144 18.1152 30.171 18.154 30.0907 18.3621C30.3564 18.244 30.6038 18.3911 30.8682 18.5482C31.1532 18.7177 31.458 18.8989 31.8264 18.7715C31.7475 19.099 31.8264 19.3446 31.9842 19.5902C31.8629 19.565 31.7118 19.5785 31.5537 19.5927C31.1978 19.6245 30.8069 19.6595 30.643 19.2627C30.5157 19.6149 30.7764 19.7304 31.0199 19.8383C31.2293 19.931 31.426 20.0181 31.3531 20.2451C31.266 20.2451 31.1683 20.1565 31.0717 20.069C30.9056 19.9184 30.7428 19.7708 30.643 20.0814C30.6121 20.0814 30.569 20.0059 30.5139 19.9093C30.4283 19.7592 30.3136 19.5581 30.1696 19.5083C30.0004 19.4644 29.8086 19.5146 29.6427 19.5581C29.4991 19.5956 29.375 19.6281 29.3018 19.5902C29.6174 19.099 28.7495 18.7715 28.4339 19.099C28.4767 18.6992 28.1016 18.3718 27.7494 18.0644C27.4523 17.8051 27.1716 17.56 27.1716 17.2978C27.0393 17.5267 27.1289 17.73 27.2199 17.9363C27.2916 18.099 27.3642 18.2635 27.3294 18.444C27.1716 18.2803 27.0138 18.1984 26.856 18.2803C26.6002 18.3245 26.5748 18.297 26.5308 18.2495C26.4933 18.2091 26.4425 18.1542 26.2249 18.1165C25.9991 18.0775 25.9348 18.1316 25.8866 18.1722C25.8337 18.2167 25.8 18.245 25.5937 18.1165C25.357 17.9528 25.0414 18.0347 24.9625 18.1984C24.837 17.7642 24.4895 17.6754 24.1556 17.5901C23.8598 17.5145 23.5747 17.4417 23.4635 17.1341C23.4184 17.368 23.5794 17.6019 23.7405 17.8358C23.8612 18.0113 23.982 18.1867 24.0158 18.3621C23.5424 17.9528 22.6746 18.444 22.9112 19.099C22.8716 19.1195 22.7723 19.1091 22.6496 19.0962C22.2834 19.0578 21.7083 18.9976 21.8856 19.672C21.57 19.3446 19.7554 19.5902 19.7554 20.1632C20.071 19.9176 20.7022 20.0814 20.9389 20.2451C20.7022 20.4088 20.6233 20.9819 20.7811 21.2275C20.2521 21.1776 20.1921 21.6144 20.1366 22.0187C20.101 22.2777 20.0672 22.5234 19.9132 22.6193C19.7527 22.7145 19.5921 22.8512 19.4277 22.9912C19.0265 23.3328 18.6023 23.6941 18.0986 23.5198C18.355 23.9455 18.7779 23.8179 19.1726 23.6989C19.3853 23.6347 19.5897 23.5731 19.7554 23.6017C19.4562 23.8235 19.4581 24.1173 19.4598 24.4051C19.4613 24.6486 19.4628 24.8878 19.2821 25.0753C19.2172 25.1595 19.1489 25.2679 19.0753 25.3849L19.0753 25.3849C18.7909 25.8368 18.426 26.4166 17.8619 26.2215C17.9408 26.549 18.3353 26.6308 18.6509 26.6308C18.5972 26.668 18.5435 26.7135 18.4889 26.7599C18.3028 26.9179 18.1059 27.0849 17.8619 26.9583C17.8619 27.2039 18.0197 27.3677 18.1775 27.4495C18.0171 27.4495 17.8698 27.4766 17.7248 27.5032C17.5134 27.5421 17.3071 27.58 17.073 27.5314C17.073 27.6951 17.1519 27.9407 17.2308 28.1045C16.7574 27.9407 15.8107 27.6951 15.4951 28.2682C15.7318 28.2682 16.1262 28.2682 16.2051 28.5957C15.9812 28.4214 15.7176 28.4532 15.4425 28.4864C15.3298 28.5 15.2152 28.5138 15.1006 28.5138C14.7391 28.5674 14.479 28.4456 14.1876 28.3092C14.0338 28.2372 13.8713 28.1611 13.6805 28.1045C13.286 27.9407 11.4714 27.6133 11.3925 28.2682C11.6202 28.0792 12.0056 28.2175 12.3818 28.3524C12.6574 28.4513 12.9281 28.5484 13.1282 28.5138C13.569 28.463 13.949 28.6646 14.3248 28.864C14.5544 28.9857 14.7824 29.1067 15.0217 29.1688C14.4747 29.1215 14.0594 29.2655 13.6388 29.4113C13.3314 29.5179 13.0213 29.6254 12.6548 29.66C12.554 29.6809 12.4222 29.6858 12.2805 29.691C11.8682 29.7063 11.3723 29.7246 11.3136 30.1512C11.5241 30.0201 11.7571 30.0523 12.0006 30.0859C12.2134 30.1152 12.4341 30.1457 12.6548 30.0693C12.7863 30.042 12.9178 29.9875 13.0493 29.9329C13.3123 29.8237 13.5753 29.7146 13.8383 29.8237C13.6016 30.1512 13.2071 30.3149 12.8126 30.3968C12.3232 30.4603 12.071 30.6222 11.7248 30.8445C11.6246 30.9088 11.5165 30.9782 11.3925 31.0517C11.2154 31.162 11.0064 31.2063 10.7942 31.2512C10.5338 31.3064 10.2686 31.3625 10.0513 31.543C9.97899 31.5992 9.90669 31.6641 9.8325 31.7306L9.83247 31.7307C9.58281 31.9546 9.31166 32.1979 8.94675 32.1979C9.33987 32.431 9.733 32.2078 10.0977 32.0007C10.2453 31.9169 10.3882 31.8357 10.5247 31.7886C10.7727 31.692 11.0207 31.6461 11.264 31.601L11.264 31.601C11.6397 31.5314 12.004 31.464 12.3393 31.2155C12.1485 31.7104 11.6694 31.8463 11.1809 31.9849C10.8613 32.0755 10.5376 32.1674 10.288 32.3616C10.026 32.552 9.79004 32.7784 9.55711 33.002C9.08868 33.4516 8.63232 33.8897 8 33.999C8.33258 34.4131 9.00162 34.0126 9.39252 33.7786L9.39256 33.7785C9.4653 33.735 9.5284 33.6972 9.57791 33.6715C9.887 33.4933 10.226 33.4238 10.5624 33.3547L10.5624 33.3547C10.9987 33.2651 11.4306 33.1765 11.787 32.8529C12.0912 32.5766 12.4138 32.4145 12.7281 32.2565C13.066 32.0867 13.3944 31.9217 13.6805 31.6248C13.8383 31.4611 15.2584 30.4787 15.4162 30.4787C15.1692 30.5885 15.0169 30.8293 14.8605 31.0767C14.6671 31.3824 14.4675 31.698 14.075 31.7886C14.4486 31.9547 15.1111 31.5588 15.6961 31.2092C15.9757 31.0421 16.2377 30.8856 16.4418 30.8061C16.3066 31.0167 16.0409 31.1821 15.7752 31.3475C15.421 31.568 15.0668 31.7886 15.0217 32.116C15.3111 31.8587 15.6654 31.7811 16.0053 31.7067C16.3141 31.6391 16.6109 31.5741 16.8363 31.3792C16.9492 31.2816 17.0891 31.1699 17.2409 31.0488L17.241 31.0487L17.241 31.0487C17.7255 30.662 18.3317 30.1782 18.572 29.7419C18.8876 29.2506 19.2032 29.005 19.6765 28.6776C19.7395 28.634 19.8026 28.5846 19.8671 28.534L19.8671 28.534C20.0449 28.3946 20.2339 28.2464 20.4655 28.1864C20.6057 28.15 20.746 28.1783 20.8863 28.2066C21.0616 28.2419 21.2369 28.2773 21.4122 28.1864C21.4576 29.0344 21.294 28.9877 21.0567 28.9201C20.8816 28.8702 20.6665 28.8088 20.4655 29.0869C20.426 29.1278 20.5444 29.1892 20.6824 29.2609C20.8205 29.3325 20.9783 29.4144 21.0178 29.4962C21.0178 29.4962 20.1499 30.3149 20.071 30.3149C20.3077 30.6424 20.86 30.3968 21.0966 30.1512C21.0572 30.274 21.1164 30.3968 21.1755 30.5196C21.2347 30.6424 21.2939 30.7652 21.2544 30.888C21.323 30.888 21.4364 30.7178 21.5555 30.5389C21.7105 30.3062 21.8753 30.0586 21.9645 30.1512C21.57 30.3149 22.2801 30.5605 22.2801 30.5605C22.0541 30.7168 22.2595 30.9477 22.4159 30.8972C22.3105 30.9498 22.3212 31.0829 22.3321 31.2201C22.342 31.3426 22.352 31.4683 22.2801 31.543C22.1853 31.7889 22.0335 31.8575 21.8419 31.9442C21.7146 32.0017 21.5697 32.0672 21.4122 32.1979C21.0966 32.5254 21.0178 32.9347 21.0966 33.3441L21.1099 33.3994C21.1994 33.7753 21.4202 34.7025 21.57 34.0809C21.2544 35.6364 23.1479 36.6188 24.2525 35.5545C24.8047 34.9814 25.4359 32.6072 24.4892 32.116C24.6469 32.1979 24.8836 32.116 24.9625 32.0342C25.0414 32.1979 25.1203 32.2798 25.2781 32.2798C25.8304 32.4435 25.9882 33.1803 25.9093 33.7534C26.3037 33.2622 26.2249 32.0342 25.8304 31.543C25.6726 31.3792 25.1203 31.1336 24.8836 31.0517C24.6469 31.0517 24.4892 31.0517 24.4103 31.2974C24.2525 31.1336 24.0158 31.0517 23.7791 31.1336C23.858 30.8061 23.4635 29.9875 23.1479 29.8237C22.5803 29.4556 22.8422 28.5577 23.0155 27.9638C23.0349 27.8973 23.0532 27.8347 23.069 27.777C23.2072 27.8726 23.5067 27.9961 23.7949 28.1149C24.0003 28.1996 24.2 28.2819 24.3314 28.3501C24.6469 28.5138 26.3826 28.9232 25.6726 28.5957C27.2505 29.2506 28.1972 26.6309 26.6982 26.0578C27.3294 26.1396 26.7771 25.4847 26.4615 25.321C25.9882 25.1572 25.0414 25.4028 24.6469 25.7303C24.6864 25.6894 24.7456 25.5256 24.8047 25.3619C24.8639 25.1982 24.9231 25.0344 24.9625 24.9935C25.1992 24.7479 25.4359 24.5023 25.8304 24.666C24.8848 23.3749 24.3473 24.3968 23.9011 25.2451C23.64 25.7416 23.4101 26.1787 23.1479 26.0578C22.6746 25.8122 22.5957 24.4204 22.8323 24.0929C22.9215 24.0004 22.9099 23.8817 22.8972 23.7517C22.8874 23.6516 22.8769 23.5448 22.9112 23.438C22.9901 23.3152 23.1085 23.1924 23.2268 23.0696C23.3452 22.9468 23.4635 22.824 23.5424 22.7012C24.0947 21.7187 26.3826 22.21 27.4083 22.7012C28.7495 23.2742 30.5641 23.5198 31.9842 23.6836C31.895 23.8687 31.9319 24.0015 31.9665 24.1263C31.9932 24.2223 32.0185 24.3136 31.9842 24.4204C31.8264 24.3385 30.5641 24.3385 30.4852 24.4204C30.6342 24.4204 30.7832 24.5117 30.9405 24.608C31.1164 24.7157 31.3026 24.8297 31.5108 24.8297C31.1797 24.8727 31.0006 25.141 30.8368 25.3863C30.6883 25.6087 30.5525 25.8122 30.3274 25.8122C30.4377 25.898 30.7309 25.8139 31.0321 25.7275C31.5931 25.5667 32.182 25.3979 31.6686 26.3034C31.9842 26.3034 32.142 25.894 32.2209 25.5666C32.2874 25.601 32.4239 25.7009 32.6016 25.831C33.2677 26.3184 34.5131 27.2297 34.8245 26.7127C34.8245 27.1221 35.3767 27.1221 35.6134 27.1221C35.7887 27.1221 36.0264 27.1867 36.2641 27.2514C36.5611 27.3323 36.8582 27.4131 37.0335 27.3677C35.8501 28.2682 39.0848 31.1336 39.0848 29.9875C39.0848 29.6757 39.2684 29.745 39.558 29.8543C39.9528 30.0034 40.5444 30.2267 41.1361 29.66C42.1617 28.5957 41.2939 26.549 39.8738 26.6308C40.2682 26.549 41.1361 26.4671 41.2939 27.2039C42.0039 25.9759 40.1105 25.321 39.3215 25.6484C39.5706 25.5192 39.6012 25.3899 39.6318 25.2606C39.6594 25.1443 39.6869 25.028 39.8738 24.9116C39.9674 24.863 40.0541 24.8 40.14 24.7376C40.3437 24.5896 40.5431 24.4447 40.8205 24.5023C40.3471 23.9292 38.4536 24.0929 38.6114 25.0753C38.3748 24.9935 38.217 25.0753 38.0592 25.2391C38.0592 25.5666 37.9014 25.6484 37.5858 25.6484C37.428 25.9759 37.2702 26.0578 37.1124 25.7303C36.9807 25.6619 36.8765 25.6364 36.7768 25.612C36.6376 25.5778 36.5073 25.5459 36.3235 25.4028C36.0868 25.2391 35.5345 25.2391 35.2978 25.2391C35.1161 25.2768 34.9846 25.1755 34.8493 25.0713C34.691 24.9493 34.5275 24.8233 34.2722 24.9116C34.2181 24.35 34.4981 23.9425 34.7811 23.5306L34.7811 23.5306C34.9107 23.342 35.0409 23.1524 35.14 22.9468C35.5345 22.21 35.929 21.4731 36.0868 20.5726C36.1032 20.4191 36.106 20.2692 36.1086 20.1273C36.1184 19.5878 36.1262 19.1638 36.8757 19.099C37.5858 19.0171 37.7436 19.9176 37.0335 20.1632C37.3491 20.4088 37.7436 20.0814 37.9014 19.7539C37.6647 20.2451 37.6647 21.1457 38.2959 21.3094C38.217 21.1047 38.2959 20.9205 38.3748 20.7363C38.4536 20.5521 38.5325 20.3679 38.4536 20.1632C38.7692 20.327 39.0848 20.6545 39.0848 21.0638C39.334 20.7536 39.2055 20.4433 39.0769 20.1331L39.0769 20.1331C39.002 19.9521 38.927 19.7711 38.927 19.5902C39.6371 19.672 40.1105 19.4264 40.6627 18.9352C41.2939 18.5259 41.3728 18.5259 41.8462 18.9352C42.714 19.5902 44.6075 19.4264 45.1598 18.3621C45.2404 18.167 45.3575 18.0383 45.4583 17.9276C45.6536 17.7131 45.7875 17.5661 45.4753 17.1341C45.3521 16.9423 45.2169 16.763 45.0837 16.5864C44.8757 16.3107 44.6729 16.0417 44.5286 15.7423C43.8974 14.1868 41.925 15.9061 41.6884 16.3973C41.5971 16.5394 41.552 16.6473 41.5187 16.7268C41.4371 16.9222 41.4268 16.9467 40.9783 16.8885C40.6122 16.8505 40.2631 16.9536 39.9073 17.0586C39.4964 17.1798 39.0766 17.3037 38.6114 17.216C37.9128 17.071 37.3998 16.7334 36.8533 16.3738L36.8533 16.3738C36.7826 16.3273 36.7113 16.2804 36.6391 16.2336C36.4048 16.101 36.1994 16.0042 36.0118 15.9158C35.5042 15.6768 35.1275 15.4993 34.6667 14.8418L34.7193 14.8509C35.1805 14.9301 35.7068 15.0206 36.0868 15.4149C36.1345 15.4644 36.1822 15.5176 36.2307 15.5718L36.2308 15.5718C36.5032 15.8759 36.8015 16.2088 37.2702 16.0698C36.9596 15.9777 36.6489 15.6525 36.3383 15.3272C36.0966 15.0743 35.855 14.8213 35.6134 14.6781C36.0583 14.0845 36.9126 14.1285 37.6817 14.168C37.8674 14.1776 38.0482 14.1868 38.217 14.1868C38.6607 14.1868 38.9504 14.5066 39.2401 14.8264C39.414 15.0183 39.5878 15.2102 39.7949 15.333C39.6643 15.4008 39.5742 15.5246 39.4856 15.6464C39.36 15.8191 39.2372 15.988 39.0059 15.988C39.3215 16.1517 39.716 16.0698 40.0316 15.8242C39.9527 16.1517 40.0316 16.4792 40.3471 16.6429C40.1502 16.3704 40.3903 16.1545 40.5674 15.9954C40.6031 15.9633 40.6363 15.9335 40.6627 15.9061C40.694 16.0035 40.7626 16.0881 40.829 16.17C40.9299 16.2945 41.0259 16.4129 40.9783 16.561C41.7673 16.3973 41.215 14.4325 40.6627 14.2687C41.6884 13.3682 41.925 15.0055 41.6095 15.7423C42.0039 15.4149 42.0039 14.9237 42.0039 14.4325C42.255 14.5106 42.8096 14.4478 43.444 14.376C44.8035 14.2222 46.5297 14.0268 46.4221 15.0874C46.9744 14.4325 45.9487 13.9412 45.4753 13.8594C45.3248 13.8281 45.1973 13.6419 45.0664 13.4508C44.8543 13.1412 44.6334 12.8188 44.2919 13.1226C44.9231 13.0407 44.6075 13.9412 44.213 14.105C44.3708 13.5319 43.8185 13.1226 43.2663 13.2863C44.6075 13.6956 42.5562 14.7599 42.714 14.0231C42.7469 13.8182 42.8347 13.6418 42.9202 13.4701C43.0396 13.2302 43.1545 12.9995 43.1085 12.7132C43.0822 12.6313 43.0471 12.5404 43.0121 12.4494C42.9419 12.2675 42.8718 12.0856 42.8718 11.9764C43.1874 12.0583 43.1874 11.8127 42.9507 11.6489C43.0859 11.6957 43.2212 11.6356 43.3564 11.5754C43.4579 11.5303 43.5593 11.4852 43.6608 11.4852C44.1289 11.4158 44.5403 11.2287 44.9912 11.0238C45.0722 10.9869 45.1545 10.9495 45.2387 10.9121C46.0276 10.6665 48 10.339 48 10.339ZM39.0848 13.0407C39.3215 12.4676 40.5838 11.8945 40.1894 12.877C40.2434 12.8489 40.3068 12.7631 40.3763 12.669C40.5094 12.4887 40.665 12.2781 40.8205 12.3857C41.1361 12.5495 41.2939 12.877 40.8994 13.0407C41.0347 13.0407 41.1699 12.9956 41.3052 12.9505C41.4855 12.8903 41.6658 12.8302 41.8462 12.877C41.7792 12.9464 41.7406 13.0454 41.7004 13.1489C41.6457 13.2892 41.5879 13.4377 41.4517 13.5319C41.1556 13.7367 40.5816 13.5251 40.0195 13.3179C39.683 13.1938 39.3507 13.0713 39.0848 13.0407ZM39.3215 13.5319C39.5582 13.8594 40.1894 14.1868 40.5049 14.3506C40.5838 14.1868 40.8205 14.0231 40.8205 14.0231C40.5165 13.8654 40.18 13.7752 39.8527 13.6875C39.6704 13.6386 39.4909 13.5905 39.3215 13.5319Z" fill="white"/>
</g>
</svg>
