<svg width="56" height="40" viewBox="0 0 56 40" fill="none" xmlns="http://www.w3.org/2000/svg">
<rect width="56" height="40" rx="4" fill="white"/>
<mask id="mask0_102_1467" style="mask-type:luminance" maskUnits="userSpaceOnUse" x="0" y="0" width="56" height="40">
<rect width="56" height="40" rx="4" fill="white"/>
</mask>
<g mask="url(#mask0_102_1467)">
<rect width="56" height="40" fill="#F1361D"/>
<path fill-rule="evenodd" clip-rule="evenodd" d="M20.1453 6.20145L22.0822 6.53166L23.5348 7.85466L23.8651 5.91777L25.188 4.46509L23.2512 4.13488L21.7985 2.81189L21.4683 4.74878L20.1453 6.20145ZM25.3333 12.976L27.0118 11.9545L28.9761 11.9999L27.9546 10.3215L28 8.3572L26.3216 9.3787L24.3573 9.33327L25.3788 11.0117L25.3333 12.976ZM23.0565 23.9417L21.4147 25.0211L21.3916 23.0564L20.3121 21.4147L22.2768 21.3915L23.9186 20.3121L23.9417 22.2768L25.0212 23.9185L23.0565 23.9417ZM24.4823 18.8628L26.4351 18.6463L28.1962 19.5177L27.9797 17.5648L28.8511 15.8037L26.8982 16.0202L25.1371 15.1489L25.3536 17.1017L24.4823 18.8628Z" fill="#FFDC42"/>
<path fill-rule="evenodd" clip-rule="evenodd" d="M13.3333 16.4534L8.63105 19.8055L10.366 14.2975L5.72488 10.8612L11.4994 10.8092L13.3333 5.33337L15.1672 10.8092L20.9418 10.8612L16.3006 14.2975L18.0356 19.8055L13.3333 16.4534Z" fill="#FFDC42"/>
</g>
</svg>
