<svg width="56" height="40" viewBox="0 0 56 40" fill="none" xmlns="http://www.w3.org/2000/svg">
<rect x="0.5" y="0.5" width="55" height="39" rx="3.5" fill="white" stroke="#F5F5F5"/>
<mask id="mask0_102_2276" style="mask-type:luminance" maskUnits="userSpaceOnUse" x="0" y="0" width="56" height="40">
<rect x="0.5" y="0.5" width="55" height="39" rx="3.5" fill="white" stroke="white"/>
</mask>
<g mask="url(#mask0_102_2276)">
<path fill-rule="evenodd" clip-rule="evenodd" d="M40 6.66673C40.7262 6.30362 41.4632 7.13853 41.0129 7.81409L40.1345 9.13166C40.0457 9.26483 39.9314 9.3791 39.7983 9.46788L36.1099 11.9268C36.0368 11.9755 35.9687 12.0313 35.9066 12.0934L35.6095 12.3906C35.0888 12.9113 35.0888 13.7555 35.6095 14.2762L36.3905 15.0573C36.9112 15.5779 36.9112 16.4222 36.3905 16.9429L35.3462 17.9872C34.9404 18.393 34.3204 18.4936 33.8071 18.2369L33.1926 17.9297C32.5339 17.6004 31.733 17.8673 31.4037 18.526L30.9137 19.5061C30.7555 19.8224 30.4782 20.0629 30.1427 20.1747L26.8719 21.265C26.736 21.3103 26.5936 21.3334 26.4503 21.3334H24.8241C24.319 21.3334 23.8573 21.6187 23.6315 22.0704L23.263 22.8075C22.9336 23.4661 22.1327 23.7331 21.4741 23.4038L17.5269 21.4302C17.3987 21.3661 17.2817 21.2817 17.1803 21.1804L15.0572 19.0573C14.8071 18.8072 14.6667 18.4681 14.6667 18.1144V16.9429C14.6667 16.4222 15.0888 16.0001 15.6095 16.0001C15.8595 16.0001 16.0993 15.9007 16.2761 15.7239L18.2761 13.7239C18.5262 13.4739 18.8653 13.3334 19.219 13.3334H20.3723C20.9462 13.3334 21.4558 12.9662 21.6372 12.4217L22.2945 10.45C22.5071 9.81211 23.1615 9.43236 23.8209 9.56423L29.0393 10.6079C29.2329 10.6466 29.4327 10.6419 29.6242 10.594L34.5247 9.36889C34.6191 9.3453 34.7106 9.31144 34.7976 9.26794L37.3333 8.00006L40 6.66673Z" fill="#E7832C"/>
<circle cx="28" cy="30.6667" r="1.33333" fill="#445128"/>
<path opacity="0.75" d="M32 29.3334C32 29.3334 36 28 37.3333 25.3334" stroke="#445128" stroke-width="2.66667" stroke-linecap="round"/>
<path opacity="0.75" d="M24 29.3334C24 29.3334 20 28 18.6667 25.3334" stroke="#445128" stroke-width="2.66667" stroke-linecap="round"/>
</g>
</svg>
