<svg width="56" height="40" viewBox="0 0 56 40" fill="none" xmlns="http://www.w3.org/2000/svg">
<rect x="0.5" y="0.5" width="55" height="39" rx="3.5" fill="white" stroke="#F5F5F5"/>
<mask id="mask0_102_1415" style="mask-type:luminance" maskUnits="userSpaceOnUse" x="0" y="0" width="56" height="40">
<rect x="0.5" y="0.5" width="55" height="39" rx="3.5" fill="white" stroke="white"/>
</mask>
<g mask="url(#mask0_102_1415)">
<path fill-rule="evenodd" clip-rule="evenodd" d="M0 13.3333H56V0H0V13.3333Z" fill="#E41D33"/>
<path fill-rule="evenodd" clip-rule="evenodd" d="M0 40H56V26.6667H0V40Z" fill="#262626"/>
<path d="M24.737 18.9648L25.3056 20.1019L25.9175 18.988L25.9175 18.9879L25.9175 18.9878L25.9176 18.9876L25.9178 18.9873L25.9201 18.9832L25.9306 18.9644C25.9403 18.9472 25.9552 18.921 25.9749 18.8872C26.0143 18.8195 26.0726 18.7214 26.1465 18.6031C26.295 18.3653 26.5027 18.0518 26.743 17.7416C26.9863 17.4275 27.2468 17.138 27.4978 16.9332C27.7659 16.7144 27.9323 16.6667 28 16.6667C28.1146 16.6667 28.3021 16.7288 28.5627 16.9372C28.814 17.1383 29.0671 17.4228 29.3 17.7333C29.53 18.04 29.7242 18.3502 29.8616 18.5859C29.93 18.7031 29.9833 18.8001 30.0191 18.8669C30.037 18.9003 30.0504 18.926 30.0591 18.9427L30.0684 18.961L30.0703 18.9648L30.0704 18.9648L30.0705 18.965L30.0705 18.9652L30.0706 18.9653L30.6666 20.1574L31.2629 18.9648L32.412 16.6667L33.3333 16.6667C33.7015 16.6667 34 16.9651 34 17.3333V21.5086C34 22.0411 33.4065 22.3587 32.9635 22.0633L31.0364 20.7786L30.8685 20.6667H30.6666H29.3333H28.6666V21.3333V22.6667C28.6666 23.0349 28.3682 23.3333 28 23.3333C27.6318 23.3333 27.3333 23.0349 27.3333 22.6667V21.3333V20.6667H26.6666H25.3333H25.1315L24.9635 20.7786L23.0364 22.0633C22.5934 22.3587 22 22.0411 22 21.5086V17.3333C22 16.9651 22.2985 16.6667 22.6666 16.6667L23.588 16.6667L24.737 18.9648Z" fill="#F4B32E" fill-opacity="0.25" stroke="#C6A846" stroke-width="1.33333"/>
</g>
</svg>
