<svg width="56" height="40" viewBox="0 0 56 40" fill="none" xmlns="http://www.w3.org/2000/svg">
<rect width="56" height="40" rx="4" fill="white"/>
<mask id="mask0_102_1800" style="mask-type:luminance" maskUnits="userSpaceOnUse" x="0" y="0" width="56" height="40">
<rect width="56" height="40" rx="4" fill="white"/>
</mask>
<g mask="url(#mask0_102_1800)">
<rect x="-12" width="80" height="40" fill="#CE1126"/>
<path d="M35.6968 18.8922C35.9053 18.9228 36.0047 18.9376 36.1165 18.955C37.3101 19.1409 37.9759 19.3751 38.4273 19.9024L38.7424 20.2705L38.2744 20.1448C37.873 20.037 37.4573 20.1896 36.6568 20.6599L36.5516 20.7219C35.6381 21.2611 35.1868 21.4544 34.7244 21.3576C34.7073 21.3754 34.6862 21.3917 34.6613 21.4059C34.5831 21.4504 34.4574 21.482 34.2749 21.5088C33.9556 21.5555 33.4511 21.5866 32.7755 21.6037C31.5935 21.6336 29.9118 21.62 27.9049 21.5712C26.2982 21.5322 24.5512 21.472 23.0845 21.4086C22.4779 21.3824 21.9715 21.3578 21.658 21.3395C21.5042 21.3305 21.4016 21.3233 21.3536 21.318C21.3352 21.3159 21.3352 21.3159 21.3123 21.3115C21.3019 21.3165 21.2989 21.3179 21.2627 21.2773C21.0271 21.2202 20.7661 21.1759 20.3032 21.1077C20.0947 21.0771 19.9953 21.0623 19.8835 21.0449C18.6899 20.859 18.0241 20.6248 17.5727 20.0975L17.2576 19.7294L17.7256 19.8551C18.127 19.9629 18.5427 19.8103 19.3432 19.34L19.4484 19.278C20.0648 18.9141 20.4708 18.7078 20.8117 18.6418C20.7616 18.6135 20.7088 18.5841 20.653 18.5535C20.5401 18.4914 20.1421 18.2775 20.1038 18.2567C18.9542 17.6328 18.4013 17.1908 18.1665 16.5216L18.0121 16.0818L18.394 16.3491C18.7442 16.5941 19.1823 16.5871 20.1687 16.4037L20.2213 16.394C20.9165 16.2644 21.366 16.2094 21.7061 16.2619C21.5961 16.1362 21.4454 15.9678 21.2222 15.7189C20.3009 14.6916 19.9295 14.0945 19.9487 13.3667L19.9607 12.912L20.2215 13.2846C20.4681 13.6369 20.8767 13.7756 21.8911 13.9422L21.9285 13.9483C22.6224 14.0622 23.0637 14.1645 23.3658 14.3324C23.3095 14.1824 23.2356 13.9923 23.1326 13.7293C23.0264 13.4584 22.9598 13.2827 22.896 13.1005C22.5888 12.2229 22.5043 11.583 22.701 11.0186L22.8613 10.5587L22.9875 11.0291C23.0999 11.4478 23.4314 11.7128 24.3416 12.2247L24.3667 12.2388C24.9747 12.5808 25.3528 12.8282 25.5803 13.0917C25.5776 12.9418 25.5717 12.7618 25.5629 12.5313C25.5552 12.3309 25.5518 12.2312 25.5487 12.1138C25.5188 10.9517 25.6408 10.2611 26.0968 9.74359L26.3985 9.40112L26.3588 9.85582C26.3211 10.2867 26.5417 10.6469 27.2249 11.4399C27.286 11.5109 27.286 11.5109 27.3471 11.5822C27.733 12.0336 27.9767 12.3745 28.0917 12.6881C28.1258 12.5947 28.1622 12.4918 28.2021 12.3765C28.212 12.3481 28.3367 11.9852 28.3745 11.8773C28.7918 10.6856 29.1341 10.0653 29.7129 9.71448L30.1352 9.45848L29.9266 9.90612C29.7463 10.293 29.8315 10.7013 30.2044 11.6655L30.2076 11.674C30.4651 12.3397 30.6018 12.7795 30.606 13.1321C30.6389 13.092 30.6733 13.0498 30.7094 13.0049C30.7861 12.9096 31.0564 12.5682 31.0642 12.5584C31.8957 11.5142 32.4241 11.0449 33.1313 10.9202L33.5997 10.8377L33.2634 11.174C32.9572 11.4803 32.8909 11.9044 32.8999 12.9365L32.9002 12.9628C32.9064 13.6736 32.8811 14.127 32.7663 14.4559C32.9071 14.3716 33.0908 14.2584 33.356 14.0943C34.0052 13.6926 34.3863 13.4873 34.8065 13.3435C35.2063 13.2066 35.5753 13.162 35.9269 13.2228L36.3985 13.3045L35.9647 13.5066C35.5711 13.69 35.364 14.0658 35.0166 15.0456L35.0056 15.0767C34.7714 15.7374 34.5929 16.1519 34.3735 16.4206C34.5273 16.3916 34.7168 16.3531 34.9705 16.3004C35.1989 16.253 35.3375 16.2252 35.4853 16.1979C36.5116 16.0083 37.1939 16.0211 37.7653 16.3411L38.1901 16.579L37.7051 16.6214C37.275 16.659 36.9625 16.9355 36.3058 17.7413L36.3002 17.7482C35.8467 18.3046 35.5328 18.6401 35.2262 18.8194C35.3582 18.8414 35.5113 18.8649 35.6968 18.8922Z" fill="#BD9C08"/>
<path d="M36.0703 19.2515C35.9597 19.2343 35.8614 19.2196 35.653 19.1891C35.1037 19.1081 34.8309 19.0599 34.5464 18.9835L33.4472 18.6887H34.5853C35.0469 18.6887 35.3749 18.4086 36.0676 17.5587L36.0732 17.5518C36.5712 16.9407 36.8904 16.6069 37.2237 16.4449C36.7948 16.3328 36.2629 16.3594 35.5397 16.493C35.3947 16.5198 35.2578 16.5472 35.0314 16.5942C34.347 16.7362 34.1194 16.7778 33.8037 16.8054L32.6851 16.9032L33.7388 16.5152C34.1519 16.3631 34.363 15.9913 34.7228 14.9765L34.7338 14.9454C34.9982 14.1997 35.1899 13.7724 35.4529 13.5037C35.2789 13.5197 35.0965 13.5613 34.9036 13.6274C34.5112 13.7617 34.1446 13.9591 33.5138 14.3494C32.7874 14.799 32.6611 14.8737 32.362 15.0133L31.3533 15.4838L32.2015 14.763C32.5399 14.4754 32.6098 14.0558 32.6001 12.9655L32.5999 12.9391C32.593 12.15 32.6274 11.6836 32.7841 11.3413C32.3382 11.5481 31.9069 11.9817 31.2988 12.7453C31.2917 12.7543 31.0207 13.0966 30.943 13.193C30.8078 13.361 30.6962 13.4942 30.5886 13.6143C30.5211 13.6897 30.4561 13.7586 30.3927 13.8221L29.4448 14.7698L30.1597 13.636C30.407 13.2438 30.3291 12.82 29.9278 11.7822L29.9245 11.7737C29.6443 11.0491 29.5127 10.6089 29.5341 10.2432C29.2116 10.5852 28.9563 11.1234 28.6576 11.9765C28.6202 12.0834 28.4956 12.4457 28.4855 12.4748C28.3445 12.8817 28.2462 13.1396 28.1359 13.3763L27.6275 14.467L27.8526 13.2849C27.9316 12.8697 27.718 12.4778 27.1191 11.7772C27.0586 11.7066 27.0586 11.7066 26.9975 11.6358C26.4694 11.0227 26.1936 10.6441 26.0959 10.2793C25.8882 10.698 25.8269 11.2658 25.8486 12.1061C25.8516 12.2219 25.855 12.3207 25.8626 12.5199C25.887 13.1601 25.8897 13.4202 25.8627 13.7291L25.7624 14.8757L25.5655 13.7417C25.4892 13.3026 25.1577 13.0279 24.2196 12.5003L24.1944 12.4862C23.5065 12.0993 23.1198 11.8396 22.9003 11.5382C22.8732 11.9362 22.9707 12.4061 23.1791 13.0014C23.2414 13.1792 23.3069 13.3522 23.4118 13.6199C23.6964 14.346 23.7627 14.526 23.8462 14.8386L24.1658 16.035L23.5698 14.9495C23.3581 14.5639 22.9564 14.4211 21.8799 14.2444L21.8424 14.2382C21.0565 14.1092 20.601 13.994 20.2909 13.7761C20.407 14.257 20.7658 14.7607 21.4455 15.5186C22.0802 16.2265 22.1392 16.2946 22.3321 16.5699L23.0291 17.5645L22.1111 16.7694C21.7806 16.4832 21.3584 16.4872 20.2762 16.6889L20.2235 16.6987C19.4656 16.8396 19.0005 16.8847 18.636 16.789C18.9106 17.1891 19.4071 17.5373 20.2468 17.9931C20.2841 18.0133 20.683 18.2277 20.7974 18.2905C21.0953 18.4542 21.3119 18.5837 21.5006 18.7158L22.4499 19.3801L21.3627 18.9794C20.9472 18.8262 20.5518 18.975 19.6008 19.5364L19.4951 19.5987C18.8879 19.9554 18.4778 20.1466 18.1124 20.1835C18.5034 20.4554 19.0661 20.614 19.9296 20.7485C20.0402 20.7657 20.1385 20.7803 20.3468 20.8109C20.8962 20.8919 21.1689 20.9401 21.4535 21.0164L21.5004 21.029C21.5475 21.0323 21.6062 21.036 21.6754 21.04C21.9872 21.0583 22.4922 21.0828 23.0974 21.109C24.5623 21.1722 26.3074 21.2324 27.9121 21.2714C29.9145 21.32 31.5919 21.3336 32.7679 21.3039C33.4323 21.2871 33.927 21.2565 34.2314 21.212C34.2813 21.2047 34.3255 21.197 34.3636 21.1893L33.55 20.6198L34.6372 21.0206C35.0527 21.1738 35.4481 21.0249 36.3991 20.4636L36.5048 20.4013C37.112 20.0446 37.5221 19.8534 37.8875 19.8164C37.4965 19.5445 36.9338 19.386 36.0703 19.2515Z" fill="#FCD116"/>
<path d="M22.0515 20L18.1793 18.4175C18.0299 18.3565 18.069 18.135 18.2302 18.1287L22.4101 17.9657L19.3125 15.1537C19.1931 15.0453 19.3055 14.8505 19.4591 14.8998L23.4429 16.177L21.4939 12.4754C21.4188 12.3327 21.591 12.1882 21.7185 12.287L25.0258 14.8487L24.4607 10.7044C24.4389 10.5445 24.6502 10.4677 24.7362 10.6041L26.9672 14.1428L27.8534 10.0544C27.8876 9.89681 28.1124 9.89681 28.1466 10.0544L29.0328 14.1428L31.2638 10.6041C31.3498 10.4677 31.5611 10.5445 31.5393 10.7044L30.9742 14.8486L34.2801 12.287C34.4076 12.1882 34.5798 12.3327 34.5047 12.4754L32.557 16.177L36.5395 14.8998C36.6931 14.8505 36.8056 15.0452 36.6862 15.1537L33.5897 17.9657L37.7685 18.1287C37.9297 18.135 37.9687 18.3564 37.8194 18.4175L33.9484 20L37.8194 21.5824C37.9717 21.6447 37.9272 21.8713 37.7627 21.8713H18.236C18.0715 21.8713 18.0269 21.6447 18.1793 21.5824L22.0515 20Z" fill="#BD9C08"/>
<path d="M22.5047 19.8612C22.629 19.912 22.629 20.088 22.5047 20.1389L18.9995 21.5713H36.9993L33.4952 20.1388C33.3709 20.088 33.3709 19.912 33.4952 19.8612L37.0655 18.4016L33.2114 18.2512C33.0772 18.246 33.017 18.0806 33.1164 17.9903L35.9722 15.3968L32.2991 16.5748C32.1712 16.6159 32.058 16.481 32.1205 16.3622L33.9172 12.9477L30.8678 15.3106C30.7617 15.3928 30.6092 15.3048 30.6273 15.1717L31.1485 11.3494L29.0908 14.6133C29.0192 14.727 28.8458 14.6964 28.8174 14.5651L27.9999 10.7943L27.1825 14.5651C27.1541 14.6964 26.9807 14.727 26.9091 14.6133L24.8514 11.3494L25.3726 15.1717C25.3907 15.3048 25.2383 15.3928 25.1321 15.3106L22.0816 12.9477L23.8793 16.3621C23.9419 16.481 23.8287 16.6159 23.7008 16.5748L20.0266 15.3968L22.8834 17.9903C22.9829 18.0805 22.9227 18.246 22.7885 18.2512L18.9332 18.4016L22.5047 19.8612Z" fill="#FCD116"/>
<path fill-rule="evenodd" clip-rule="evenodd" d="M33.6644 20C33.6644 23.1283 31.1283 25.6644 28 25.6644C24.8716 25.6644 22.3356 23.1283 22.3356 20C22.3356 16.8716 24.8716 14.3356 28 14.3356C31.1283 14.3356 33.6644 16.8716 33.6644 20ZM22.6356 20C22.6356 22.9626 25.0373 25.3644 28 25.3644C30.9626 25.3644 33.3644 22.9626 33.3644 20C33.3644 17.0373 30.9626 14.6356 28 14.6356C25.0373 14.6356 22.6356 17.0373 22.6356 20Z" fill="#BD9C08"/>
<path d="M29.8134 6.64827L32.7707 6.66787C32.7894 6.5428 32.5174 6.29387 32.284 6.25747C31.536 6.13987 30.9747 6.38227 30.0654 6.3916L29.8134 6.64827H29.8134Z" fill="#FCD116" stroke="#BD9C08" stroke-width="0.2"/>
<path d="M23.924 5.95237C24.6187 6.8297 25.9654 7.43943 27.2507 7.44743C28.984 7.4581 30.9067 6.0553 33.2307 5.62583L25.6427 5.46957C24.66 4.7969 23.9147 4.88223 23.4067 5.2993L21.956 5.34317C21.7507 5.45503 22.1254 5.92223 22.4294 5.9393L23.924 5.95237Z" fill="#FCD116" stroke="#BD9C08" stroke-width="0.2"/>
<path d="M27.3547 5.44903C27.0787 4.17996 26.06 3.63303 24.836 3.47076C23.4214 3.28329 20.1667 3.09116 18.004 2.47009C18.94 3.39023 20.8987 3.84956 22.26 4.05729C23.7014 4.27729 25.104 4.59783 26.216 5.43743L27.3547 5.44903Z" fill="#FCD116" stroke="#BD9C08" stroke-width="0.2"/>
<path d="M26.436 6.29611C26.888 6.87664 27.5894 6.84384 28.344 6.33731C29.096 5.83251 29.9134 4.41104 30.308 4.38771C33.0667 4.22744 36.404 3.06291 37.996 2.16357C35.9774 2.44931 33.9774 2.77331 31.9414 2.78131C28.468 2.79517 28.0574 4.37704 26.6414 5.48611" fill="#FCD116"/>
<path d="M26.436 6.29611C26.888 6.87664 27.5894 6.84384 28.344 6.33731C29.096 5.83251 29.9134 4.41104 30.308 4.38771C33.0667 4.22744 36.404 3.06291 37.996 2.16357C35.9774 2.44931 33.9774 2.77331 31.9414 2.78131C28.468 2.79517 28.0574 4.37704 26.6414 5.48611" stroke="#BD9C08" stroke-width="0.2" stroke-linecap="round"/>
<path d="M27.0284 5.69804C27.3962 5.46368 27.6716 5.24664 28.2452 4.7611L28.2736 4.73705C28.6549 4.41425 28.8395 4.26329 29.0689 4.09323C30.0103 3.39543 30.8678 3.24464 32.9079 3.21943C33.47 3.21253 34.2435 3.10715 35.2039 2.92114C35.5121 2.86145 35.8353 2.79425 36.1791 2.71902C36.608 2.62515 36.8207 2.57603 37.6015 2.39306C37.6552 2.38046 37.6886 2.32666 37.676 2.27289C37.6634 2.21911 37.6096 2.18574 37.5558 2.19834C36.7761 2.38106 36.5639 2.43006 36.1363 2.52365C35.794 2.59855 35.4724 2.66543 35.1659 2.72479C34.2164 2.9087 33.4528 3.01273 32.9054 3.01944C30.8245 3.04516 29.9362 3.20136 28.9498 3.93256C28.7158 4.106 28.5289 4.25888 28.1444 4.58439L28.116 4.60845C27.5491 5.08826 27.2787 5.30141 26.9209 5.52936C26.8743 5.55904 26.8606 5.62086 26.8903 5.66743C26.92 5.71401 26.9818 5.72771 27.0284 5.69804Z" fill="#BD9C08"/>
<path d="M26.3022 5.37264C26.1001 4.31783 25.2823 3.86942 23.5976 3.61338C23.2784 3.5649 23.0126 3.52819 22.4499 3.45317C21.9775 3.39018 21.7867 3.36425 21.5338 3.32781C20.5978 3.19291 19.8878 3.05727 19.2039 2.86826C19.0119 2.81526 18.8568 2.7541 18.5289 2.61073L18.517 2.60553C18.3445 2.5301 18.266 2.49661 18.1674 2.45764L18.0939 2.64365C18.1895 2.68144 18.2666 2.7143 18.4369 2.78877L18.4488 2.79397C18.7853 2.94112 18.9465 3.00469 19.1507 3.06104C19.8441 3.25268 20.5616 3.38976 21.5053 3.52576C21.7591 3.56234 21.9503 3.58833 22.4235 3.65141C22.9849 3.72627 23.25 3.76287 23.5676 3.81111C25.1765 4.05565 25.9249 4.46593 26.1057 5.41026L26.3022 5.37264Z" fill="#BD9C08"/>
<path d="M26.662 7.16408C27.8848 7.25377 28.8017 6.99198 30.2713 6.25972C30.3207 6.23509 30.3408 6.17505 30.3162 6.12561C30.2915 6.07618 30.2315 6.05608 30.1821 6.08071C28.7418 6.7984 27.8565 7.05115 26.6767 6.96461C26.6216 6.96057 26.5736 7.00195 26.5696 7.05703C26.5656 7.11211 26.6069 7.16004 26.662 7.16408Z" fill="#BD9C08"/>
<path d="M21.9507 5.68221H23.6787C23.7339 5.68221 23.7787 5.63744 23.7787 5.58221C23.7787 5.52699 23.7339 5.48221 23.6787 5.48221H21.9507C21.8955 5.48221 21.8507 5.52699 21.8507 5.58221C21.8507 5.63744 21.8955 5.68221 21.9507 5.68221Z" fill="#BD9C08"/>
<circle cx="24.2333" cy="5.3916" r="0.216" fill="#BD9C08"/>
<rect x="-12" y="22" width="80" height="18" fill="#003F87"/>
<path d="M-12 34.2853C-9.33333 34.2853 -6.66667 36 -4 36C-1.33333 36 1.33333 34.2853 4 34.2853C6.66667 34.2853 9.33333 36 12 36C14.6667 36 17.3333 34.2853 20 34.2853C22.6667 34.2853 25.3333 36 28 36C30.6667 36 33.3333 34.2853 36 34.2853C38.6667 34.2853 41.3333 36 44 36C46.6667 36 49.3333 34.2853 52 34.2853C54.6667 34.2853 57.3333 36 60 36C62.6667 36 65.3333 34.2853 68 34.2853V31.428C65.3333 31.428 62.6667 33.1426 60 33.1426C57.3333 33.1426 54.6667 31.428 52 31.428C49.3333 31.428 46.6667 33.1426 44 33.1426C41.3333 33.1426 38.6667 31.428 36 31.428C33.3333 31.428 30.6667 33.1426 28 33.1426C25.3333 33.1426 22.6667 31.428 20 31.428C17.3333 31.428 14.6667 33.1426 12 33.1426C9.33333 33.1426 6.66667 31.428 4 31.428C1.33333 31.428 -1.33333 33.1426 -4 33.1426C-6.66667 33.1426 -9.33333 31.428 -12 31.428V34.2853Z" fill="white"/>
<path d="M-12 28.5711C-9.33333 28.5711 -6.66667 30.2857 -4 30.2857C-1.33333 30.2857 1.33333 28.5711 4 28.5711C6.66667 28.5711 9.33333 30.2857 12 30.2857C14.6667 30.2857 17.3333 28.5711 20 28.5711C22.6667 28.5711 25.3333 30.2857 28 30.2857C30.6667 30.2857 33.3333 28.5711 36 28.5711C38.6667 28.5711 41.3333 30.2857 44 30.2857C46.6667 30.2857 49.3333 28.5711 52 28.5711C54.6667 28.5711 57.3333 30.2857 60 30.2857C62.6667 30.2857 65.3333 28.5711 68 28.5711V25.7137C65.3333 25.7137 62.6667 27.4284 60 27.4284C57.3333 27.4284 54.6667 25.7137 52 25.7137C49.3333 25.7137 46.6667 27.4284 44 27.4284C41.3333 27.4284 38.6667 25.7137 36 25.7137C33.3333 25.7137 30.6667 27.4284 28 27.4284C25.3333 27.4284 22.6667 25.7137 20 25.7137C17.3333 25.7137 14.6667 27.4284 12 27.4284C9.33333 27.4284 6.66667 25.7137 4 25.7137C1.33333 25.7137 -1.33333 27.4284 -4 27.4284C-6.66667 27.4284 -9.33333 25.7137 -12 25.7137V28.5711Z" fill="white"/>
<path d="M-12 22.8568C-9.33333 22.8568 -6.66667 24.5715 -4 24.5715C-1.33333 24.5715 1.33333 22.8568 4 22.8568C6.66667 22.8568 9.33333 24.5715 12 24.5715C14.6667 24.5715 17.3333 22.8568 20 22.8568C22.6667 22.8568 25.3333 24.5715 28 24.5715C30.6667 24.5715 33.3333 22.8568 36 22.8568C38.6667 22.8568 41.3333 24.5715 44 24.5715C46.6667 24.5715 49.3333 22.8568 52 22.8568C54.6667 22.8568 57.3333 24.5715 60 24.5715C62.6667 24.5715 65.3333 22.8568 68 22.8568V19.9995C65.3333 19.9995 62.6667 21.7141 60 21.7141C57.3333 21.7141 54.6667 19.9995 52 19.9995C49.3333 19.9995 46.6667 21.7141 44 21.7141C41.3333 21.7141 38.6667 19.9995 36 19.9995C33.3333 19.9995 30.6667 21.7141 28 21.7141C25.3333 21.7141 22.6667 19.9995 20 19.9995C17.3333 19.9995 14.6667 21.7141 12 21.7141C9.33333 21.7141 6.66667 19.9995 4 19.9995C1.33333 19.9995 -1.33333 21.7141 -4 21.7141C-6.66667 21.7141 -9.33333 19.9995 -12 19.9995V22.8568Z" fill="white"/>
</g>
</svg>
