<svg width="56" height="40" viewBox="0 0 56 40" fill="none" xmlns="http://www.w3.org/2000/svg">
<rect width="56" height="40" rx="4" fill="white"/>
<mask id="mask0_102_238" style="mask-type:luminance" maskUnits="userSpaceOnUse" x="0" y="0" width="56" height="40">
<rect width="56" height="40" rx="4" fill="white"/>
</mask>
<g mask="url(#mask0_102_238)">
<rect width="56" height="40" fill="#95CEF5"/>
<path fill-rule="evenodd" clip-rule="evenodd" d="M24.8651 13.6481L28 11.52L31.1348 13.6481L30.0796 10.0091L33.0723 7.68524L29.2852 7.56428L28 4L26.7147 7.56428L22.9277 7.68524L25.9203 10.0091L24.8651 13.6481ZM24.8651 34.9814L28 32.8533L31.1348 34.9814L30.0796 31.3424L33.0723 29.0186L29.2852 28.8976L28 25.3333L26.7147 28.8976L22.9277 29.0186L25.9203 31.3424L24.8651 34.9814ZM38.6666 22.1867L35.5318 24.3148L36.587 20.6757L33.5943 18.3519L37.3813 18.2309L38.6666 14.6667L39.9519 18.2309L43.7389 18.3519L40.7463 20.6757L41.8015 24.3148L38.6666 22.1867ZM14.1984 24.3148L17.3333 22.1867L20.4681 24.3148L19.4129 20.6757L22.4056 18.3519L18.6186 18.2309L17.3333 14.6667L16.048 18.2309L12.261 18.3519L15.2536 20.6757L14.1984 24.3148Z" fill="white"/>
</g>
</svg>
