<svg width="56" height="40" viewBox="0 0 56 40" fill="none" xmlns="http://www.w3.org/2000/svg">
<rect width="56" height="40" rx="4" fill="white"/>
<mask id="mask0_102_1334" style="mask-type:luminance" maskUnits="userSpaceOnUse" x="0" y="0" width="56" height="40">
<rect width="56" height="40" rx="4" fill="white"/>
</mask>
<g mask="url(#mask0_102_1334)">
<rect width="56" height="40" fill="#0A17A7"/>
<path fill-rule="evenodd" clip-rule="evenodd" d="M-2.565 -3.83289L21.3333 12.2867V-2.66666H34.6666V12.2867L58.5649 -3.83289L61.5472 0.588647L42.6525 13.3333H55.9999V26.6667H42.6525L61.5472 39.4114L58.5649 43.8329L34.6666 27.7133V42.6667H21.3333V27.7133L-2.565 43.8329L-5.54736 39.4114L13.3474 26.6667H-6.29425e-05V13.3333H13.3474L-5.54736 0.588648L-2.565 -3.83289Z" fill="white"/>
<path d="M37.3359 12.6644L62.6667 -4" stroke="#DB1F35" stroke-width="1.33333" stroke-linecap="round"/>
<path d="M40.0256 27.395L62.7333 42.7007" stroke="#DB1F35" stroke-width="1.33333" stroke-linecap="round"/>
<path d="M16.011 12.6209L-7.67505 -3.34198" stroke="#DB1F35" stroke-width="1.33333" stroke-linecap="round"/>
<path d="M18.58 27.2098L-7.67505 44.6209" stroke="#DB1F35" stroke-width="1.33333" stroke-linecap="round"/>
<path fill-rule="evenodd" clip-rule="evenodd" d="M0 24H24V40H32V24H56V16H32V0H24V16H0V24Z" fill="#E6273E"/>
</g>
</svg>
