<svg width="56" height="40" viewBox="0 0 56 40" fill="none" xmlns="http://www.w3.org/2000/svg">
<rect x="0.5" y="0.5" width="55" height="39" rx="3.5" fill="white" stroke="#F5F5F5"/>
<mask id="mask0_102_1998" style="mask-type:luminance" maskUnits="userSpaceOnUse" x="0" y="0" width="56" height="40">
<rect x="0.5" y="0.5" width="55" height="39" rx="3.5" fill="white" stroke="white"/>
</mask>
<g mask="url(#mask0_102_1998)">
<rect x="37.3333" width="18.6667" height="40" fill="#63AEE3"/>
<path fill-rule="evenodd" clip-rule="evenodd" d="M0 40H18.6667V0H0V40Z" fill="#63AEE3"/>
<path d="M25.9964 22.1297L26.6655 20.9764L25.9964 22.1297ZM26.4805 23.9521L27.6337 24.6213L27.6337 24.6213L26.4805 23.9521ZM24.658 24.4362L25.3272 23.2829H25.3272L24.658 24.4362ZM31.5881 24.2862L32.3065 25.4094L31.5881 24.2862ZM29.7464 23.8813L28.6232 24.5997H28.6232L29.7464 23.8813ZM30.1513 22.0397L30.8697 23.1629L30.1513 22.0397ZM25.3333 18.6666C25.3333 17.1939 24.1394 16 22.6666 16V18.6666H25.3333ZM26.6655 20.9764C25.8638 20.5112 25.3333 19.6498 25.3333 18.6666H22.6666C22.6666 20.6375 23.7358 22.3595 25.3272 23.2829L26.6655 20.9764ZM27.6337 24.6213C28.3729 23.3474 27.9394 21.7156 26.6655 20.9764L25.3272 23.2829L25.3272 23.2829L27.6337 24.6213ZM23.9889 25.5894C25.2627 26.3286 26.8946 25.8951 27.6337 24.6213L25.3272 23.2829L23.9889 25.5894ZM20 18.6666C20 21.6278 21.6101 24.2092 23.9889 25.5894L25.3272 23.2829C23.736 22.3597 22.6666 20.6378 22.6666 18.6666H20ZM22.6666 16C21.1939 16 20 17.1939 20 18.6666H22.6666V16ZM36 18.6666C36 17.1939 34.8061 16 33.3333 16V18.6666H36ZM32.3065 25.4094C34.5215 23.9927 36 21.5035 36 18.6666H33.3333C33.3333 20.5553 32.3515 22.2152 30.8697 23.1629L32.3065 25.4094ZM28.6232 24.5997C29.4167 25.8404 31.0658 26.2029 32.3065 25.4094L30.8697 23.1629V23.1629L28.6232 24.5997ZM29.4329 20.9164C28.1922 21.7099 27.8297 23.359 28.6232 24.5997L30.8697 23.1629L29.4329 20.9164ZM30.6666 18.6666C30.6666 19.609 30.1799 20.4386 29.4329 20.9164L30.8697 23.1629C32.3517 22.215 33.3333 20.5551 33.3333 18.6666H30.6666ZM33.3333 16C31.8606 16 30.6666 17.1939 30.6666 18.6666H33.3333V16Z" fill="#628A40"/>
<circle cx="28" cy="18.6667" r="2.66667" fill="#DCC26D"/>
</g>
</svg>
