<svg width="56" height="40" viewBox="0 0 56 40" fill="none" xmlns="http://www.w3.org/2000/svg">
<rect x="0.5" y="0.5" width="55" height="39" rx="3.5" fill="white" stroke="#F5F5F5"/>
<mask id="mask0_102_1908" style="mask-type:luminance" maskUnits="userSpaceOnUse" x="0" y="0" width="56" height="40">
<rect x="0.5" y="0.5" width="55" height="39" rx="3.5" fill="white" stroke="white"/>
</mask>
<g mask="url(#mask0_102_1908)">
<path fill-rule="evenodd" clip-rule="evenodd" d="M0 13.3333H56V0H0V13.3333Z" fill="#38BB56"/>
<path fill-rule="evenodd" clip-rule="evenodd" d="M0 40H56V26.6666H0V40Z" fill="#DE1B27"/>
<path fill-rule="evenodd" clip-rule="evenodd" d="M3.33335 10.6666C2.96516 10.6666 2.66669 10.9651 2.66669 11.3333V12.6666C2.66669 13.0348 2.96516 13.3333 3.33335 13.3333H4.66669C5.03488 13.3333 5.33335 13.0348 5.33335 12.6666V11.3333C5.33335 10.9651 5.03488 10.6666 4.66669 10.6666H3.33335ZM8.66669 10.6666C8.2985 10.6666 8.00002 10.9651 8.00002 11.3333V12.6666C8.00002 13.0348 8.2985 13.3333 8.66669 13.3333H10C10.3682 13.3333 10.6667 13.0348 10.6667 12.6666V11.3333C10.6667 10.9651 10.3682 10.6666 10 10.6666H8.66669ZM13.3334 11.3333C13.3334 10.9651 13.6318 10.6666 14 10.6666H15.3334C15.7015 10.6666 16 10.9651 16 11.3333V12.6666C16 13.0348 15.7015 13.3333 15.3334 13.3333H14C13.6318 13.3333 13.3334 13.0348 13.3334 12.6666V11.3333ZM19.3334 10.6666C18.9652 10.6666 18.6667 10.9651 18.6667 11.3333V12.6666C18.6667 13.0348 18.9652 13.3333 19.3334 13.3333H20.6667C21.0349 13.3333 21.3334 13.0348 21.3334 12.6666V11.3333C21.3334 10.9651 21.0349 10.6666 20.6667 10.6666H19.3334ZM24 11.3333C24 10.9651 24.2985 10.6666 24.6667 10.6666H26C26.3682 10.6666 26.6667 10.9651 26.6667 11.3333V12.6666C26.6667 13.0348 26.3682 13.3333 26 13.3333H24.6667C24.2985 13.3333 24 13.0348 24 12.6666V11.3333ZM30 10.6666C29.6318 10.6666 29.3334 10.9651 29.3334 11.3333V12.6666C29.3334 13.0348 29.6318 13.3333 30 13.3333H31.3334C31.7015 13.3333 32 13.0348 32 12.6666V11.3333C32 10.9651 31.7015 10.6666 31.3334 10.6666H30ZM34.6667 11.3333C34.6667 10.9651 34.9652 10.6666 35.3334 10.6666H36.6667C37.0349 10.6666 37.3334 10.9651 37.3334 11.3333V12.6666C37.3334 13.0348 37.0349 13.3333 36.6667 13.3333H35.3334C34.9652 13.3333 34.6667 13.0348 34.6667 12.6666V11.3333ZM40.6667 10.6666C40.2985 10.6666 40 10.9651 40 11.3333V12.6666C40 13.0348 40.2985 13.3333 40.6667 13.3333H42C42.3682 13.3333 42.6667 13.0348 42.6667 12.6666V11.3333C42.6667 10.9651 42.3682 10.6666 42 10.6666H40.6667ZM45.3334 11.3333C45.3334 10.9651 45.6318 10.6666 46 10.6666H47.3334C47.7015 10.6666 48 10.9651 48 11.3333V12.6666C48 13.0348 47.7015 13.3333 47.3334 13.3333H46C45.6318 13.3333 45.3334 13.0348 45.3334 12.6666V11.3333ZM51.3334 10.6666C50.9652 10.6666 50.6667 10.9651 50.6667 11.3333V12.6666C50.6667 13.0348 50.9652 13.3333 51.3334 13.3333H52.6667C53.0349 13.3333 53.3334 13.0348 53.3334 12.6666V11.3333C53.3334 10.9651 53.0349 10.6666 52.6667 10.6666H51.3334ZM2.66669 27.3333C2.66669 26.9651 2.96516 26.6666 3.33335 26.6666H4.66669C5.03488 26.6666 5.33335 26.9651 5.33335 27.3333V28.6666C5.33335 29.0348 5.03488 29.3333 4.66669 29.3333H3.33335C2.96516 29.3333 2.66669 29.0348 2.66669 28.6666V27.3333ZM8.66669 26.6666C8.2985 26.6666 8.00002 26.9651 8.00002 27.3333V28.6666C8.00002 29.0348 8.2985 29.3333 8.66669 29.3333H10C10.3682 29.3333 10.6667 29.0348 10.6667 28.6666V27.3333C10.6667 26.9651 10.3682 26.6666 10 26.6666H8.66669ZM13.3334 27.3333C13.3334 26.9651 13.6318 26.6666 14 26.6666H15.3334C15.7015 26.6666 16 26.9651 16 27.3333V28.6666C16 29.0348 15.7015 29.3333 15.3334 29.3333H14C13.6318 29.3333 13.3334 29.0348 13.3334 28.6666V27.3333ZM19.3334 26.6666C18.9652 26.6666 18.6667 26.9651 18.6667 27.3333V28.6666C18.6667 29.0348 18.9652 29.3333 19.3334 29.3333H20.6667C21.0349 29.3333 21.3334 29.0348 21.3334 28.6666V27.3333C21.3334 26.9651 21.0349 26.6666 20.6667 26.6666H19.3334ZM24 27.3333C24 26.9651 24.2985 26.6666 24.6667 26.6666H26C26.3682 26.6666 26.6667 26.9651 26.6667 27.3333V28.6666C26.6667 29.0348 26.3682 29.3333 26 29.3333H24.6667C24.2985 29.3333 24 29.0348 24 28.6666V27.3333ZM30 26.6666C29.6318 26.6666 29.3334 26.9651 29.3334 27.3333V28.6666C29.3334 29.0348 29.6318 29.3333 30 29.3333H31.3334C31.7015 29.3333 32 29.0348 32 28.6666V27.3333C32 26.9651 31.7015 26.6666 31.3334 26.6666H30ZM34.6667 27.3333C34.6667 26.9651 34.9652 26.6666 35.3334 26.6666H36.6667C37.0349 26.6666 37.3334 26.9651 37.3334 27.3333V28.6666C37.3334 29.0348 37.0349 29.3333 36.6667 29.3333H35.3334C34.9652 29.3333 34.6667 29.0348 34.6667 28.6666V27.3333ZM40.6667 26.6666C40.2985 26.6666 40 26.9651 40 27.3333V28.6666C40 29.0348 40.2985 29.3333 40.6667 29.3333H42C42.3682 29.3333 42.6667 29.0348 42.6667 28.6666V27.3333C42.6667 26.9651 42.3682 26.6666 42 26.6666H40.6667ZM45.3334 27.3333C45.3334 26.9651 45.6318 26.6666 46 26.6666H47.3334C47.7015 26.6666 48 26.9651 48 27.3333V28.6666C48 29.0348 47.7015 29.3333 47.3334 29.3333H46C45.6318 29.3333 45.3334 29.0348 45.3334 28.6666V27.3333ZM51.3334 26.6666C50.9652 26.6666 50.6667 26.9651 50.6667 27.3333V28.6666C50.6667 29.0348 50.9652 29.3333 51.3334 29.3333H52.6667C53.0349 29.3333 53.3334 29.0348 53.3334 28.6666V27.3333C53.3334 26.9651 53.0349 26.6666 52.6667 26.6666H51.3334Z" fill="white" fill-opacity="0.5"/>
<mask id="path-6-inside-1_102_1908" fill="white">
<path fill-rule="evenodd" clip-rule="evenodd" d="M25.307 17.0422C24.504 17.7738 24 18.828 24 20C24 22.2091 25.7909 24 28 24C30.2091 24 32 22.2091 32 20C32 18.8502 31.5149 17.8137 30.7381 17.084"/>
</mask>
<path d="M24.4091 16.0566C23.3404 17.0302 22.6667 18.4373 22.6667 20H25.3333C25.3333 19.2187 25.6676 18.5174 26.205 18.0279L24.4091 16.0566ZM22.6667 20C22.6667 22.9455 25.0545 25.3333 28 25.3333V22.6666C26.5272 22.6666 25.3333 21.4727 25.3333 20H22.6667ZM28 25.3333C30.9455 25.3333 33.3333 22.9455 33.3333 20H30.6667C30.6667 21.4727 29.4728 22.6666 28 22.6666V25.3333ZM33.3333 20C33.3333 18.467 32.6848 17.0833 31.651 16.1122L29.8252 18.0558C30.3449 18.544 30.6667 19.2333 30.6667 20H33.3333Z" fill="#D80915" mask="url(#path-6-inside-1_102_1908)"/>
<rect x="26.6667" y="18.6666" width="2.66667" height="5.33333" rx="1.33333" fill="#D80915"/>
</g>
</svg>
