<svg width="56" height="40" viewBox="0 0 56 40" fill="none" xmlns="http://www.w3.org/2000/svg">
<rect width="56" height="40" rx="4" fill="white"/>
<mask id="mask0_102_139" style="mask-type:luminance" maskUnits="userSpaceOnUse" x="0" y="0" width="56" height="40">
<rect width="56" height="40" rx="4" fill="white"/>
</mask>
<g mask="url(#mask0_102_139)">
<rect width="56" height="40" fill="#F22A46"/>
<circle cx="28" cy="20" r="6.66667" fill="#FFF04D"/>
<path fill-rule="evenodd" clip-rule="evenodd" d="M24.7364 34.2989L28 29.4272L31.2637 34.2989L32.0904 28.4936L37.1446 31.4669L35.3705 25.8778L41.2143 26.3636L37.1909 22.0977L42.6667 20L37.1909 17.9022L41.2143 13.6364L35.3705 14.1222L37.1446 8.53313L32.0904 11.5064L31.2637 5.70105L28 10.5728L24.7364 5.70105L23.9097 11.5064L18.8555 8.53313L20.6295 14.1222L14.7858 13.6364L18.8092 17.9022L13.3334 20L18.8092 22.0977L14.7858 26.3636L20.6295 25.8778L18.8555 31.4669L23.9097 28.4936L24.7364 34.2989ZM28 29.3333C33.1547 29.3333 37.3334 25.1546 37.3334 20C37.3334 14.8453 33.1547 10.6667 28 10.6667C22.8454 10.6667 18.6667 14.8453 18.6667 20C18.6667 25.1546 22.8454 29.3333 28 29.3333Z" fill="#FFF04D"/>
</g>
</svg>
