<svg width="56" height="40" viewBox="0 0 56 40" fill="none" xmlns="http://www.w3.org/2000/svg">
<rect x="0.5" y="0.5" width="55" height="39" rx="3.5" fill="white" stroke="#F5F5F5"/>
<mask id="mask0_102_506" style="mask-type:luminance" maskUnits="userSpaceOnUse" x="0" y="0" width="56" height="40">
<rect x="0.5" y="0.5" width="55" height="39" rx="3.5" fill="white" stroke="white"/>
</mask>
<g mask="url(#mask0_102_506)">
<circle cx="28.0001" cy="20" r="9.33333" fill="#E01B41"/>
<mask id="mask1_102_506" style="mask-type:luminance" maskUnits="userSpaceOnUse" x="18" y="10" width="20" height="20">
<circle cx="28.0001" cy="20" r="9.33333" fill="white"/>
</mask>
<g mask="url(#mask1_102_506)">
<path fill-rule="evenodd" clip-rule="evenodd" d="M18.6666 21.3333C21.3333 23.8333 25.3333 25.3333 28 21.3333C30.6666 17.3333 36 17.3333 37.3333 21.3333C38.6666 25.3333 37.3333 29.3333 37.3333 29.3333H18.6666C18.6666 29.3333 16 18.8333 18.6666 21.3333Z" fill="#0E4B9C"/>
</g>
<path opacity="0.75" fill-rule="evenodd" clip-rule="evenodd" d="M12.3461 7.11325C12.5302 6.79439 12.9379 6.68514 13.2568 6.86923L14.4115 7.5359C14.7303 7.71999 14.8396 8.12772 14.6555 8.44658L11.3222 14.2201C11.1381 14.5389 10.7303 14.6482 10.4115 14.4641L9.25679 13.7974C8.93792 13.6133 8.82867 13.2056 9.01277 12.8868L12.3461 7.11325ZM41.5884 7.5359C41.2695 7.71999 41.1603 8.12772 41.3444 8.44658L44.6777 14.2201C44.8618 14.5389 45.2695 14.6482 45.5884 14.4641L46.7431 13.7974C47.062 13.6133 47.1712 13.2056 46.9871 12.8868L43.6538 7.11325C43.4697 6.79439 43.062 6.68514 42.7431 6.86923L41.5884 7.5359ZM38.1243 9.5359C37.8054 9.71999 37.6962 10.1277 37.8803 10.4466L41.2136 16.2201C41.3977 16.5389 41.8054 16.6482 42.1243 16.4641L43.279 15.7974C43.5979 15.6133 43.7071 15.2056 43.523 14.8868L40.1897 9.11325C40.0056 8.79439 39.5979 8.68514 39.279 8.86923L38.1243 9.5359ZM9.01277 27.1132C8.82867 26.7944 8.93792 26.3867 9.25678 26.2026L10.4115 25.5359C10.7303 25.3518 11.1381 25.4611 11.3222 25.7799L14.6555 31.5534C14.8396 31.8723 14.7303 32.28 14.4115 32.4641L13.2568 33.1308C12.9379 33.3149 12.5302 33.2056 12.3461 32.8868L9.01277 27.1132ZM12.7209 24.2026C12.402 24.3867 12.2928 24.7944 12.4769 25.1132L15.8102 30.8868C15.9943 31.2056 16.402 31.3149 16.7209 31.1308L17.8756 30.4641C18.1944 30.28 18.3037 29.8723 18.1196 29.5534L14.7863 23.7799C14.6022 23.4611 14.1944 23.3518 13.8756 23.5359L12.7209 24.2026ZM41.2136 23.7799C41.3977 23.4611 41.8054 23.3518 42.1243 23.5359L43.279 24.2026C43.5979 24.3867 43.7071 24.7944 43.523 25.1133L40.1897 30.8868C40.0056 31.2056 39.5979 31.3149 39.279 31.1308L38.1243 30.4641C37.8054 30.28 37.6962 29.8723 37.8803 29.5534L41.2136 23.7799ZM45.5884 25.5359C45.2695 25.3518 44.8618 25.4611 44.6777 25.7799L41.3444 31.5534C41.1603 31.8723 41.2695 32.28 41.5884 32.4641L42.7431 33.1308C43.062 33.3149 43.4697 33.2056 43.6538 32.8868L46.9871 27.1133C47.1712 26.7944 47.062 26.3867 46.7431 26.2026L45.5884 25.5359ZM16.7209 8.86923C16.402 8.68514 15.9943 8.79439 15.8102 9.11325L12.4769 14.8868C12.2928 15.2056 12.402 15.6133 12.7209 15.7974L13.8756 16.4641C14.1944 16.6482 14.6022 16.5389 14.7863 16.2201L18.1196 10.4466C18.3037 10.1277 18.1944 9.71999 17.8756 9.5359L16.7209 8.86923Z" fill="#262626"/>
</g>
</svg>
