<svg width="56" height="40" viewBox="0 0 56 40" fill="none" xmlns="http://www.w3.org/2000/svg">
<rect width="56" height="40" rx="4" fill="white"/>
<mask id="mask0_102_185" style="mask-type:luminance" maskUnits="userSpaceOnUse" x="0" y="0" width="56" height="40">
<rect width="56" height="40" rx="4" fill="white"/>
</mask>
<g mask="url(#mask0_102_185)">
<rect width="56" height="40" fill="#30C6E0"/>
<circle cx="28" cy="20" r="8" fill="#FFCD4B"/>
<path fill-rule="evenodd" clip-rule="evenodd" d="M24.7364 34.2989L28 29.4272L31.2637 34.2989L32.0904 28.4936L37.1446 31.4669L35.3705 25.8778L41.2143 26.3636L37.1909 22.0977L42.6667 20L37.1909 17.9022L41.2143 13.6364L35.3705 14.1222L37.1446 8.53313L32.0904 11.5064L31.2637 5.70105L28 10.5728L24.7364 5.70105L23.9097 11.5064L18.8555 8.53313L20.6295 14.1222L14.7858 13.6364L18.8092 17.9022L13.3334 20L18.8092 22.0977L14.7858 26.3636L20.6295 25.8778L18.8555 31.4669L23.9097 28.4936L24.7364 34.2989ZM28 29.3333C33.1547 29.3333 37.3334 25.1546 37.3334 20C37.3334 14.8453 33.1547 10.6667 28 10.6667C22.8454 10.6667 18.6667 14.8453 18.6667 20C18.6667 25.1546 22.8454 29.3333 28 29.3333Z" fill="#FFCD4B"/>
<path fill-rule="evenodd" clip-rule="evenodd" d="M2.66663 3.33335C2.66663 2.96516 2.9651 2.66669 3.33329 2.66669H4.66663C5.03482 2.66669 5.33329 2.96516 5.33329 3.33335V4.66669C5.33329 5.03488 5.03482 5.33335 4.66663 5.33335H3.33329C2.9651 5.33335 2.66663 5.03488 2.66663 4.66669V3.33335ZM2.66663 8.66669C2.66663 8.2985 2.9651 8.00002 3.33329 8.00002H4.66663C5.03482 8.00002 5.33329 8.2985 5.33329 8.66669V10C5.33329 10.3682 5.03482 10.6667 4.66663 10.6667H3.33329C2.9651 10.6667 2.66663 10.3682 2.66663 10V8.66669ZM3.33329 13.3334C2.9651 13.3334 2.66663 13.6318 2.66663 14V15.3334C2.66663 15.7015 2.9651 16 3.33329 16H4.66663C5.03482 16 5.33329 15.7015 5.33329 15.3334V14C5.33329 13.6318 5.03482 13.3334 4.66663 13.3334H3.33329ZM2.66663 19.3334C2.66663 18.9652 2.9651 18.6667 3.33329 18.6667H4.66663C5.03482 18.6667 5.33329 18.9652 5.33329 19.3334V20.6667C5.33329 21.0349 5.03482 21.3334 4.66663 21.3334H3.33329C2.9651 21.3334 2.66663 21.0349 2.66663 20.6667V19.3334ZM3.33329 24C2.9651 24 2.66663 24.2985 2.66663 24.6667V26C2.66663 26.3682 2.9651 26.6667 3.33329 26.6667H4.66663C5.03482 26.6667 5.33329 26.3682 5.33329 26V24.6667C5.33329 24.2985 5.03482 24 4.66663 24H3.33329ZM2.66663 30C2.66663 29.6318 2.9651 29.3334 3.33329 29.3334H4.66663C5.03482 29.3334 5.33329 29.6318 5.33329 30V31.3334C5.33329 31.7015 5.03482 32 4.66663 32H3.33329C2.9651 32 2.66663 31.7015 2.66663 31.3334V30ZM3.33329 34.6667C2.9651 34.6667 2.66663 34.9652 2.66663 35.3334V36.6667C2.66663 37.0349 2.9651 37.3334 3.33329 37.3334H4.66663C5.03482 37.3334 5.33329 37.0349 5.33329 36.6667V35.3334C5.33329 34.9652 5.03482 34.6667 4.66663 34.6667H3.33329ZM5.33329 32.6667C5.33329 32.2985 5.63177 32 5.99996 32H7.33329C7.70148 32 7.99996 32.2985 7.99996 32.6667V34C7.99996 34.3682 7.70148 34.6667 7.33329 34.6667H5.99996C5.63177 34.6667 5.33329 34.3682 5.33329 34V32.6667ZM5.99996 26.6667C5.63177 26.6667 5.33329 26.9652 5.33329 27.3334V28.6667C5.33329 29.0349 5.63177 29.3334 5.99996 29.3334H7.33329C7.70148 29.3334 7.99996 29.0349 7.99996 28.6667V27.3334C7.99996 26.9652 7.70148 26.6667 7.33329 26.6667H5.99996ZM5.33329 22C5.33329 21.6318 5.63177 21.3334 5.99996 21.3334H7.33329C7.70148 21.3334 7.99996 21.6318 7.99996 22V23.3334C7.99996 23.7015 7.70148 24 7.33329 24H5.99996C5.63177 24 5.33329 23.7015 5.33329 23.3334V22ZM5.99996 16C5.63177 16 5.33329 16.2985 5.33329 16.6667V18C5.33329 18.3682 5.63177 18.6667 5.99996 18.6667H7.33329C7.70148 18.6667 7.99996 18.3682 7.99996 18V16.6667C7.99996 16.2985 7.70148 16 7.33329 16H5.99996ZM5.33329 11.3334C5.33329 10.9652 5.63177 10.6667 5.99996 10.6667H7.33329C7.70148 10.6667 7.99996 10.9652 7.99996 11.3334V12.6667C7.99996 13.0349 7.70148 13.3334 7.33329 13.3334H5.99996C5.63177 13.3334 5.33329 13.0349 5.33329 12.6667V11.3334ZM5.99996 5.33335C5.63177 5.33335 5.33329 5.63183 5.33329 6.00002V7.33335C5.33329 7.70154 5.63177 8.00002 5.99996 8.00002H7.33329C7.70148 8.00002 7.99996 7.70154 7.99996 7.33335V6.00002C7.99996 5.63183 7.70148 5.33335 7.33329 5.33335H5.99996Z" fill="#FFCD4B"/>
</g>
</svg>
