<svg width="56" height="40" viewBox="0 0 56 40" fill="none" xmlns="http://www.w3.org/2000/svg">
<rect x="0.5" y="0.5" width="55" height="39" rx="3.5" fill="white" stroke="#F5F5F5"/>
<mask id="mask0_102_789" style="mask-type:luminance" maskUnits="userSpaceOnUse" x="0" y="0" width="56" height="40">
<rect x="0.5" y="0.5" width="55" height="39" rx="3.5" fill="white" stroke="white"/>
</mask>
<g mask="url(#mask0_102_789)">
<path fill-rule="evenodd" clip-rule="evenodd" d="M0 10.6667H56V0H0V10.6667Z" fill="#F03340"/>
<path fill-rule="evenodd" clip-rule="evenodd" d="M0 40H56V29.3333H0V40Z" fill="#F03340"/>
<path fill-rule="evenodd" clip-rule="evenodd" d="M25.8856 24.781C26.317 24.3497 26.317 23.6503 25.8856 23.2189L25.7322 23.0655C25.4847 22.8181 25.1256 22.7186 24.7861 22.8035L24.0276 22.9931C23.1403 23.2149 22.5895 22.0579 23.3212 21.5091L24.0066 20.995C24.4316 20.6763 24.2062 20 23.675 20C23.0917 20 22.906 19.2136 23.4278 18.9528L24.5722 18.3805C25.094 18.1197 24.9083 17.3333 24.325 17.3333C23.7938 17.3333 23.5684 16.6571 23.9934 16.3383L27.2 13.9333C27.6741 13.5778 28.3259 13.5778 28.8 13.9333L32.0066 16.3383C32.4316 16.6571 32.2062 17.3333 31.675 17.3333C31.0917 17.3333 30.906 18.1197 31.4278 18.3805L32.5722 18.9528C33.094 19.2136 32.9083 20 32.325 20C31.7938 20 31.5684 20.6763 31.9934 20.995L32.6788 21.5091C33.4105 22.0579 32.8597 23.2149 31.9724 22.9931L31.2139 22.8035C30.8744 22.7186 30.5153 22.8181 30.2678 23.0655L30.1144 23.2189C29.683 23.6503 29.683 24.3497 30.1144 24.781C30.8102 25.4769 30.3174 26.6667 29.3333 26.6667H26.6667C25.6826 26.6667 25.1898 25.4769 25.8856 24.781Z" fill="#1FC065"/>
</g>
</svg>
