<svg width="56" height="40" viewBox="0 0 56 40" fill="none" xmlns="http://www.w3.org/2000/svg">
<rect width="56" height="40" rx="4" fill="white"/>
<mask id="mask0_102_938" style="mask-type:luminance" maskUnits="userSpaceOnUse" x="0" y="0" width="56" height="40">
<rect width="56" height="40" rx="4" fill="white"/>
</mask>
<g mask="url(#mask0_102_938)">
<rect width="56" height="40" fill="#FFBF19"/>
<path fill-rule="evenodd" clip-rule="evenodd" d="M21.3333 2.66666H50.6666C52.1393 2.66666 53.3333 3.86056 53.3333 5.33332V34.6667C53.3333 36.1394 52.1393 37.3333 50.6666 37.3333H21.3333V2.66666Z" fill="#A52531"/>
<path d="M2.66675 5.33333C2.66675 3.86057 3.86066 2.66666 5.33341 2.66666H10.6667V37.3333H5.33342C3.86066 37.3333 2.66675 36.1394 2.66675 34.6667V5.33333Z" fill="#03664F"/>
<rect x="10.6667" y="2.66666" width="8" height="34.6667" rx="1.33333" fill="#FF6816"/>
<path fill-rule="evenodd" clip-rule="evenodd" d="M25.3333 8.00001C26.0697 8.00001 26.6667 7.40306 26.6667 6.66668C26.6667 5.9303 26.0697 5.33334 25.3333 5.33334C24.597 5.33334 24 5.9303 24 6.66668C24 7.40306 24.597 8.00001 25.3333 8.00001ZM49.3333 8.00001C48.597 8.00001 48 7.40306 48 6.66668C48 5.9303 48.597 5.33334 49.3333 5.33334C50.0697 5.33334 50.6667 5.9303 50.6667 6.66668C50.6667 7.40306 50.0697 8.00001 49.3333 8.00001ZM48 33.3333C48 32.597 48.597 32 49.3333 32C50.0697 32 50.6667 32.597 50.6667 33.3333C50.6667 34.0697 50.0697 34.6667 49.3333 34.6667C48.597 34.6667 48 34.0697 48 33.3333ZM25.3333 32C26.0697 32 26.6667 32.597 26.6667 33.3333C26.6667 34.0697 26.0697 34.6667 25.3333 34.6667C24.597 34.6667 24 34.0697 24 33.3333C24 32.597 24.597 32 25.3333 32Z" fill="#FFBF18"/>
<path fill-rule="evenodd" clip-rule="evenodd" d="M32 25.1472C32 24.5136 31.4864 24 30.8528 24C30.7295 24 30.6073 23.9803 30.4912 23.9388C29.7197 23.6631 26.6666 22.4982 26.6666 21.3333C26.6666 20.6037 27.066 19.874 27.4276 19.3628C27.7424 18.9178 27.8596 18.3394 27.6664 17.8296C27.2132 16.6337 26.4794 14.4567 26.6666 13.3333C26.7664 12.7351 27.1647 12.2112 27.6243 11.7898C28.3356 11.1376 29.3333 11.754 29.3333 12.719V17.8426C29.3333 18.3477 29.6186 18.8093 30.0704 19.0352L31.4234 19.7117C31.7677 19.8839 32.1836 19.8164 32.4558 19.5442C32.8875 19.1125 32.7694 18.3847 32.2234 18.1117L30.6666 17.3333V16C31.3309 16 31.5423 15.1045 30.9482 14.8074L30.6666 14.6667V13.3333H32.781C33.1346 13.3333 33.4738 13.1929 33.7238 12.9428L34.2761 12.3905C34.5262 12.1405 34.8653 12 35.2189 12H36.5093C37.0143 12 37.476 12.2853 37.7018 12.7371L38.4196 14.1727C38.5778 14.489 38.6038 14.8551 38.492 15.1906L37.9183 16.9117C37.6305 17.7751 38.2731 18.6667 39.1832 18.6667H43.5665C43.844 18.6667 44.1102 18.5564 44.3065 18.3601C44.8117 17.855 44.6735 17.0034 44.0345 16.6839L42.9482 16.1408C42.763 16.0482 42.5589 16 42.3519 16H41.3333C40.5969 16 40 15.4031 40 14.6667V13.8856C40 13.532 40.1404 13.1929 40.3905 12.9428L41.3333 12V13.3333C41.3333 14.0697 41.9303 14.6667 42.6666 14.6667H44.5093C45.0143 14.6667 45.476 14.952 45.7018 15.4037L46.5597 17.1195C46.6304 17.2609 46.6755 17.4131 46.6899 17.5706C46.7512 18.2417 46.8974 20.1794 46.6666 21.3333C46.4796 22.2684 45.9561 23.1339 45.6234 23.6123C45.4446 23.8694 45.3333 24.1716 45.3333 24.4848V28.3148C45.3333 28.8773 44.8773 29.3333 44.3147 29.3333C43.5575 29.3333 43.0651 28.5365 43.4037 27.8592L43.8592 26.9482C43.9478 26.771 43.9478 26.5624 43.8592 26.3851L43.7963 26.2592C43.5149 25.6965 42.6666 25.8967 42.6666 26.5259C42.6666 26.6185 42.6451 26.7098 42.6037 26.7926L41.6629 28.6741C41.4609 29.0781 41.048 29.3333 40.5963 29.3333C39.7097 29.3333 39.1331 28.4004 39.5296 27.6074L39.8592 26.9482C39.9518 26.7631 40 26.5589 40 26.3519V25.3333C40 24.597 39.403 24 38.6666 24H36C35.2636 24 34.6666 24.597 34.6666 25.3333V26.3519C34.6666 26.5589 34.6184 26.7631 34.5259 26.9482L33.6629 28.6741C33.4609 29.0781 33.048 29.3333 32.5963 29.3333C31.7097 29.3333 31.1331 28.4004 31.5296 27.6074L31.8592 26.9482C31.9518 26.7631 32 26.5589 32 26.3519V25.1472Z" fill="#FFBF18"/>
</g>
</svg>
