<svg width="56" height="40" viewBox="0 0 56 40" fill="none" xmlns="http://www.w3.org/2000/svg">
<rect width="56" height="40" rx="4" fill="white"/>
<mask id="mask0_102_960" style="mask-type:luminance" maskUnits="userSpaceOnUse" x="0" y="0" width="56" height="40">
<rect width="56" height="40" rx="4" fill="white"/>
</mask>
<g mask="url(#mask0_102_960)">
<rect width="56" height="40" fill="#E6BE53"/>
<path fill-rule="evenodd" clip-rule="evenodd" d="M2.66663 35.3333C2.66663 36.4379 3.56206 37.3333 4.66663 37.3333H51.3333C52.4379 37.3333 53.3333 36.4379 53.3333 35.3333V4.66663C53.3333 3.56206 52.4379 2.66663 51.3333 2.66663H4.66663C3.56206 2.66663 2.66663 3.56206 2.66663 4.66663V35.3333Z" fill="#E01826"/>
<path fill-rule="evenodd" clip-rule="evenodd" d="M26.0466 7.31776C25.1063 7.63119 24.8246 8.82461 25.5255 9.52548L26.2761 10.2761C26.5261 10.5262 26.8653 10.6666 27.2189 10.6666H28.781C29.1346 10.6666 29.4738 10.5262 29.7238 10.2761L30.4745 9.52548C31.1753 8.82461 30.8936 7.63119 29.9533 7.31776L28.4216 6.80719C28.1479 6.71596 27.852 6.71596 27.5783 6.80719L26.0466 7.31776ZM28.9428 13.7238C28.4221 14.2445 27.5778 14.2445 27.0571 13.7238L26.6666 13.3333L24.6795 11.3462C24.2737 10.9404 23.6537 10.8398 23.1404 11.0964L22.9879 11.1727C22.1739 11.5797 21.9978 12.6645 22.6414 13.3081L22.6666 13.3333L24.6538 15.3204C25.0596 15.7263 25.1602 16.3462 24.9035 16.8595L24.0759 18.5148C24.026 18.6147 24 18.7248 24 18.8364C24 19.371 23.4374 19.7187 22.9592 19.4796L22.3134 19.1567C21.8312 18.9156 21.7269 18.273 22.1081 17.8918C22.4166 17.5834 22.4166 17.0833 22.1081 16.7748L21.4863 16.153C21.385 16.0516 21.3006 15.9346 21.2365 15.8065L20.0654 13.4642C20.0219 13.3772 19.9881 13.2857 19.9645 13.1913L19.346 10.7176C19.0737 9.62844 17.6595 9.34284 16.9859 10.241L14.9333 12.9778C14.7602 13.2086 14.6666 13.4893 14.6666 13.7778V18.3519C14.6666 18.5589 14.7148 18.763 14.8074 18.9482L15.9032 21.1398C15.9673 21.268 16.0516 21.385 16.153 21.4863L18.5136 23.847C18.615 23.9483 18.732 24.0327 18.8602 24.0967L21.2074 25.2704C21.2902 25.3118 21.3815 25.3333 21.4741 25.3333C22.1033 25.3333 22.3035 26.1815 21.7407 26.4629L21.4317 26.6175C21.3665 26.65 21.307 26.6929 21.2555 26.7444L20.6666 27.3333C20.2984 27.7015 19.7015 27.7015 19.3333 27.3333C18.9651 26.9651 18.3681 26.9651 18 27.3333L17.8918 27.4415C17.5583 27.775 17.4756 28.2845 17.6865 28.7064L18.2981 29.9296C18.524 30.3813 18.9856 30.6666 19.4907 30.6666H21.0185C21.2255 30.6666 21.4297 30.6185 21.6148 30.5259L23.6024 29.5321C23.8605 29.4031 24.0697 29.1938 24.1987 28.9358L24.8032 27.7268C25.064 27.2052 25.7591 27.0924 26.1714 27.5048C26.4594 27.7927 26.504 28.2439 26.2781 28.5827L24.7396 30.8906C24.3311 31.5033 24.4967 32.3311 25.1094 32.7396L27.2604 34.1736C27.7082 34.4722 28.2917 34.4722 28.7396 34.1736L30.8906 32.7396C31.5033 32.3311 31.6688 31.5033 31.2604 30.8906L29.7218 28.5827C29.4959 28.2439 29.5406 27.7927 29.8285 27.5048C30.2408 27.0924 30.9359 27.2052 31.1967 27.7268L31.8012 28.9358C31.9302 29.1938 32.1394 29.4031 32.3975 29.5321L34.3851 30.5259C34.5702 30.6185 34.7744 30.6666 34.9814 30.6666H36.5092C37.0143 30.6666 37.476 30.3813 37.7018 29.9296L38.3134 28.7064C38.5243 28.2845 38.4417 27.775 38.1081 27.4415L38 27.3333C37.6318 26.9651 37.0348 26.9651 36.6666 27.3333C36.2984 27.7015 35.7015 27.7015 35.3333 27.3333L34.7444 26.7444C34.6929 26.6929 34.6334 26.65 34.5682 26.6175L34.2592 26.4629C33.6964 26.1815 33.8966 25.3333 34.5259 25.3333C34.6184 25.3333 34.7097 25.3118 34.7925 25.2704L37.1398 24.0967C37.2679 24.0327 37.385 23.9483 37.4863 23.847L39.847 21.4863C39.9483 21.385 40.0326 21.268 40.0967 21.1398L41.1925 18.9482C41.2851 18.763 41.3333 18.5589 41.3333 18.3519V13.7778C41.3333 13.4893 41.2397 13.2086 41.0666 12.9778L39.0141 10.241C38.3404 9.34285 36.9262 9.62845 36.6539 10.7176L36.0355 13.1913C36.0119 13.2857 35.978 13.3772 35.9345 13.4642L34.7634 15.8065C34.6993 15.9346 34.615 16.0516 34.5136 16.153L33.8918 16.7748C33.5833 17.0833 33.5833 17.5834 33.8918 17.8918C34.273 18.273 34.1687 18.9156 33.6865 19.1567L33.0407 19.4796C32.5625 19.7187 32 19.371 32 18.8364C32 18.7248 31.974 18.6147 31.924 18.5148L31.0964 16.8595C30.8397 16.3462 30.9404 15.7263 31.3462 15.3204L33.3333 13.3333L33.3585 13.3081C34.0021 12.6645 33.826 11.5797 33.012 11.1727L32.8595 11.0964C32.3462 10.8398 31.7262 10.9404 31.3204 11.3462L29.3333 13.3333L28.9428 13.7238Z" fill="#E6BE53"/>
<ellipse cx="28" cy="21.6268" rx="2.66667" ry="2.96021" fill="#215F90"/>
</g>
</svg>
