<svg width="56" height="40" viewBox="0 0 56 40" fill="none" xmlns="http://www.w3.org/2000/svg">
<rect width="56" height="40" rx="4" fill="white"/>
<mask id="mask0_102_472" style="mask-type:luminance" maskUnits="userSpaceOnUse" x="0" y="0" width="56" height="40">
<rect width="56" height="40" rx="4" fill="white"/>
</mask>
<g mask="url(#mask0_102_472)">
<rect width="56" height="40" fill="#E81B26"/>
<circle cx="28" cy="20" r="6.66667" fill="#FFE94F"/>
<path fill-rule="evenodd" clip-rule="evenodd" d="M20.4162 14.5585C20.8188 13.9984 21.282 13.4847 21.7961 13.027L3.92336 -7.06128L-1.42968 -1.11612L20.4162 14.5585ZM21.7961 26.9731C21.282 26.5153 20.8188 26.0016 20.4162 25.4415L-1.42969 41.1161L3.92336 47.0613L21.7961 26.9731ZM26.1693 29.1538L24 40H32L29.8308 29.1538C29.2388 29.2716 28.6266 29.3333 28 29.3333C27.3735 29.3333 26.7613 29.2716 26.1693 29.1538ZM35.5839 25.4415C35.1813 26.0016 34.7181 26.5153 34.204 26.9731L52.0767 47.0613L57.4298 41.1161L35.5839 25.4415ZM18.7594 21.3201C18.6983 20.8888 18.6667 20.4481 18.6667 20C18.6667 19.5519 18.6983 19.1112 18.7593 18.6799L4.86374e-05 16V24L18.7594 21.3201ZM26.1693 10.8462L24 4.29153e-06H32L29.8308 10.8462C29.2388 10.7284 28.6266 10.6667 28 10.6667C27.3735 10.6667 26.7613 10.7284 26.1693 10.8462ZM37.2407 18.6799C37.3018 19.1112 37.3334 19.5519 37.3334 20C37.3334 20.4481 37.3018 20.8888 37.2407 21.3201L56 24V16L37.2407 18.6799ZM35.5839 14.5585C35.1813 13.9984 34.7181 13.4847 34.204 13.027L52.0767 -7.06128L57.4298 -1.11612L35.5839 14.5585Z" fill="#FFE94F"/>
</g>
</svg>
