<svg width="56" height="40" viewBox="0 0 56 40" fill="none" xmlns="http://www.w3.org/2000/svg">
<rect x="0.5" y="0.5" width="55" height="39" rx="3.5" fill="white" stroke="#F5F5F5"/>
<mask id="mask0_102_99" style="mask-type:luminance" maskUnits="userSpaceOnUse" x="0" y="0" width="56" height="40">
<rect x="0.5" y="0.5" width="55" height="39" rx="3.5" fill="white" stroke="white"/>
</mask>
<g mask="url(#mask0_102_99)">
<path fill-rule="evenodd" clip-rule="evenodd" d="M29.3334 40H56V0H29.3334V40Z" fill="#DE233C"/>
<mask id="path-4-outside-1_102_99" maskUnits="userSpaceOnUse" x="3.33337" y="3.33331" width="12" height="12" fill="black">
<rect fill="white" x="3.33337" y="3.33331" width="12" height="12"/>
<path fill-rule="evenodd" clip-rule="evenodd" d="M10.6667 5.33331H8.00004V7.99998H5.33337V10.6666H8.00004V13.3333H10.6667V10.6666H13.3334V7.99998H10.6667V5.33331Z"/>
</mask>
<path fill-rule="evenodd" clip-rule="evenodd" d="M10.6667 5.33331H8.00004V7.99998H5.33337V10.6666H8.00004V13.3333H10.6667V10.6666H13.3334V7.99998H10.6667V5.33331Z" fill="#CCCCCD"/>
<path d="M8.00004 5.33331V3.99998H6.66671V5.33331H8.00004ZM10.6667 5.33331H12V3.99998H10.6667V5.33331ZM8.00004 7.99998V9.33331H9.33337V7.99998H8.00004ZM5.33337 7.99998V6.66665H4.00004V7.99998H5.33337ZM5.33337 10.6666H4.00004V12H5.33337V10.6666ZM8.00004 10.6666H9.33337V9.33331H8.00004V10.6666ZM8.00004 13.3333H6.66671V14.6666H8.00004V13.3333ZM10.6667 13.3333V14.6666H12V13.3333H10.6667ZM10.6667 10.6666V9.33331H9.33337V10.6666H10.6667ZM13.3334 10.6666V12H14.6667V10.6666H13.3334ZM13.3334 7.99998H14.6667V6.66665H13.3334V7.99998ZM10.6667 7.99998H9.33337V9.33331H10.6667V7.99998ZM8.00004 6.66665H10.6667V3.99998H8.00004V6.66665ZM9.33337 7.99998V5.33331H6.66671V7.99998H9.33337ZM5.33337 9.33331H8.00004V6.66665H5.33337V9.33331ZM6.66671 10.6666V7.99998H4.00004V10.6666H6.66671ZM8.00004 9.33331H5.33337V12H8.00004V9.33331ZM9.33337 13.3333V10.6666H6.66671V13.3333H9.33337ZM10.6667 12H8.00004V14.6666H10.6667V12ZM9.33337 10.6666V13.3333H12V10.6666H9.33337ZM13.3334 9.33331H10.6667V12H13.3334V9.33331ZM12 7.99998V10.6666H14.6667V7.99998H12ZM10.6667 9.33331H13.3334V6.66665H10.6667V9.33331ZM9.33337 5.33331V7.99998H12V5.33331H9.33337Z" fill="#7B716A" fill-opacity="0.66" mask="url(#path-4-outside-1_102_99)"/>
<circle cx="9.33333" cy="9.33333" r="1.33333" fill="#7B716A"/>
</g>
</svg>
