<svg width="56" height="40" viewBox="0 0 56 40" fill="none" xmlns="http://www.w3.org/2000/svg">
<rect width="56" height="40" rx="4" fill="white"/>
<mask id="mask0_102_795" style="mask-type:luminance" maskUnits="userSpaceOnUse" x="0" y="0" width="56" height="40">
<rect width="56" height="40" rx="4" fill="white"/>
</mask>
<g mask="url(#mask0_102_795)">
<path fill-rule="evenodd" clip-rule="evenodd" d="M56 0H26.6667V2.66667H56V0ZM56 5.33333H26.6667V8H56V5.33333ZM26.6667 10.6667H56V13.3333H26.6667V10.6667ZM56 16H26.6667V18.6667H56V16ZM0 21.3333H56V24H0V21.3333ZM56 26.6667H0V29.3333H56V26.6667ZM0 32H56V34.6667H0V32ZM56 37.3333H0V40H56V37.3333Z" fill="#E1244A"/>
<rect width="32" height="21.3333" fill="#0C3F8E"/>
<path fill-rule="evenodd" clip-rule="evenodd" d="M16 4.00002C16.8195 4.00002 17.6045 4.14789 18.3297 4.4184C16.9607 3.32224 15.2236 2.66669 13.3334 2.66669C8.9151 2.66669 5.33337 6.24841 5.33337 10.6667C5.33337 15.085 8.9151 18.6667 13.3334 18.6667C15.2236 18.6667 16.9607 18.0111 18.3297 16.915C17.6045 17.1855 16.8195 17.3334 16 17.3334C12.3181 17.3334 9.33337 14.3486 9.33337 10.6667C9.33337 6.98479 12.3181 4.00002 16 4.00002ZM19.0193 15.4719L21.3334 12.8534L23.6474 15.4719L23.043 12.0301L26.533 11.8535L23.4652 10.1801L25.5031 7.34141L22.2821 8.69657L21.3334 5.33335L20.3846 8.69657L17.1636 7.34141L19.2015 10.1801L16.1338 11.8535L19.6238 12.0301L19.0193 15.4719Z" fill="#FFD34F"/>
</g>
</svg>
