<svg width="56" height="40" viewBox="0 0 56 40" fill="none" xmlns="http://www.w3.org/2000/svg">
<rect x="0.214286" y="0.214286" width="55.5714" height="39.5714" rx="1.5" fill="white" stroke="#F5F5F5" stroke-width="0.428571"/>
<path fill-rule="evenodd" clip-rule="evenodd" d="M0 1.71429C0 0.767513 0.767512 -3.12173e-09 1.71429 -2.20386e-09L5.16032 1.13694e-09C5.27313 1.24631e-09 5.38342 0.0333932 5.47729 0.0959713L34.1927 19.2396C35.1335 19.8668 34.6895 21.3333 33.5587 21.3333H16L35.0443 37.9971C35.8384 38.692 35.347 40 34.2917 40H1.71428C0.767511 40 0 39.2325 0 38.2857V1.71429Z" fill="white"/>
<mask id="mask0_102_2325" style="mask-type:luminance" maskUnits="userSpaceOnUse" x="0" y="0" width="36" height="40">
<path fill-rule="evenodd" clip-rule="evenodd" d="M0 1.71429C0 0.767513 0.767512 -3.12173e-09 1.71429 -2.20386e-09L5.16032 1.13694e-09C5.27313 1.24631e-09 5.38342 0.0333932 5.47729 0.0959713L34.1927 19.2396C35.1335 19.8668 34.6895 21.3333 33.5587 21.3333H16L35.0443 37.9971C35.8384 38.692 35.347 40 34.2917 40H1.71428C0.767511 40 0 39.2325 0 38.2857V1.71429Z" fill="white"/>
</mask>
<g mask="url(#mask0_102_2325)">
<path d="M34.2917 39.4286H0.571429V0.571429H5.16032L33.8757 19.715C34.3461 20.0286 34.1241 20.7619 33.5587 20.7619H16C15.7619 20.7619 15.5488 20.9095 15.4651 21.1323C15.3814 21.3552 15.4446 21.6066 15.6237 21.7634L34.668 38.4271C35.0651 38.7746 34.8193 39.4286 34.2917 39.4286Z" fill="#EE1B44" stroke="#0543A8" stroke-width="1.14286" stroke-linejoin="round"/>
<path fill-rule="evenodd" clip-rule="evenodd" d="M13.7023 15.6015C14.4705 15.391 15.1787 15.1031 15.8051 14.7524C15.1837 17.0091 13.1167 18.6667 10.6626 18.6667C8.20833 18.6667 6.14127 17.0089 5.52002 14.7521C6.14818 15.1039 6.85864 15.3925 7.62937 15.6032L8.66677 14.6666L6.97126 13.1359L9.25256 13.2524L9.13604 10.9711L10.6668 12.6666L12.1975 10.9711L12.081 13.2524L14.3623 13.1359L12.6668 14.6666L13.7023 15.6015ZM8.62577 34.2607L10.6668 32L12.7077 34.2607L12.5524 31.219L15.5941 31.3743L13.3334 29.3333L15.5941 27.2924L12.5524 27.4477L12.7077 24.406L10.6668 26.6667L8.62577 24.406L8.78113 27.4477L5.73939 27.2924L8.00008 29.3333L5.73939 31.3743L8.78113 31.219L8.62577 34.2607Z" fill="white"/>
</g>
</svg>
