<svg width="56" height="40" viewBox="0 0 56 40" fill="none" xmlns="http://www.w3.org/2000/svg">
<rect width="56" height="40" rx="4" fill="white"/>
<mask id="mask0_102_1437" style="mask-type:luminance" maskUnits="userSpaceOnUse" x="0" y="0" width="56" height="40">
<rect width="56" height="40" rx="4" fill="white"/>
</mask>
<g mask="url(#mask0_102_1437)">
<rect width="56" height="40" fill="#0A17A7"/>
<path d="M0 -0.666667H-1.80217L-0.433861 0.506171L8.66667 8.30662V10.3236L-0.387492 16.7908L-0.666667 16.9903V17.3333V18.6667V19.8695L0.353333 19.232L10.8579 12.6667H13.1197L22.1642 19.127C22.352 19.2612 22.5771 19.3333 22.808 19.3333C23.8363 19.3333 24.3096 18.054 23.5288 17.3847L15.3333 10.36V8.34308L24.1083 2.07523C24.4587 1.82495 24.6667 1.42086 24.6667 0.990254V0V-1.20283L23.6467 -0.565332L13.1421 6H10.8803L1.72083 -0.542489L1.54698 -0.666667H1.33333H0Z" fill="#FF2E3B" stroke="white" stroke-width="1.33333"/>
<path fill-rule="evenodd" clip-rule="evenodd" d="M0 6.66667V12H9.33333V18.6667C9.33333 19.403 9.93029 20 10.6667 20H13.3333C14.0697 20 14.6667 19.403 14.6667 18.6667V12H24C24.7364 12 25.3333 11.403 25.3333 10.6667V8C25.3333 7.26362 24.7364 6.66667 24 6.66667H14.6667V0H9.33333V6.66667H0Z" fill="white"/>
<path fill-rule="evenodd" clip-rule="evenodd" d="M0 8H10.6667V6.66667V0H13.3333V6.66667V8H24V10.6667H13.3333V12V18.6667H10.6667V12V10.6667H0V8Z" fill="#FF2E3B"/>
<path fill-rule="evenodd" clip-rule="evenodd" d="M39.9999 34.6667L38.1143 35.219L38.6666 33.3334L38.1143 31.4477L39.9999 32L41.8855 31.4477L41.3333 33.3334L41.8855 35.219L39.9999 34.6667Z" fill="#CA1931"/>
<path fill-rule="evenodd" clip-rule="evenodd" d="M39.9999 9.33331L38.1143 9.8856L38.6666 7.99998L38.1143 6.11436L39.9999 6.66665L41.8855 6.11436L41.3333 7.99998L41.8855 9.8856L39.9999 9.33331Z" fill="#CA1931"/>
<path fill-rule="evenodd" clip-rule="evenodd" d="M47.9999 17.3333L46.1143 17.8856L46.6666 16L46.1143 14.1144L47.9999 14.6666L49.8855 14.1144L49.3333 16L49.8855 17.8856L47.9999 17.3333Z" fill="#CA1931"/>
<path fill-rule="evenodd" clip-rule="evenodd" d="M31.9999 20L30.1143 20.5523L30.6666 18.6667L30.1143 16.781L31.9999 17.3333L33.8855 16.781L33.3333 18.6667L33.8855 20.5523L31.9999 20Z" fill="#CA1931"/>
</g>
</svg>
