<svg width="56" height="40" viewBox="0 0 56 40" fill="none" xmlns="http://www.w3.org/2000/svg">
<rect width="56" height="40" rx="4" fill="white"/>
<mask id="mask0_102_1385" style="mask-type:luminance" maskUnits="userSpaceOnUse" x="0" y="0" width="56" height="40">
<rect width="56" height="40" rx="4" fill="white"/>
</mask>
<g mask="url(#mask0_102_1385)">
<rect width="56" height="40" fill="#262626"/>
<path fill-rule="evenodd" clip-rule="evenodd" d="M0 0H56V40L0 0Z" fill="#E8283F"/>
<path fill-rule="evenodd" clip-rule="evenodd" d="M13.3334 33.3333L11.4478 33.8856L12.0001 32L11.4478 30.1144L13.3334 30.6667L15.219 30.1144L14.6667 32L15.219 33.8856L13.3334 33.3333Z" fill="white"/>
<path fill-rule="evenodd" clip-rule="evenodd" d="M13.3334 17.3333L11.4478 17.8856L12.0001 16L11.4478 14.1144L13.3334 14.6667L15.219 14.1144L14.6667 16L15.219 17.8856L13.3334 17.3333Z" fill="white"/>
<path fill-rule="evenodd" clip-rule="evenodd" d="M6.66667 24L4.78105 24.5523L5.33333 22.6667L4.78105 20.781L6.66667 21.3333L8.55228 20.781L8 22.6667L8.55228 24.5523L6.66667 24Z" fill="white"/>
<path fill-rule="evenodd" clip-rule="evenodd" d="M18.6667 22.6667L16.781 23.219L17.3333 21.3333L16.781 19.4477L18.6667 20L20.5523 19.4477L20 21.3333L20.5523 23.219L18.6667 22.6667Z" fill="white"/>
<path fill-rule="evenodd" clip-rule="evenodd" d="M37.7226 18.5311C37.4033 18.3396 37.1445 17.8884 37.1445 17.5274L37.1445 15.07C37.1445 14.7072 36.8835 14.5001 36.4885 14.6318L34.9721 15.1372C34.6098 15.258 34.0551 15.2689 33.6601 15.1372L32.1437 14.6318C31.7814 14.511 31.7411 14.261 32.0657 14.0663L35.6237 11.9315C35.9429 11.7399 36.1147 11.3236 35.9831 10.9286L35.4776 9.41224C35.3568 9.04993 35.5199 8.84324 35.9149 8.9749L37.4313 9.48037C37.7936 9.60114 38.2394 9.44559 38.4342 9.121L40.569 5.56303C40.7605 5.24379 41.0028 5.24602 41.1344 5.641L41.6399 7.15741C41.7607 7.51972 41.7716 8.07444 41.6399 8.46943L41.1344 9.98584C41.0137 10.3481 41.2117 10.6418 41.5727 10.6418H44.0301C44.3929 10.6418 44.8391 10.8953 45.0338 11.2199L47.1686 14.7779C47.3602 15.0971 47.2061 15.4178 46.86 15.487L43.4569 16.1676C43.0949 16.24 42.7395 16.608 42.6703 16.9542L41.9897 20.3573C41.9173 20.7193 41.6051 20.8607 41.2805 20.6659L37.7226 18.5311Z" fill="#FFD84E"/>
</g>
</svg>
