<svg width="56" height="40" viewBox="0 0 56 40" fill="none" xmlns="http://www.w3.org/2000/svg">
<rect x="0.5" y="0.5" width="55" height="39" rx="3.5" fill="white" stroke="#F5F5F5"/>
<mask id="mask0_102_2063" style="mask-type:luminance" maskUnits="userSpaceOnUse" x="0" y="0" width="56" height="40">
<rect x="0.5" y="0.5" width="55" height="39" rx="3.5" fill="white" stroke="white"/>
</mask>
<g mask="url(#mask0_102_2063)">
<path fill-rule="evenodd" clip-rule="evenodd" d="M0 40H56V18.6667H24.8889L26.6667 20L0 40Z" fill="#DD1C34"/>
<path fill-rule="evenodd" clip-rule="evenodd" d="M56 18.6667H24.8889L0 0H56V18.6667Z" fill="#0D4BC3"/>
<path fill-rule="evenodd" clip-rule="evenodd" d="M5.33341 6.66666C5.33341 7.40304 4.73646 7.99999 4.00008 7.99999C3.2637 7.99999 2.66675 7.40304 2.66675 6.66666C2.66675 5.93028 3.2637 5.33333 4.00008 5.33333C4.73646 5.33333 5.33341 5.93028 5.33341 6.66666ZM21.3334 20C21.3334 20.7364 20.7365 21.3333 20.0001 21.3333C19.2637 21.3333 18.6667 20.7364 18.6667 20C18.6667 19.2636 19.2637 18.6667 20.0001 18.6667C20.7365 18.6667 21.3334 19.2636 21.3334 20ZM4.00008 34.6667C4.73646 34.6667 5.33341 34.0697 5.33341 33.3333C5.33341 32.5969 4.73646 32 4.00008 32C3.2637 32 2.66675 32.5969 2.66675 33.3333C2.66675 34.0697 3.2637 34.6667 4.00008 34.6667ZM9.06423 22.6532L6.78219 26.1592L7.64765 22.0663C7.50838 21.9526 7.38083 21.825 7.26708 21.6858L3.17422 22.5512L6.68017 20.2692C6.67129 20.1807 6.66675 20.0909 6.66675 20C6.66675 19.9091 6.67129 19.8193 6.68017 19.7308L3.17422 17.4488L7.26708 18.3142C7.38083 18.175 7.50838 18.0474 7.64765 17.9337L6.78219 13.8408L9.06423 17.3467C9.15275 17.3379 9.24255 17.3333 9.33342 17.3333C9.42428 17.3333 9.51407 17.3379 9.6026 17.3467L11.8846 13.8408L11.0192 17.9337C11.1584 18.0474 11.286 18.175 11.3998 18.3142L15.4926 17.4488L11.9867 19.7308C11.9955 19.8193 12.0001 19.9091 12.0001 20C12.0001 20.0909 11.9955 20.1807 11.9867 20.2692L15.4926 22.5512L11.3998 21.6858C11.286 21.825 11.1584 21.9526 11.0192 22.0663L11.8846 26.1592L9.6026 22.6532C9.51407 22.6621 9.42428 22.6667 9.33342 22.6667C9.24255 22.6667 9.15275 22.6621 9.06423 22.6532Z" fill="#FDD64D"/>
</g>
</svg>
