<svg width="56" height="40" viewBox="0 0 56 40" fill="none" xmlns="http://www.w3.org/2000/svg">
<rect x="0.5" y="0.5" width="55" height="39" rx="3.5" fill="white" stroke="#F5F5F5"/>
<mask id="mask0_102_724" style="mask-type:luminance" maskUnits="userSpaceOnUse" x="0" y="0" width="56" height="40">
<rect x="0.5" y="0.5" width="55" height="39" rx="3.5" fill="white" stroke="white"/>
</mask>
<g mask="url(#mask0_102_724)">
<path fill-rule="evenodd" clip-rule="evenodd" d="M0 26.6666H56V13.3333H0V26.6666Z" fill="#17508F"/>
<path fill-rule="evenodd" clip-rule="evenodd" d="M0 13.3333H56V0H0V13.3333Z" fill="#E1444D"/>
<path fill-rule="evenodd" clip-rule="evenodd" d="M12 20C12 18.7099 12.6873 15.8357 13.075 14.3171C13.2236 13.735 13.7499 13.3333 14.3507 13.3333H20.3184C20.918 13.3333 21.4436 13.7334 21.5928 14.3142C21.9807 15.8239 22.6667 18.6804 22.6667 20C22.6667 21.4899 21.6661 25.4015 21.3985 26.4209C21.3554 26.5848 21.2823 26.7353 21.1744 26.866C20.6634 27.4851 18.9984 29.3333 17.3333 29.3333C15.6673 29.3333 14.0012 27.4828 13.4913 26.8649C13.384 26.7349 13.3112 26.5854 13.2681 26.4225C13.0004 25.4104 12 21.5269 12 20Z" fill="white"/>
<mask id="mask1_102_724" style="mask-type:luminance" maskUnits="userSpaceOnUse" x="12" y="13" width="11" height="17">
<path fill-rule="evenodd" clip-rule="evenodd" d="M12 20C12 18.7099 12.6873 15.8357 13.075 14.3171C13.2236 13.735 13.7499 13.3333 14.3507 13.3333H20.3184C20.918 13.3333 21.4436 13.7334 21.5928 14.3142C21.9807 15.8239 22.6667 18.6804 22.6667 20C22.6667 21.4899 21.6661 25.4015 21.3985 26.4209C21.3554 26.5848 21.2823 26.7353 21.1744 26.866C20.6634 27.4851 18.9984 29.3333 17.3333 29.3333C15.6673 29.3333 14.0012 27.4828 13.4913 26.8649C13.384 26.7349 13.3112 26.5854 13.2681 26.4225C13.0004 25.4104 12 21.5269 12 20Z" fill="white"/>
</mask>
<g mask="url(#mask1_102_724)">
<path d="M22.6667 14.6666L12.0001 28" stroke="#E1444D" stroke-width="2.66667" stroke-linecap="square"/>
<path d="M12 14.6666L22.6667 28" stroke="#E1444D" stroke-width="2.66667" stroke-linecap="square"/>
</g>
</g>
</svg>
