<svg width="56" height="40" viewBox="0 0 56 40" fill="none" xmlns="http://www.w3.org/2000/svg">
<rect width="56" height="40" rx="4" fill="white"/>
<mask id="mask0_102_1327" style="mask-type:luminance" maskUnits="userSpaceOnUse" x="0" y="0" width="56" height="40">
<rect width="56" height="40" rx="4" fill="white"/>
</mask>
<g mask="url(#mask0_102_1327)">
<g filter="url(#filter0_d_102_1327)">
<path fill-rule="evenodd" clip-rule="evenodd" d="M0 40H56V29.3333H0V40Z" fill="#2D754D"/>
</g>
<path fill-rule="evenodd" clip-rule="evenodd" d="M0 18.6667H56V0H0V18.6667Z" fill="#25B1EB"/>
<path fill-rule="evenodd" clip-rule="evenodd" d="M0 29.3334H56V18.6667H0V29.3334Z" fill="#FECB2F"/>
<path fill-rule="evenodd" clip-rule="evenodd" d="M42.6666 12L40.6256 14.2607L40.781 11.219L37.7392 11.3743L39.9999 9.33333L37.7392 7.29236L40.781 7.44772L40.6256 4.40598L42.6666 6.66667L44.7076 4.40598L44.5522 7.44772L47.5939 7.29236L45.3333 9.33333L47.5939 11.3743L44.5522 11.219L44.7076 14.2607L42.6666 12Z" fill="#FECB2F"/>
</g>
<defs>
<filter id="filter0_d_102_1327" x="0" y="29.3333" width="56" height="10.6667" filterUnits="userSpaceOnUse" color-interpolation-filters="sRGB">
<feFlood flood-opacity="0" result="BackgroundImageFix"/>
<feColorMatrix in="SourceAlpha" type="matrix" values="0 0 0 0 0 0 0 0 0 0 0 0 0 0 0 0 0 0 127 0" result="hardAlpha"/>
<feOffset/>
<feColorMatrix type="matrix" values="0 0 0 0 0 0 0 0 0 0 0 0 0 0 0 0 0 0 0.06 0"/>
<feBlend mode="normal" in2="BackgroundImageFix" result="effect1_dropShadow_102_1327"/>
<feBlend mode="normal" in="SourceGraphic" in2="effect1_dropShadow_102_1327" result="shape"/>
</filter>
</defs>
</svg>
