<svg width="56" height="40" viewBox="0 0 56 40" fill="none" xmlns="http://www.w3.org/2000/svg">
<rect width="56" height="40" rx="4" fill="white"/>
<mask id="mask0_102_1252" style="mask-type:luminance" maskUnits="userSpaceOnUse" x="0" y="0" width="56" height="40">
<rect width="56" height="40" rx="4" fill="white"/>
</mask>
<g mask="url(#mask0_102_1252)">
<rect width="56" height="40" fill="#128C4B"/>
<path fill-rule="evenodd" clip-rule="evenodd" d="M13.3333 24H34.6666V22.1574C34.6666 21.1662 35.7097 20.5215 36.5962 20.9648L37.3333 21.3333V24H41.3333C42.0696 24 42.6666 24.597 42.6666 25.3333V26.6667C42.6666 28.1394 41.4727 29.3333 39.9999 29.3333H35.9999C35.2635 29.3333 34.6666 28.7364 34.6666 28V26.6667H16.5522C16.1986 26.6667 15.8594 26.5262 15.6094 26.2761L13.3333 24Z" fill="white"/>
<path fill-rule="evenodd" clip-rule="evenodd" d="M13.3333 16.2762C13.3333 16.0994 13.4035 15.9298 13.5285 15.8048L14.1952 15.1381C14.4555 14.8777 14.4555 14.4556 14.1952 14.1953L13.5285 13.5286C13.4035 13.4036 13.3333 13.234 13.3333 13.0572V11.3334C13.3333 10.9652 13.6317 10.6667 13.9999 10.6667H15.4906C15.7719 10.6667 15.9999 10.8947 15.9999 11.176C15.9999 11.7134 16.7244 11.8844 16.9647 11.4037L17.1635 11.0062C17.2675 10.7981 17.4802 10.6667 17.7129 10.6667H20.6666C21.0348 10.6667 21.3333 10.9652 21.3333 11.3334C21.3333 11.7015 21.0348 12 20.6666 12H19.3333C18.9651 12 18.6666 12.2985 18.6666 12.6667C18.6666 13.0349 18.9651 13.3334 19.3333 13.3334H20.6666C21.0348 13.3334 21.3333 13.6318 21.3333 14V18C21.3333 18.3682 21.0348 18.6667 20.6666 18.6667H19.3333C18.9651 18.6667 18.6666 18.3682 18.6666 18V16.6667C18.6666 16.2985 18.9651 16 19.3333 16C19.7014 16 19.9999 15.7015 19.9999 15.3334C19.9999 14.9652 19.7014 14.6667 19.3333 14.6667H17.9999C17.6317 14.6667 17.3333 14.9652 17.3333 15.3334V18C17.3333 18.3682 17.0348 18.6667 16.6666 18.6667C16.2984 18.6667 15.9999 18.3682 15.9999 18V16.6667C15.9999 16.2985 15.7014 16 15.3333 16C14.9651 16 14.6666 16.2985 14.6666 16.6667V18C14.6666 18.3682 14.3681 18.6667 13.9999 18.6667C13.6317 18.6667 13.3333 18.3682 13.3333 18V16.2762Z" fill="white"/>
<path fill-rule="evenodd" clip-rule="evenodd" d="M34.6667 16.2762C34.6667 16.0994 34.737 15.9298 34.862 15.8048L35.5287 15.1381C35.789 14.8777 35.789 14.4556 35.5287 14.1953L34.862 13.5286C34.737 13.4036 34.6667 13.234 34.6667 13.0572V11.3334C34.6667 10.9652 34.9652 10.6667 35.3334 10.6667H36.8241C37.1054 10.6667 37.3334 10.8947 37.3334 11.176C37.3334 11.7134 38.0579 11.8844 38.2982 11.4037L38.497 11.0062C38.601 10.7981 38.8137 10.6667 39.0463 10.6667H42.0001C42.3683 10.6667 42.6667 10.9652 42.6667 11.3334C42.6667 11.7015 42.3683 12 42.0001 12H40.6667C40.2986 12 40.0001 12.2985 40.0001 12.6667C40.0001 13.0349 40.2986 13.3334 40.6667 13.3334H42.0001C42.3683 13.3334 42.6667 13.6318 42.6667 14V18C42.6667 18.3682 42.3683 18.6667 42.0001 18.6667H40.6667C40.2986 18.6667 40.0001 18.3682 40.0001 18V16.6667C40.0001 16.2985 40.2986 16 40.6667 16C41.0349 16 41.3334 15.7015 41.3334 15.3334C41.3334 14.9652 41.0349 14.6667 40.6667 14.6667H39.3334C38.9652 14.6667 38.6667 14.9652 38.6667 15.3334V18C38.6667 18.3682 38.3683 18.6667 38.0001 18.6667C37.6319 18.6667 37.3334 18.3682 37.3334 18V16.6667C37.3334 16.2985 37.0349 16 36.6667 16C36.2986 16 36.0001 16.2985 36.0001 16.6667V18C36.0001 18.3682 35.7016 18.6667 35.3334 18.6667C34.9652 18.6667 34.6667 18.3682 34.6667 18V16.2762Z" fill="white"/>
<path fill-rule="evenodd" clip-rule="evenodd" d="M32 12.6604C32 13.0321 31.7917 13.5417 31.5186 13.8147L31.148 14.1853C30.8822 14.4512 30.875 14.875 31.148 15.1481L31.5186 15.5187C31.7845 15.7845 32 16.2854 32 16.6729V17.9938C32 18.3654 31.7146 18.6667 31.3271 18.6667H30.0062C29.6346 18.6667 29.3333 18.3813 29.3333 17.9938V16.6729C29.3333 16.3013 29.2103 16.2461 29.0241 16.6185L28.3092 18.0482C28.1385 18.3898 27.6861 18.6667 27.3395 18.6667H24.6605C24.2957 18.6667 24 18.3574 24 18C24 17.6318 24.2854 17.3334 24.6729 17.3334H25.9938C26.3654 17.3334 26.6667 17.0241 26.6667 16.6667C26.6667 16.2985 26.3813 16 25.9938 16H24.6729C24.3013 16 24 15.7133 24 15.346V11.3207C24 10.9595 24.2854 10.6667 24.6729 10.6667H25.9938C26.3654 10.6667 26.6667 10.9521 26.6667 11.3396V12.6604C26.6667 13.0321 26.3574 13.3334 26 13.3334C25.6318 13.3334 25.3333 13.6426 25.3333 14C25.3333 14.3682 25.6187 14.6667 26.0062 14.6667H27.3271C27.6987 14.6667 28 14.3528 28 14.0062V11.3272C28 10.9624 28.3092 10.6667 28.6667 10.6667C29.0349 10.6667 29.3333 10.9521 29.3333 11.3396V12.6604C29.3333 13.0321 29.6426 13.3334 30 13.3334C30.3682 13.3334 30.6667 13.048 30.6667 12.6604V11.3396C30.6667 10.968 30.9759 10.6667 31.3333 10.6667C31.7015 10.6667 32 10.9521 32 11.3396V12.6604Z" fill="white"/>
</g>
</svg>
