<svg width="56" height="40" viewBox="0 0 56 40" fill="none" xmlns="http://www.w3.org/2000/svg">
<rect width="56" height="40" rx="4" fill="white"/>
<mask id="mask0_102_644" style="mask-type:luminance" maskUnits="userSpaceOnUse" x="0" y="0" width="56" height="40">
<rect width="56" height="40" rx="4" fill="white"/>
</mask>
<g mask="url(#mask0_102_644)">
<rect width="56" height="40" fill="url(#paint0_linear_102_644)"/>
<g filter="url(#filter0_d_102_644)">
<path fill-rule="evenodd" clip-rule="evenodd" d="M0 0H56L0 40V0Z" fill="url(#paint1_linear_102_644)"/>
</g>
<path fill-rule="evenodd" clip-rule="evenodd" d="M56 0L0 40H56V0Z" fill="#2C7442"/>
<rect x="-5.54736" y="39.4114" width="67.0946" height="47.6658" transform="rotate(-34 -5.54736 39.4114)" fill="#FFD646"/>
<path fill-rule="evenodd" clip-rule="evenodd" d="M4.04074 8.69673L4.41493 6.51503L2.82983 4.96995L5.02038 4.65164L6.00002 2.66667L6.97966 4.65164L9.17021 4.96995L7.58512 6.51503L7.95931 8.69673L6.00002 7.66667L4.04074 8.69673ZM17.3741 8.69673L17.7483 6.51503L16.1632 4.96995L18.3537 4.65164L19.3334 2.66667L20.313 4.65164L22.5035 4.96995L20.9184 6.51503L21.2926 8.69673L19.3334 7.66667L17.3741 8.69673ZM17.7483 14.515L17.3741 16.6967L19.3334 15.6667L21.2926 16.6967L20.9184 14.515L22.5035 12.9699L20.313 12.6516L19.3334 10.6667L18.3537 12.6516L16.1632 12.9699L17.7483 14.515ZM6.00002 15.6667L4.04074 16.6967L4.41493 14.515L2.82983 12.9699L5.02038 12.6516L6.00002 10.6667L6.97966 12.6516L9.17021 12.9699L7.58512 14.515L7.95931 16.6967L6.00002 15.6667ZM10.7074 12.6967L12.6667 11.6667L14.626 12.6967L14.2518 10.515L15.8369 8.96995L13.6463 8.65164L12.6667 6.66667L11.687 8.65164L9.4965 8.96995L11.0816 10.515L10.7074 12.6967Z" fill="white"/>
</g>
<defs>
<filter id="filter0_d_102_644" x="0" y="0" width="56" height="40" filterUnits="userSpaceOnUse" color-interpolation-filters="sRGB">
<feFlood flood-opacity="0" result="BackgroundImageFix"/>
<feColorMatrix in="SourceAlpha" type="matrix" values="0 0 0 0 0 0 0 0 0 0 0 0 0 0 0 0 0 0 127 0" result="hardAlpha"/>
<feOffset/>
<feColorMatrix type="matrix" values="0 0 0 0 0 0 0 0 0 0 0 0 0 0 0 0 0 0 0.06 0"/>
<feBlend mode="normal" in2="BackgroundImageFix" result="effect1_dropShadow_102_644"/>
<feBlend mode="normal" in="SourceGraphic" in2="effect1_dropShadow_102_644" result="shape"/>
</filter>
<linearGradient id="paint0_linear_102_644" x1="0" y1="0" x2="0" y2="40" gradientUnits="userSpaceOnUse">
<stop stop-color="#1DBE4F"/>
<stop offset="1" stop-color="#159B3F"/>
</linearGradient>
<linearGradient id="paint1_linear_102_644" x1="0" y1="0" x2="0" y2="40" gradientUnits="userSpaceOnUse">
<stop stop-color="#0660D4"/>
<stop offset="1" stop-color="#0051BB"/>
</linearGradient>
</defs>
</svg>
