<svg width="56" height="40" viewBox="0 0 56 40" fill="none" xmlns="http://www.w3.org/2000/svg">
<rect x="0.5" y="0.5" width="55" height="39" rx="3.5" fill="white" stroke="#F5F5F5"/>
<mask id="mask0_102_316" style="mask-type:luminance" maskUnits="userSpaceOnUse" x="0" y="0" width="56" height="40">
<rect x="0.5" y="0.5" width="55" height="39" rx="3.5" fill="white" stroke="white"/>
</mask>
<g mask="url(#mask0_102_316)">
<path fill-rule="evenodd" clip-rule="evenodd" d="M0 21.3333H56V0H0V21.3333Z" fill="#E12237"/>
<path fill-rule="evenodd" clip-rule="evenodd" d="M15.9999 3.99999C16.8194 3.99999 17.6044 4.14786 18.3296 4.41837C16.9606 3.32221 15.2235 2.66666 13.3333 2.66666C8.91497 2.66666 5.33325 6.24838 5.33325 10.6667C5.33325 15.0849 8.91497 18.6667 13.3333 18.6667C15.2235 18.6667 16.9606 18.0111 18.3296 16.9149C17.6044 17.1855 16.8194 17.3333 15.9999 17.3333C12.318 17.3333 9.33325 14.3486 9.33325 10.6667C9.33325 6.98476 12.318 3.99999 15.9999 3.99999ZM14.6666 10.6667C15.403 10.6667 15.9999 10.0697 15.9999 9.33332C15.9999 8.59694 15.403 7.99999 14.6666 7.99999C13.9302 7.99999 13.3333 8.59694 13.3333 9.33332C13.3333 10.0697 13.9302 10.6667 14.6666 10.6667ZM18.6666 14.6667C18.6666 15.403 18.0696 16 17.3333 16C16.5969 16 15.9999 15.403 15.9999 14.6667C15.9999 13.9303 16.5969 13.3333 17.3333 13.3333C18.0696 13.3333 18.6666 13.9303 18.6666 14.6667ZM22.6666 16C23.403 16 23.9999 15.403 23.9999 14.6667C23.9999 13.9303 23.403 13.3333 22.6666 13.3333C21.9302 13.3333 21.3333 13.9303 21.3333 14.6667C21.3333 15.403 21.9302 16 22.6666 16ZM26.6666 9.33332C26.6666 10.0697 26.0696 10.6667 25.3333 10.6667C24.5969 10.6667 23.9999 10.0697 23.9999 9.33332C23.9999 8.59694 24.5969 7.99999 25.3333 7.99999C26.0696 7.99999 26.6666 8.59694 26.6666 9.33332ZM19.9999 6.66666C20.7363 6.66666 21.3333 6.0697 21.3333 5.33332C21.3333 4.59694 20.7363 3.99999 19.9999 3.99999C19.2635 3.99999 18.6666 4.59694 18.6666 5.33332C18.6666 6.0697 19.2635 6.66666 19.9999 6.66666Z" fill="white"/>
</g>
</svg>
