<svg width="56" height="40" viewBox="0 0 56 40" fill="none" xmlns="http://www.w3.org/2000/svg">
<rect x="0.5" y="0.5" width="55" height="39" rx="3.5" fill="white" stroke="#F5F5F5"/>
<mask id="mask0_102_557" style="mask-type:luminance" maskUnits="userSpaceOnUse" x="0" y="0" width="56" height="40">
<rect x="0.5" y="0.5" width="55" height="39" rx="3.5" fill="white" stroke="white"/>
</mask>
<g mask="url(#mask0_102_557)">
<path fill-rule="evenodd" clip-rule="evenodd" d="M0 26.6667H56V13.3333H0V26.6667Z" fill="#0C47B7"/>
<path fill-rule="evenodd" clip-rule="evenodd" d="M0 40H56V26.6667H0V40Z" fill="#E53B35"/>
<path d="M13.8993 6.66667C11.75 6.66667 9.98486 8.3652 9.90226 10.5129L9.38376 23.9939C9.33681 25.2145 9.85018 26.3897 10.7776 27.1846L16.529 32.1144C18.5263 33.8263 21.4735 33.8263 23.4708 32.1144L29.2221 27.1846C30.1496 26.3897 30.663 25.2145 30.616 23.9939L30.0975 10.5129C30.0149 8.3652 28.2498 6.66667 26.1005 6.66667H13.8993Z" fill="#F73744" stroke="white" stroke-width="2.66667"/>
<mask id="mask1_102_557" style="mask-type:luminance" maskUnits="userSpaceOnUse" x="8" y="5" width="24" height="30">
<path d="M13.8993 6.66667C11.75 6.66667 9.98486 8.3652 9.90226 10.5129L9.38376 23.9939C9.33681 25.2145 9.85018 26.3897 10.7776 27.1846L16.529 32.1144C18.5263 33.8263 21.4735 33.8263 23.4708 32.1144L29.2221 27.1846C30.1496 26.3897 30.663 25.2145 30.616 23.9939L30.0975 10.5129C30.0149 8.3652 28.2498 6.66667 26.1005 6.66667H13.8993Z" fill="white" stroke="white" stroke-width="2.66667"/>
</mask>
<g mask="url(#mask1_102_557)">
<path fill-rule="evenodd" clip-rule="evenodd" d="M18.6665 22C18.6665 21.6318 18.368 21.3333 17.9998 21.3333H15.3332C14.965 21.3333 14.6665 21.0349 14.6665 20.6667V19.3333C14.6665 18.9651 14.965 18.6667 15.3332 18.6667H17.9998C18.368 18.6667 18.6665 18.3682 18.6665 18V16.6667C18.6665 16.2985 18.368 16 17.9998 16H16.6665C16.2983 16 15.9998 15.7015 15.9998 15.3333V14C15.9998 13.6318 16.2983 13.3333 16.6665 13.3333H17.9998C18.368 13.3333 18.6665 13.0349 18.6665 12.6667V11.3333C18.6665 10.9651 18.965 10.6667 19.3332 10.6667H20.6665C21.0347 10.6667 21.3332 10.9651 21.3332 11.3333V12.6667C21.3332 13.0349 21.6316 13.3333 21.9998 13.3333H23.3332C23.7014 13.3333 23.9998 13.6318 23.9998 14V15.3333C23.9998 15.7015 23.7014 16 23.3332 16H21.9998C21.6316 16 21.3332 16.2985 21.3332 16.6667V18C21.3332 18.3682 21.6316 18.6667 21.9998 18.6667H24.6665C25.0347 18.6667 25.3332 18.9651 25.3332 19.3333V20.6667C25.3332 21.0349 25.0347 21.3333 24.6665 21.3333H21.9998C21.6316 21.3333 21.3332 21.6318 21.3332 22V26C21.3332 26.3682 21.0347 26.6667 20.6665 26.6667H19.3332C18.965 26.6667 18.6665 26.3682 18.6665 26V22Z" fill="white"/>
<path fill-rule="evenodd" clip-rule="evenodd" d="M17.5929 26.8509C18.0222 25.9533 18.9387 25.3333 20 25.3333C21.0613 25.3333 21.9778 25.9533 22.4071 26.8509C25.6491 27.3617 28 28.8769 28 30.6667C28 32.8758 24.4183 34.6667 20 34.6667C15.5817 34.6667 12 32.8758 12 30.6667C12 28.8769 14.3509 27.3617 17.5929 26.8509Z" fill="#1251A1"/>
</g>
</g>
</svg>
