<svg width="56" height="40" viewBox="0 0 56 40" fill="none" xmlns="http://www.w3.org/2000/svg">
<rect width="56" height="40" rx="4" fill="#06A86E"/>
<mask id="mask0_102_969" style="mask-type:luminance" maskUnits="userSpaceOnUse" x="0" y="0" width="56" height="40">
<rect width="56" height="40" rx="4" fill="white"/>
</mask>
<g mask="url(#mask0_102_969)">
<rect x="-6" width="68" height="40" fill="#003893"/>
<rect x="-6" y="20" width="68" height="10" fill="white"/>
<rect x="-6" y="23.3333" width="68" height="3.33333" fill="#CF2027"/>
<path d="M19.6475 13L18.9439 15.038L20.0266 15.3691" fill="#F7D116"/>
<path d="M19.9276 13L20.7935 15.038L19.461 15.3691" fill="#F7D116"/>
<path d="M21.6265 14.4379L19.4708 14.3985L19.4905 15.5305" fill="#F7D116"/>
<path d="M21.713 14.7044L20.0424 16.1577L19.3157 14.9927" fill="#F7D116"/>
<path d="M20.8707 16.7645L20.242 14.7022L19.1715 15.0707" fill="#F7D116"/>
<path d="M20.6438 16.9292L18.7454 15.7894L19.6288 14.7383" fill="#F7D116"/>
<path d="M18.4245 16.7645L20.1916 15.5293L19.5103 14.625" fill="#F7D116"/>
<path d="M18.1976 16.5998L18.695 14.442L19.9676 14.9574" fill="#F7D116"/>
<path d="M17.6684 14.4379L19.3892 15.7368L20.0387 14.8094" fill="#F7D116"/>
<path d="M17.7549 14.1714L19.9607 13.9776L19.8639 15.3472" fill="#F7D116"/>
<path d="M19.6475 33L18.9439 35.038L20.0266 35.3691" fill="#F7D116"/>
<path d="M19.9276 33L20.7935 35.038L19.461 35.3691" fill="#F7D116"/>
<path d="M21.6265 34.4379L19.4708 34.3985L19.4905 35.5305" fill="#F7D116"/>
<path d="M21.713 34.7044L20.0424 36.1577L19.3157 34.9927" fill="#F7D116"/>
<path d="M20.8707 36.7645L20.242 34.7022L19.1715 35.0707" fill="#F7D116"/>
<path d="M20.6438 36.9292L18.7454 35.7894L19.6288 34.7383" fill="#F7D116"/>
<path d="M18.4245 36.7645L20.1916 35.5293L19.5103 34.625" fill="#F7D116"/>
<path d="M18.1976 36.5998L18.695 34.442L19.9676 34.9574" fill="#F7D116"/>
<path d="M17.6684 34.4379L19.3892 35.7368L20.0387 34.8094" fill="#F7D116"/>
<path d="M17.7549 34.1714L19.9607 33.9776L19.8639 35.3472" fill="#F7D116"/>
<path d="M30.9583 21.4322L28.8026 21.3928L28.8223 22.5248" fill="#F7D116"/>
<path d="M31.0448 21.6987L29.3742 23.152L28.6475 21.987" fill="#F7D116"/>
<path d="M30.2025 23.7588L29.5738 21.6964L28.5033 22.065" fill="#F7D116"/>
<path d="M29.9756 23.9235L28.0772 22.7837L28.9606 21.7326" fill="#F7D116"/>
<path d="M27.756 23.7587L29.5231 22.5235L28.8418 21.6193" fill="#F7D116"/>
<path d="M27.5292 23.594L28.0265 21.4363L29.2991 21.9517" fill="#F7D116"/>
<path d="M26.9999 21.4322L28.7208 22.7311L29.3702 21.8037" fill="#F7D116"/>
<path d="M27.0865 21.1657L29.2923 20.9719L29.1954 22.3415" fill="#F7D116"/>
<path d="M28.979 19.9943L28.2754 22.0322L29.3581 22.3633" fill="#F7D116"/>
<path d="M29.2592 19.9943L30.1251 22.0323L28.7926 22.3633" fill="#F7D116"/>
<path d="M11.937 27.6125L9.78138 27.5732L9.80106 28.7052" fill="#F7D116"/>
<path d="M12.0236 27.879L10.3529 29.3323L9.62629 28.1673" fill="#F7D116"/>
<path d="M11.1813 29.9391L10.5526 27.8768L9.48207 28.2453" fill="#F7D116"/>
<path d="M10.9544 30.1038L9.05595 28.964L9.93938 27.9129" fill="#F7D116"/>
<path d="M8.73478 29.9391L10.5019 28.7039L9.82057 27.7996" fill="#F7D116"/>
<path d="M8.50792 29.7744L9.00526 27.6166L10.2779 28.132" fill="#F7D116"/>
<path d="M7.9787 27.6125L9.69952 28.9114L10.349 27.9841" fill="#F7D116"/>
<path d="M8.06523 27.346L10.2711 27.1522L10.1742 28.5219" fill="#F7D116"/>
<path d="M9.95777 26.1746L9.2542 28.2126L10.3369 28.5437" fill="#F7D116"/>
<path d="M10.2379 26.1746L11.1038 28.2126L9.77132 28.5437" fill="#F7D116"/>
<path d="M26.434 34.795L25.8053 32.7327L24.7348 33.1012" fill="#F7D116"/>
<path d="M26.2071 34.9597L24.3086 33.8199L25.1921 32.7688" fill="#F7D116"/>
<path d="M23.9877 34.795L25.7548 33.5597L25.0735 32.6555" fill="#F7D116"/>
<path d="M23.7608 34.6303L24.2582 32.4725L25.5308 32.9879" fill="#F7D116"/>
<path d="M23.2316 32.4684L24.9524 33.7673L25.6019 32.8399" fill="#F7D116"/>
<path d="M23.3182 32.2019L25.524 32.0081L25.4271 33.3777" fill="#F7D116"/>
<path d="M25.2107 31.0305L24.5071 33.0685L25.5898 33.3996" fill="#F7D116"/>
<path d="M25.4909 31.0305L26.3568 33.0685L25.0243 33.3996" fill="#F7D116"/>
<path d="M27.1897 32.4684L25.0341 32.429L25.0537 33.561" fill="#F7D116"/>
<path d="M27.2763 32.7349L25.6056 34.1882L24.879 33.0232" fill="#F7D116"/>
<path d="M14.6784 18.6146L14.0497 16.5523L12.9791 16.9208" fill="#F7D116"/>
<path d="M14.4515 18.7793L12.553 17.6395L13.4364 16.5885" fill="#F7D116"/>
<path d="M12.2321 18.6146L13.9992 17.3794L13.3179 16.4752" fill="#F7D116"/>
<path d="M12.0052 18.4499L12.5026 16.2922L13.7752 16.8076" fill="#F7D116"/>
<path d="M11.476 16.2881L13.1968 17.587L13.8463 16.6596" fill="#F7D116"/>
<path d="M11.5625 16.0215L13.7684 15.8278L13.6715 17.1974" fill="#F7D116"/>
<path d="M13.4551 14.8502L12.7515 16.8881L13.8342 17.2192" fill="#F7D116"/>
<path d="M13.7352 14.8502L14.6012 16.8881L13.2686 17.2192" fill="#F7D116"/>
<path d="M15.4341 16.288L13.2784 16.2487L13.2981 17.3807" fill="#F7D116"/>
<path d="M15.5207 16.5546L13.85 18.0079L13.1234 16.8429" fill="#F7D116"/>
<path d="M12.3273 34.6214L14.0944 33.3862L13.4131 32.482" fill="#F7D116"/>
<path d="M12.1004 34.4567L12.5978 32.299L13.8704 32.8144" fill="#F7D116"/>
<path d="M11.5712 32.2949L13.292 33.5938L13.9415 32.6664" fill="#F7D116"/>
<path d="M11.6578 32.0284L13.8636 31.8346L13.7667 33.2042" fill="#F7D116"/>
<path d="M13.5503 30.857L12.8467 32.8949L13.9294 33.226" fill="#F7D116"/>
<path d="M13.8305 30.857L14.6964 32.8949L13.3639 33.226" fill="#F7D116"/>
<path d="M15.5293 32.2949L13.3737 32.2555L13.3933 33.3875" fill="#F7D116"/>
<path d="M15.6159 32.5614L13.9452 34.0147L13.2186 32.8497" fill="#F7D116"/>
<path d="M14.7736 34.6214L14.1449 32.5591L13.0744 32.9276" fill="#F7D116"/>
<path d="M14.5467 34.7861L12.6482 33.6464L13.5317 32.5953" fill="#F7D116"/>
<path d="M24.0829 18.4411L25.85 17.2059L25.1687 16.3016" fill="#F7D116"/>
<path d="M23.8561 18.2764L24.3534 16.1186L25.626 16.634" fill="#F7D116"/>
<path d="M23.3268 16.1145L25.0477 17.4134L25.6971 16.486" fill="#F7D116"/>
<path d="M23.4134 15.848L25.6192 15.6542L25.5223 17.0239" fill="#F7D116"/>
<path d="M25.3059 14.6766L24.6023 16.7146L25.685 17.0457" fill="#F7D116"/>
<path d="M25.5861 14.6766L26.452 16.7146L25.1195 17.0457" fill="#F7D116"/>
<path d="M27.2849 16.1145L25.1293 16.0752L25.149 17.2071" fill="#F7D116"/>
<path d="M27.3715 16.381L25.7008 17.8343L24.9742 16.6693" fill="#F7D116"/>
<path d="M26.5292 18.4411L25.9005 16.3788L24.83 16.7473" fill="#F7D116"/>
<path d="M26.3023 18.6058L24.4039 17.466L25.2873 16.4149" fill="#F7D116"/>
<path d="M8.133 21.1514L9.85382 22.4503L10.5033 21.5229" fill="#F7D116"/>
<path d="M8.21953 20.8849L10.4253 20.6911L10.3285 22.0607" fill="#F7D116"/>
<path d="M10.1121 19.7135L9.4085 21.7515L10.4912 22.0826" fill="#F7D116"/>
<path d="M10.3922 19.7135L11.2581 21.7515L9.92562 22.0826" fill="#F7D116"/>
<path d="M12.0911 21.1514L9.93543 21.112L9.95511 22.244" fill="#F7D116"/>
<path d="M12.1776 21.4179L10.507 22.8712L9.78034 21.7062" fill="#F7D116"/>
<path d="M11.3353 23.478L10.7066 21.4157L9.63612 21.7842" fill="#F7D116"/>
<path d="M11.1084 23.6427L9.21001 22.5029L10.0934 21.4518" fill="#F7D116"/>
<path d="M8.88907 23.478L10.6562 22.2428L9.97487 21.3385" fill="#F7D116"/>
<path d="M8.66221 23.3133L9.15956 21.1555L10.4322 21.6709" fill="#F7D116"/>
<path d="M27.1542 27.3318L28.8751 28.6307L29.5245 27.7033" fill="#F7D116"/>
<path d="M27.2408 27.0652L29.4466 26.8715L29.3497 28.2411" fill="#F7D116"/>
<path d="M29.1333 25.8938L28.4297 27.9318L29.5124 28.2629" fill="#F7D116"/>
<path d="M29.4135 25.8938L30.2794 27.9318L28.9469 28.2629" fill="#F7D116"/>
<path d="M31.1123 27.3317L28.9567 27.2924L28.9764 28.4244" fill="#F7D116"/>
<path d="M31.1989 27.5982L29.5282 29.0516L28.8016 27.8866" fill="#F7D116"/>
<path d="M30.3566 29.6583L29.7279 27.596L28.6574 27.9645" fill="#F7D116"/>
<path d="M30.1297 29.823L28.2312 28.6832L29.1147 27.6322" fill="#F7D116"/>
<path d="M27.9103 29.6583L29.6774 28.4231L28.9961 27.5189" fill="#F7D116"/>
<path d="M27.6835 29.4936L28.1808 27.3359L29.4534 27.8513" fill="#F7D116"/>
</g>
</svg>
