<svg width="56" height="40" viewBox="0 0 56 40" fill="none" xmlns="http://www.w3.org/2000/svg">
<rect x="0.5" y="0.5" width="55" height="39" rx="3.5" fill="white" stroke="#F5F5F5"/>
<mask id="mask0_102_821" style="mask-type:luminance" maskUnits="userSpaceOnUse" x="0" y="0" width="56" height="40">
<rect x="0.5" y="0.5" width="55" height="39" rx="3.5" fill="white" stroke="white"/>
</mask>
<g mask="url(#mask0_102_821)">
<path fill-rule="evenodd" clip-rule="evenodd" d="M0 40H56V26.6667H0V40Z" fill="#262626"/>
<path fill-rule="evenodd" clip-rule="evenodd" d="M0 13.3333H56V0H0V13.3333Z" fill="#E32139"/>
<path fill-rule="evenodd" clip-rule="evenodd" d="M18.6666 22.1867L15.5317 24.3148L16.5869 20.6757L13.5943 18.3519L17.3813 18.231L18.6666 14.6667L19.9519 18.231L23.7389 18.3519L20.7462 20.6757L21.8014 24.3148L18.6666 22.1867Z" fill="#128A49"/>
<path fill-rule="evenodd" clip-rule="evenodd" d="M37.3333 22.1867L34.1985 24.3148L35.2537 20.6757L32.261 18.3519L36.048 18.231L37.3333 14.6667L38.6186 18.231L42.4056 18.3519L39.413 20.6757L40.4682 24.3148L37.3333 22.1867Z" fill="#128A49"/>
</g>
</svg>
