<svg width="56" height="40" viewBox="0 0 56 40" fill="none" xmlns="http://www.w3.org/2000/svg">
<rect x="0.5" y="0.5" width="55" height="39" rx="3.5" fill="white" stroke="#F5F5F5"/>
<mask id="mask0_102_692" style="mask-type:luminance" maskUnits="userSpaceOnUse" x="0" y="0" width="56" height="40">
<rect x="0.5" y="0.5" width="55" height="39" rx="3.5" fill="white" stroke="white"/>
</mask>
<g mask="url(#mask0_102_692)">
<path fill-rule="evenodd" clip-rule="evenodd" d="M0 13.3333H56V0H0V13.3333Z" fill="#D9101C"/>
<path fill-rule="evenodd" clip-rule="evenodd" d="M0 40H56V26.6667H0V40Z" fill="#0F7811"/>
<path fill-rule="evenodd" clip-rule="evenodd" d="M25.3334 18.6667C26.0698 18.6667 26.6667 18.0697 26.6667 17.3333C26.6667 16.597 26.0698 16 25.3334 16C24.597 16 24.0001 16.597 24.0001 17.3333C24.0001 18.0697 24.597 18.6667 25.3334 18.6667ZM25.3334 21.3333H26.6667C26.6667 19.8606 27.2637 18.6667 28.0001 18.6667C28.7365 18.6667 29.3334 19.8606 29.3334 21.3333H30.6667C31.4031 21.3333 32.0001 21.9303 32.0001 22.6667C32.0001 23.403 31.4031 24 30.6667 24H28.0001H25.3334C24.597 24 24.0001 23.403 24.0001 22.6667C24.0001 21.9303 24.597 21.3333 25.3334 21.3333ZM30.6667 18.6667C31.4031 18.6667 32.0001 18.0697 32.0001 17.3333C32.0001 16.597 31.4031 16 30.6667 16C29.9304 16 29.3334 16.597 29.3334 17.3333C29.3334 18.0697 29.9304 18.6667 30.6667 18.6667ZM37.3334 20C37.3334 20.7364 36.7365 21.3333 36.0001 21.3333C35.2637 21.3333 34.6667 20.7364 34.6667 20C34.6667 19.2636 35.2637 18.6667 36.0001 18.6667C36.7365 18.6667 37.3334 19.2636 37.3334 20ZM20.0001 21.3333C20.7365 21.3333 21.3334 20.7364 21.3334 20C21.3334 19.2636 20.7365 18.6667 20.0001 18.6667C19.2637 18.6667 18.6667 19.2636 18.6667 20C18.6667 20.7364 19.2637 21.3333 20.0001 21.3333Z" fill="#FAD14E"/>
</g>
</svg>
