<svg width="56" height="40" viewBox="0 0 56 40" fill="none" xmlns="http://www.w3.org/2000/svg">
<rect width="56" height="40" rx="4" fill="white"/>
<mask id="mask0_102_619" style="mask-type:luminance" maskUnits="userSpaceOnUse" x="0" y="0" width="56" height="40">
<rect width="56" height="40" rx="4" fill="white"/>
</mask>
<g mask="url(#mask0_102_619)">
<rect width="56" height="40" fill="#E92434"/>
<path fill-rule="evenodd" clip-rule="evenodd" d="M28 32C34.6274 32 40 26.6274 40 20C40 13.3726 34.6274 8 28 8C21.3726 8 16 13.3726 16 20C16 26.6274 21.3726 32 28 32ZM28 29.3333C29.2281 29.3333 30.4007 29.0961 31.4747 28.6651C31.4277 28.6661 31.3806 28.6667 31.3333 28.6667C27.2832 28.6667 24 24.7865 24 20C24 15.2135 27.2832 11.3333 31.3333 11.3333C31.3806 11.3333 31.4277 11.3339 31.4747 11.3349C30.4007 10.9039 29.2281 10.6667 28 10.6667C22.8453 10.6667 18.6667 14.8453 18.6667 20C18.6667 25.1547 22.8453 29.3333 28 29.3333ZM30.2587 25.3102L32.7084 22.3402L36.3148 23.6875L34.2472 20.4399L36.643 17.4263L32.9154 18.3892L30.7897 15.1795L30.5536 19.0221L26.844 20.052L30.4256 21.4639L30.2587 25.3102Z" fill="white"/>
</g>
</svg>
