<svg width="56" height="40" viewBox="0 0 56 40" fill="none" xmlns="http://www.w3.org/2000/svg">
<rect width="56" height="40" rx="4" fill="white"/>
<mask id="mask0_102_174" style="mask-type:luminance" maskUnits="userSpaceOnUse" x="0" y="0" width="56" height="40">
<rect width="56" height="40" rx="4" fill="white"/>
</mask>
<g mask="url(#mask0_102_174)">
<path fill-rule="evenodd" clip-rule="evenodd" d="M0 5.33333H56V0H0V5.33333Z" fill="#262626"/>
<path fill-rule="evenodd" clip-rule="evenodd" d="M0 26.6667H56V21.3334H0V26.6667Z" fill="#262626"/>
<path fill-rule="evenodd" clip-rule="evenodd" d="M0 21.3334H56V13.3334H0V21.3334Z" fill="#ED1623"/>
<path fill-rule="evenodd" clip-rule="evenodd" d="M0 13.3334H56V5.33337H0V13.3334Z" fill="#FEE044"/>
<path fill-rule="evenodd" clip-rule="evenodd" d="M0 40H56V34.6666H0V40Z" fill="#ED1623"/>
<path fill-rule="evenodd" clip-rule="evenodd" d="M0 34.6666H56V26.6666H0V34.6666Z" fill="#FEE044"/>
<circle cx="28.0001" cy="20" r="9.33333" fill="white"/>
<path fill-rule="evenodd" clip-rule="evenodd" d="M25.8047 15.1381C25.5444 14.8777 25.5444 14.4556 25.8047 14.1952L26.6284 13.3715C26.6539 13.3461 26.6767 13.3193 26.6984 13.2907C26.7685 13.1984 26.9469 12.9731 27.1556 12.7833C27.509 12.4619 28.5159 12.4282 28.8647 12.7546C28.9593 12.8433 29.0459 12.9419 29.1182 13.0324C29.262 13.2123 29.2707 13.4586 29.1677 13.6646L28.0704 15.8592C28.0241 15.9518 28 16.0539 28 16.1574V16.9213C28 17.1738 28.1427 17.4046 28.3685 17.5176L30.5699 18.6183C30.634 18.6503 30.6925 18.6925 30.7432 18.7431L32.9936 20.9935C33.1965 21.1965 33.2468 21.5064 33.1184 21.7631L32.4137 23.1727C32.2102 23.5797 31.6677 23.6677 31.346 23.3459L31.1381 23.1381C30.8777 22.8777 30.4556 22.8777 30.1953 23.1381L29.5286 23.8047C29.4036 23.9297 29.3333 24.0993 29.3333 24.2761V25.0572C29.3333 25.234 29.4036 25.4036 29.5286 25.5286C29.9486 25.9486 29.6511 26.6666 29.0572 26.6666H28.2761C27.6822 26.6666 27.3848 25.9486 27.8047 25.5286C27.9298 25.4036 28 25.234 28 25.0572V24.6666C28 24.2985 27.7015 24 27.3333 24H26.9428C26.766 24 26.5964 24.0702 26.4714 24.1952L25.8047 24.8619C25.5444 25.1223 25.1223 25.1223 24.8619 24.8619L24.4714 24.4714C24.2111 24.211 24.2111 23.7889 24.4714 23.5286L25.1381 22.8619C25.2631 22.7369 25.4327 22.6666 25.6095 22.6666H26.3905C26.9845 22.6666 27.2819 21.9486 26.8619 21.5286L24.4714 19.1381C24.2111 18.8777 24.2111 18.4556 24.4714 18.1952L26.1953 16.4714C26.4556 16.211 26.4556 15.7889 26.1953 15.5286L25.8047 15.1381Z" fill="#262626"/>
</g>
</svg>
