<svg width="56" height="40" viewBox="0 0 56 40" fill="none" xmlns="http://www.w3.org/2000/svg">
<rect width="56" height="40" rx="4" fill="white"/>
<mask id="mask0_102_107" style="mask-type:luminance" maskUnits="userSpaceOnUse" x="0" y="0" width="56" height="40">
<rect width="56" height="40" rx="4" fill="white"/>
</mask>
<g mask="url(#mask0_102_107)">
<path fill-rule="evenodd" clip-rule="evenodd" d="M56 0H0V2.66667H56V0ZM56 5.33333H0V8H56V5.33333ZM0 10.6667H56V13.3333H0V10.6667ZM56 16H0V18.6667H56V16ZM0 21.3333H56V24H0V21.3333ZM56 26.6667H0V29.3333H56V26.6667ZM0 32H56V34.6667H0V32ZM56 37.3333H0V40H56V37.3333Z" fill="#D02F44"/>
<rect width="24" height="18.6667" fill="#46467F"/>
<g filter="url(#filter0_d_102_107)">
<path fill-rule="evenodd" clip-rule="evenodd" d="M4.00008 5.33335C4.73646 5.33335 5.33341 4.7364 5.33341 4.00002C5.33341 3.26364 4.73646 2.66669 4.00008 2.66669C3.2637 2.66669 2.66675 3.26364 2.66675 4.00002C2.66675 4.7364 3.2637 5.33335 4.00008 5.33335ZM9.33342 5.33335C10.0698 5.33335 10.6667 4.7364 10.6667 4.00002C10.6667 3.26364 10.0698 2.66669 9.33342 2.66669C8.59704 2.66669 8.00008 3.26364 8.00008 4.00002C8.00008 4.7364 8.59704 5.33335 9.33342 5.33335ZM16.0001 4.00002C16.0001 4.7364 15.4031 5.33335 14.6667 5.33335C13.9304 5.33335 13.3334 4.7364 13.3334 4.00002C13.3334 3.26364 13.9304 2.66669 14.6667 2.66669C15.4031 2.66669 16.0001 3.26364 16.0001 4.00002ZM20.0001 5.33335C20.7365 5.33335 21.3334 4.7364 21.3334 4.00002C21.3334 3.26364 20.7365 2.66669 20.0001 2.66669C19.2637 2.66669 18.6667 3.26364 18.6667 4.00002C18.6667 4.7364 19.2637 5.33335 20.0001 5.33335ZM8.00008 6.66669C8.00008 7.40307 7.40313 8.00002 6.66675 8.00002C5.93037 8.00002 5.33341 7.40307 5.33341 6.66669C5.33341 5.93031 5.93037 5.33335 6.66675 5.33335C7.40313 5.33335 8.00008 5.93031 8.00008 6.66669ZM12.0001 8.00002C12.7365 8.00002 13.3334 7.40307 13.3334 6.66669C13.3334 5.93031 12.7365 5.33335 12.0001 5.33335C11.2637 5.33335 10.6667 5.93031 10.6667 6.66669C10.6667 7.40307 11.2637 8.00002 12.0001 8.00002ZM18.6667 6.66669C18.6667 7.40307 18.0698 8.00002 17.3334 8.00002C16.597 8.00002 16.0001 7.40307 16.0001 6.66669C16.0001 5.93031 16.597 5.33335 17.3334 5.33335C18.0698 5.33335 18.6667 5.93031 18.6667 6.66669ZM20.0001 10.6667C20.7365 10.6667 21.3334 10.0697 21.3334 9.33335C21.3334 8.59697 20.7365 8.00002 20.0001 8.00002C19.2637 8.00002 18.6667 8.59697 18.6667 9.33335C18.6667 10.0697 19.2637 10.6667 20.0001 10.6667ZM16.0001 9.33335C16.0001 10.0697 15.4031 10.6667 14.6667 10.6667C13.9304 10.6667 13.3334 10.0697 13.3334 9.33335C13.3334 8.59697 13.9304 8.00002 14.6667 8.00002C15.4031 8.00002 16.0001 8.59697 16.0001 9.33335ZM9.33342 10.6667C10.0698 10.6667 10.6667 10.0697 10.6667 9.33335C10.6667 8.59697 10.0698 8.00002 9.33342 8.00002C8.59704 8.00002 8.00008 8.59697 8.00008 9.33335C8.00008 10.0697 8.59704 10.6667 9.33342 10.6667ZM5.33341 9.33335C5.33341 10.0697 4.73646 10.6667 4.00008 10.6667C3.2637 10.6667 2.66675 10.0697 2.66675 9.33335C2.66675 8.59697 3.2637 8.00002 4.00008 8.00002C4.73646 8.00002 5.33341 8.59697 5.33341 9.33335ZM6.66675 13.3334C7.40313 13.3334 8.00008 12.7364 8.00008 12C8.00008 11.2636 7.40313 10.6667 6.66675 10.6667C5.93037 10.6667 5.33341 11.2636 5.33341 12C5.33341 12.7364 5.93037 13.3334 6.66675 13.3334ZM13.3334 12C13.3334 12.7364 12.7365 13.3334 12.0001 13.3334C11.2637 13.3334 10.6667 12.7364 10.6667 12C10.6667 11.2636 11.2637 10.6667 12.0001 10.6667C12.7365 10.6667 13.3334 11.2636 13.3334 12ZM17.3334 13.3334C18.0698 13.3334 18.6667 12.7364 18.6667 12C18.6667 11.2636 18.0698 10.6667 17.3334 10.6667C16.597 10.6667 16.0001 11.2636 16.0001 12C16.0001 12.7364 16.597 13.3334 17.3334 13.3334ZM21.3334 14.6667C21.3334 15.4031 20.7365 16 20.0001 16C19.2637 16 18.6667 15.4031 18.6667 14.6667C18.6667 13.9303 19.2637 13.3334 20.0001 13.3334C20.7365 13.3334 21.3334 13.9303 21.3334 14.6667ZM14.6667 16C15.4031 16 16.0001 15.4031 16.0001 14.6667C16.0001 13.9303 15.4031 13.3334 14.6667 13.3334C13.9304 13.3334 13.3334 13.9303 13.3334 14.6667C13.3334 15.4031 13.9304 16 14.6667 16ZM10.6667 14.6667C10.6667 15.4031 10.0698 16 9.33342 16C8.59704 16 8.00008 15.4031 8.00008 14.6667C8.00008 13.9303 8.59704 13.3334 9.33342 13.3334C10.0698 13.3334 10.6667 13.9303 10.6667 14.6667ZM4.00008 16C4.73646 16 5.33341 15.4031 5.33341 14.6667C5.33341 13.9303 4.73646 13.3334 4.00008 13.3334C3.2637 13.3334 2.66675 13.9303 2.66675 14.6667C2.66675 15.4031 3.2637 16 4.00008 16Z" fill="url(#paint0_linear_102_107)"/>
</g>
</g>
<defs>
<filter id="filter0_d_102_107" x="2.66675" y="2.66669" width="18.6667" height="15.3333" filterUnits="userSpaceOnUse" color-interpolation-filters="sRGB">
<feFlood flood-opacity="0" result="BackgroundImageFix"/>
<feColorMatrix in="SourceAlpha" type="matrix" values="0 0 0 0 0 0 0 0 0 0 0 0 0 0 0 0 0 0 127 0" result="hardAlpha"/>
<feOffset dy="2"/>
<feColorMatrix type="matrix" values="0 0 0 0 0 0 0 0 0 0 0 0 0 0 0 0 0 0 0.06 0"/>
<feBlend mode="normal" in2="BackgroundImageFix" result="effect1_dropShadow_102_107"/>
<feBlend mode="normal" in="SourceGraphic" in2="effect1_dropShadow_102_107" result="shape"/>
</filter>
<linearGradient id="paint0_linear_102_107" x1="2.66675" y1="2.66669" x2="2.66675" y2="16" gradientUnits="userSpaceOnUse">
<stop stop-color="white"/>
<stop offset="1" stop-color="#F0F0F0"/>
</linearGradient>
</defs>
</svg>
