<svg width="56" height="40" viewBox="0 0 56 40" fill="none" xmlns="http://www.w3.org/2000/svg">
<rect x="0.5" y="0.5" width="55" height="39" rx="3.5" fill="white" stroke="#F5F5F5"/>
<mask id="mask0_102_384" style="mask-type:luminance" maskUnits="userSpaceOnUse" x="0" y="0" width="56" height="40">
<rect x="0.5" y="0.5" width="55" height="39" rx="3.5" fill="white" stroke="white"/>
</mask>
<g mask="url(#mask0_102_384)">
<path fill-rule="evenodd" clip-rule="evenodd" d="M56 5.33331H26.6667V10.6666H56V5.33331ZM26.6667 16V21.3333H56V16H26.6667ZM26.6667 26.6666L0 26.6666V32H56V26.6666H26.6667ZM0 40V37.3333H56V40H0Z" fill="#0E4DC5"/>
<path fill-rule="evenodd" clip-rule="evenodd" d="M13.3333 18.6426L11.5531 21.2999L11.1022 18.1334L8.34533 19.7551L9.31298 16.7065L6.1255 16.9715L8.32005 14.6447L5.33325 13.5005L8.32005 12.3562L6.1255 10.0294L9.31298 10.2944L8.34533 7.24582L11.1022 8.86758L11.5531 5.70105L13.3333 8.35835L15.1134 5.70105L15.5643 8.86758L18.3212 7.24582L17.3535 10.2944L20.541 10.0294L18.3465 12.3562L21.3333 13.5005L18.3465 14.6447L20.541 16.9715L17.3535 16.7065L18.3212 19.7551L15.5643 18.1334L15.1134 21.2999L13.3333 18.6426ZM18.4242 13.5005C18.4242 16.3121 16.1449 18.5914 13.3333 18.5914C10.5216 18.5914 8.24234 16.3121 8.24234 13.5005C8.24234 10.6888 10.5216 8.40956 13.3333 8.40956C16.1449 8.40956 18.4242 10.6888 18.4242 13.5005ZM13.3333 17.3333C15.5424 17.3333 17.3333 15.5425 17.3333 13.3333C17.3333 11.1242 15.5424 9.33333 13.3333 9.33333C11.1241 9.33333 9.33325 11.1242 9.33325 13.3333C9.33325 15.5425 11.1241 17.3333 13.3333 17.3333Z" fill="#FED443"/>
</g>
</svg>
