<svg width="56" height="40" viewBox="0 0 56 40" fill="none" xmlns="http://www.w3.org/2000/svg">
<rect x="0.5" y="0.5" width="55" height="39" rx="3.5" fill="white" stroke="#F5F5F5"/>
<mask id="mask0_102_442" style="mask-type:luminance" maskUnits="userSpaceOnUse" x="0" y="0" width="56" height="40">
<rect x="0.5" y="0.5" width="55" height="39" rx="3.5" fill="white" stroke="white"/>
</mask>
<g mask="url(#mask0_102_442)">
<path fill-rule="evenodd" clip-rule="evenodd" d="M0 13.3333H56V0H0V13.3333Z" fill="#04AAC8"/>
<path fill-rule="evenodd" clip-rule="evenodd" d="M0 40H56V26.6667H0V40Z" fill="#23C840"/>
<path fill-rule="evenodd" clip-rule="evenodd" d="M11.3333 3.33335C11.4081 3.33335 11.4824 3.33582 11.5561 3.34069C10.9204 2.91497 10.1558 2.66669 9.33325 2.66669C7.12411 2.66669 5.33325 4.45755 5.33325 6.66669C5.33325 8.87583 7.12411 10.6667 9.33325 10.6667C10.1558 10.6667 10.9204 10.4184 11.5561 9.99269C11.4824 9.99755 11.4081 10 11.3333 10C9.4923 10 7.99992 8.50764 7.99992 6.66669C7.99992 4.82574 9.4923 3.33335 11.3333 3.33335ZM14.6666 10.6667C15.403 10.6667 15.9999 10.0697 15.9999 9.33335C15.9999 8.59697 15.403 8.00002 14.6666 8.00002C13.9302 8.00002 13.3333 8.59697 13.3333 9.33335C13.3333 10.0697 13.9302 10.6667 14.6666 10.6667ZM21.3333 4.00002C21.3333 4.7364 20.7363 5.33335 19.9999 5.33335C19.2635 5.33335 18.6666 4.7364 18.6666 4.00002C18.6666 3.26364 19.2635 2.66669 19.9999 2.66669C20.7363 2.66669 21.3333 3.26364 21.3333 4.00002ZM25.3333 5.33335C26.0696 5.33335 26.6666 4.7364 26.6666 4.00002C26.6666 3.26364 26.0696 2.66669 25.3333 2.66669C24.5969 2.66669 23.9999 3.26364 23.9999 4.00002C23.9999 4.7364 24.5969 5.33335 25.3333 5.33335ZM26.6666 9.33335C26.6666 10.0697 26.0696 10.6667 25.3333 10.6667C24.5969 10.6667 23.9999 10.0697 23.9999 9.33335C23.9999 8.59697 24.5969 8.00002 25.3333 8.00002C26.0696 8.00002 26.6666 8.59697 26.6666 9.33335ZM19.9999 10.6667C20.7363 10.6667 21.3333 10.0697 21.3333 9.33335C21.3333 8.59697 20.7363 8.00002 19.9999 8.00002C19.2635 8.00002 18.6666 8.59697 18.6666 9.33335C18.6666 10.0697 19.2635 10.6667 19.9999 10.6667Z" fill="white"/>
</g>
</svg>
