<svg width="56" height="40" viewBox="0 0 56 40" fill="none" xmlns="http://www.w3.org/2000/svg">
<rect width="56" height="40" rx="4" fill="white"/>
<mask id="mask0_102_777" style="mask-type:luminance" maskUnits="userSpaceOnUse" x="0" y="0" width="56" height="40">
<rect width="56" height="40" rx="4" fill="white"/>
</mask>
<g mask="url(#mask0_102_777)">
<path fill-rule="evenodd" clip-rule="evenodd" d="M0 26.6667H56V13.3333H0V26.6667Z" fill="#063191"/>
<path fill-rule="evenodd" clip-rule="evenodd" d="M0 40H56V26.6667H0V40Z" fill="#E2213B"/>
<path fill-rule="evenodd" clip-rule="evenodd" d="M29.3334 17.3333C29.3334 18.0697 28.7365 18.6667 28.0001 18.6667C27.2637 18.6667 26.6667 18.0697 26.6667 17.3333C26.6667 16.597 27.2637 16 28.0001 16C28.7365 16 29.3334 16.597 29.3334 17.3333ZM24.0001 18.6667C24.0001 19.403 23.4031 20 22.6667 20C21.9304 20 21.3334 19.403 21.3334 18.6667C21.3334 17.9303 21.9304 17.3333 22.6667 17.3333C23.4031 17.3333 24.0001 17.9303 24.0001 18.6667ZM33.3334 20C34.0698 20 34.6667 19.403 34.6667 18.6667C34.6667 17.9303 34.0698 17.3333 33.3334 17.3333C32.597 17.3333 32.0001 17.9303 32.0001 18.6667C32.0001 19.403 32.597 20 33.3334 20ZM21.3334 22.6667C21.3334 23.403 20.7365 24 20.0001 24C19.2637 24 18.6667 23.403 18.6667 22.6667C18.6667 21.9303 19.2637 21.3333 20.0001 21.3333C20.7365 21.3333 21.3334 21.9303 21.3334 22.6667ZM36.0001 24C36.7365 24 37.3334 23.403 37.3334 22.6667C37.3334 21.9303 36.7365 21.3333 36.0001 21.3333C35.2637 21.3333 34.6667 21.9303 34.6667 22.6667C34.6667 23.403 35.2637 24 36.0001 24Z" fill="white"/>
<path fill-rule="evenodd" clip-rule="evenodd" d="M0 13.3333H56V0H0V13.3333Z" fill="#FFD044"/>
</g>
</svg>
