<svg width="56" height="40" viewBox="0 0 56 40" fill="none" xmlns="http://www.w3.org/2000/svg">
<rect width="56" height="40" rx="4" fill="white"/>
<mask id="mask0_102_1292" style="mask-type:luminance" maskUnits="userSpaceOnUse" x="0" y="0" width="56" height="40">
<rect width="56" height="40" rx="4" fill="white"/>
</mask>
<g mask="url(#mask0_102_1292)">
<rect width="56" height="40" fill="#E31F37"/>
<path fill-rule="evenodd" clip-rule="evenodd" d="M-2.66675 21.3333H29.3333V-2.66669H-2.66675V21.3333Z" fill="#083B9A"/>
<path fill-rule="evenodd" clip-rule="evenodd" d="M13.3335 5.33333L11.4478 5.88562L12.0001 4L11.4478 2.11438L13.3335 2.66666L15.2191 2.11438L14.6668 4L15.2191 5.88562L13.3335 5.33333ZM13.3335 18.6667L11.4478 19.219L12.0001 17.3333L11.4478 15.4477L13.3335 16L15.2191 15.4477L14.6668 17.3333L15.2191 19.219L13.3335 18.6667ZM6.1145 12.5523L8.00012 12L9.88574 12.5523L9.33345 10.6667L9.88574 8.78105L8.00012 9.33333L6.1145 8.78105L6.66679 10.6667L6.1145 12.5523ZM20.0001 10.6667L18.1145 11.2189L18.6668 9.33333L18.1145 7.44771L20.0001 8L21.8857 7.44771L21.3335 9.33333L21.8857 11.2189L20.0001 10.6667ZM16.6668 14.6667C17.035 14.6667 17.3335 14.3682 17.3335 14C17.3335 13.6318 17.035 13.3333 16.6668 13.3333C16.2986 13.3333 16.0001 13.6318 16.0001 14C16.0001 14.3682 16.2986 14.6667 16.6668 14.6667Z" fill="white"/>
</g>
</svg>
