<svg width="56" height="40" viewBox="0 0 56 40" fill="none" xmlns="http://www.w3.org/2000/svg">
<rect width="56" height="40" rx="4" fill="#009F60"/>
<mask id="mask0_102_1514" style="mask-type:luminance" maskUnits="userSpaceOnUse" x="0" y="0" width="56" height="40">
<rect width="56" height="40" rx="4" fill="white"/>
</mask>
<g mask="url(#mask0_102_1514)">
<rect x="48" y="21.3333" width="8" height="18.6667" fill="#EA8B42"/>
<path fill-rule="evenodd" clip-rule="evenodd" d="M40 40H48V21.3333H40V40Z" fill="#1A1919"/>
<path fill-rule="evenodd" clip-rule="evenodd" d="M32 40H40V21.3333H32V40Z" fill="#DB3C36"/>
<path fill-rule="evenodd" clip-rule="evenodd" d="M42.0286 6.96808C41.8448 6.97325 41.7097 6.90959 41.6614 6.80258C41.961 6.62675 42.1637 6.66598 42.415 6.88998C42.4633 6.71484 42.415 6.51974 42.3087 6.40275C42.2024 6.28576 42.1153 6.28576 41.9706 6.27578C41.8256 6.26615 41.6806 6.22727 41.5839 6.22727C41.4423 5.91518 41.0874 6.04731 40.7466 6.17531C40.1926 6.38314 39.6947 6.7606 39.4712 7.13738C39.369 7.30976 39.3567 7.37755 39.2939 7.47527C39.3457 7.46873 39.3423 7.46873 39.3745 7.44912C39.3358 7.87819 39.2843 8.27458 39.3615 8.52817C39.2651 8.89875 39.3423 9.13273 39.4582 9.24972C39.5744 9.36671 39.6224 9.41557 39.6419 9.55217C39.6611 9.68843 39.7191 9.81505 39.8158 9.89316C39.9125 9.97127 39.9704 10.0883 39.98 10.1567C39.9896 10.2249 40.2886 10.5187 40.4147 10.5954C40.4631 10.6243 40.4727 10.6832 40.531 10.7609C40.4051 11.5021 40.9078 12.2433 40.7915 12.9745C40.8786 12.9841 40.9945 12.9745 41.1107 12.9452C41.2071 13.569 41.265 13.8715 40.724 14.0566C40.183 14.2421 39.8871 14.4244 40.0379 14.6319C40.1442 14.7781 40.3643 14.6508 40.5018 14.5246C40.6081 14.4272 40.7336 14.3394 40.8303 14.3102C40.927 14.2809 40.9465 14.3102 40.8978 14.4368C40.8495 14.5638 40.5889 14.8366 40.579 14.9732C40.5694 15.1098 40.6853 15.2072 40.869 15.0999C41.0525 14.9925 41.2139 14.7117 41.2554 14.5442C41.2842 14.4272 41.3329 14.3491 41.323 14.5442C41.3134 14.7393 41.1975 15.0902 41.4584 15.1487C41.7193 15.2072 41.7968 14.8951 41.7097 14.6123C41.6226 14.3298 41.5938 14.1736 41.6322 14.0762C41.671 13.9785 41.7097 13.9203 41.8061 13.9492C41.9027 13.9785 42.0961 13.9396 42.0865 13.7837C42.0766 13.6279 41.9415 13.5009 41.7869 13.5886C41.6322 13.6764 41.5163 13.6633 41.5839 13.4717C41.6322 13.3351 41.7193 13.1692 41.7289 13.0622C41.8352 13.2181 42.4342 13.2377 42.6759 13.0914C42.7338 13.3839 42.8885 13.6471 42.5504 13.9203C42.212 14.1932 41.9415 14.4564 41.9511 14.6515C41.961 14.8466 42.0382 14.9633 42.212 14.8659C42.3858 14.7685 42.4921 14.6319 42.5309 14.5053C42.5696 14.3783 42.6471 14.3783 42.6083 14.5345C42.5696 14.6904 42.5021 14.9148 42.5309 15.0514C42.56 15.1876 42.7726 15.1976 42.8593 15.0706C42.9464 14.944 42.9269 14.7781 42.9077 14.6123C42.8885 14.4465 42.9176 14.2713 42.956 14.2028C42.9947 14.1347 43.0719 14.037 43.1494 14.2225C43.2269 14.4076 43.2653 14.5538 43.4199 14.6027C43.5745 14.6515 43.6904 14.5831 43.6616 14.3979C43.6325 14.2128 43.4295 14.0077 43.2269 13.8519C43.0239 13.696 43.0914 13.6179 43.101 13.4717C43.1106 13.3254 43.0818 13.0622 43.0719 12.9452C43.2557 13.0818 43.4586 13.0622 43.555 13.0622C43.6517 13.0622 43.8104 13.0323 43.6517 12.8867C43.3328 12.5942 43.4391 12.4184 43.2169 12.204C42.9947 11.9897 42.7918 11.658 42.7242 11.3755C42.6563 11.0926 42.5075 10.5758 42.212 10.3126C42.0478 10.1664 41.9994 9.76654 42.0382 9.30821C42.0766 8.84989 42.0865 8.34305 41.671 8.10907C41.2554 7.8751 41.265 7.68 41.4005 7.47527C41.5355 7.27054 41.7094 7.07028 41.9319 7.05583C41.9819 7.05273 42.0975 7.0431 42.1445 7.00869C42.1235 6.99252 42.0896 6.96671 42.0286 6.96808Z" fill="#EA8B42"/>
<path fill-rule="evenodd" clip-rule="evenodd" d="M39.3261 8.02133C39.3158 8.21953 39.3206 8.39398 39.3614 8.52817C39.265 8.89875 39.3422 9.13273 39.4581 9.24972C39.5743 9.36671 39.6223 9.41557 39.6418 9.55217C39.661 9.68843 39.719 9.81505 39.8157 9.89316C39.9124 9.97127 39.9703 10.0883 39.9799 10.1567C39.9895 10.2249 40.2885 10.5187 40.4146 10.5954C40.463 10.6243 40.4726 10.6832 40.5309 10.7609C40.4784 11.0689 40.5336 11.3769 40.609 11.6841C39.9261 12.256 39.252 11.9862 39.5356 11.4013C38.9685 11.8562 37.9896 11.8434 38.2087 11.4013C37.3197 11.7134 37.0492 11.4532 37.165 11.1673C36.418 11.4663 36.0312 11.1804 36.1344 10.9722C35.5159 11.1412 35.1165 11.0372 35.052 10.9333C34.9879 10.8294 35.1422 10.5954 35.2841 10.4785C35.0006 10.5824 34.7301 10.5824 34.4722 10.5435C34.2148 10.5043 34.2792 10.4262 34.3306 10.3092C34.3824 10.1922 34.45 10.0071 34.656 9.82503C34.1633 9.92241 33.5448 9.99088 33.1101 9.8443C33.0281 9.81677 32.8879 9.78581 32.9746 9.69841C33.0617 9.61067 33.3226 9.39596 33.6415 9.25935C32.9167 9.36671 31.5446 9.44482 31.1582 9.00611C31.535 9.08387 32.0181 8.928 32.3273 8.80138C31.1098 8.66477 29.448 7.82624 29.4285 7.00731C29.7765 7.57264 30.3758 7.76774 30.9748 7.94323C30.1629 7.46529 29.8248 6.88998 29.796 6.50976C30.2596 6.95845 30.9648 7.46529 31.6608 7.58262C31.1678 7.3194 30.5301 6.54899 30.3562 6.01256C30.7138 6.33428 31.6317 6.8511 32.2598 7.01695C31.825 6.67561 31.1198 5.86632 31.1582 5.41798C31.3224 5.58383 31.7284 5.89557 32.5591 6.38314C33.3902 6.87071 33.841 6.83492 34.5271 6.98116C34.4016 6.81221 34.2888 6.58787 34.2792 6.52938C34.4822 6.55862 34.6752 6.63673 35.255 6.99733C35.8348 7.35828 37.1016 7.46873 37.8254 7.78735C38.3565 8.02133 39.1135 7.8751 39.3261 8.02133Z" fill="#EA8B42"/>
<path fill-rule="evenodd" clip-rule="evenodd" d="M43.6993 13.0288C43.7311 13.0034 43.7311 12.9593 43.6516 12.8867C43.3327 12.5942 43.439 12.4184 43.2169 12.204C42.9947 11.9897 42.7917 11.658 42.7242 11.3755C42.6563 11.0926 42.5075 10.5758 42.2119 10.3126C42.0477 10.1664 41.9994 9.76654 42.0381 9.30821C42.071 8.91596 42.083 8.48826 41.8252 8.22641C42.3083 8.08981 42.7533 8.06021 42.9076 8.21609C43.7095 8.01135 44.4055 7.94942 45.0882 7.90434C45.874 7.85204 47.3555 7.51415 48.4122 6.79914C48.3477 7.05927 47.987 7.44912 47.6647 7.64421C48.7341 7.38409 50.0226 6.90305 51.1177 6.08413C51.1046 6.65634 50.6411 7.08508 50.3702 7.3194C51.1177 6.90305 52.2124 6.38314 52.5861 5.73316C52.7503 6.39931 51.633 7.27054 51.0271 7.75157C51.6457 7.45256 52.4445 7.17626 52.7538 6.73411C52.7473 7.27363 52.0451 7.94323 51.3751 8.33308C52.0581 8.07329 52.8182 7.80009 53.2561 7.39716C53.3075 7.94013 51.214 9.18813 50.1769 9.52912C51.0789 9.30821 52.2511 9.0092 52.7665 8.69712C52.7407 8.80757 52.5306 8.96241 52.3777 9.07527C51.7475 9.54116 50.781 9.79131 50.1899 9.90624C50.2674 10.2314 50.1642 10.4134 49.8035 10.4392C49.4428 10.4654 48.5699 10.3257 48.1321 10.1044C48.0676 10.1433 47.9901 10.1567 47.903 10.1664C48.3282 10.4881 48.4732 10.7221 48.3861 10.8587C48.2994 10.9953 47.9949 10.9705 47.7631 10.922C47.9466 11.4388 47.3329 11.4047 46.821 11.1119C47.0239 11.3755 47.0531 11.5995 46.7726 11.658C46.4925 11.7165 46.27 11.6972 45.9995 11.5214C45.9803 11.7165 45.7934 11.8465 45.5455 11.7815C46.3958 12.2983 46.3475 12.4869 46.2025 12.6816C46.0578 12.8767 45.5503 12.8378 45.2798 12.6624C45.1639 13.0622 44.7018 13.0636 44.3569 12.7453C44.3538 12.9046 44.0246 13.2208 43.6993 13.0288Z" fill="#EA8B42"/>
<path fill-rule="evenodd" clip-rule="evenodd" d="M39.7547 14.9894C39.7687 14.8662 39.7804 14.7231 39.8832 14.6319C39.9864 14.5407 40.0509 14.463 40.1411 14.5538C40.2312 14.645 40.1733 14.7296 40.0509 14.7685C39.9285 14.8074 39.8448 14.9178 39.8253 14.9894C39.8061 15.061 39.7416 15.0999 39.7547 14.9894Z" fill="black"/>
<path fill-rule="evenodd" clip-rule="evenodd" d="M40.4565 15.5874C40.3927 15.3831 40.4246 15.1195 40.4953 15.0414C40.5662 14.9633 40.6564 14.9113 40.7401 14.9894C40.8237 15.0675 40.8559 15.178 40.7013 15.243C40.5645 15.3005 40.5532 15.4443 40.547 15.5486C40.5405 15.6525 40.4953 15.711 40.4565 15.5874Z" fill="black"/>
<path fill-rule="evenodd" clip-rule="evenodd" d="M41.3584 15.061C41.3087 15.1446 41.3711 15.4835 41.5387 15.5678C41.6574 15.6277 41.7126 15.6136 41.6416 15.5028C41.571 15.3923 41.5967 15.2884 41.6354 15.2299C41.6738 15.1714 41.6677 15.0675 41.5837 15.0156C41.5 14.9633 41.3968 14.996 41.3584 15.061Z" fill="black"/>
<path fill-rule="evenodd" clip-rule="evenodd" d="M42.0865 14.7554C41.9802 14.6749 41.8804 14.7716 41.8417 14.8397C41.7642 14.9763 41.8225 15.1714 41.9449 15.2819C42.0673 15.3923 42.0478 15.243 42.009 15.178C41.9706 15.1129 41.9641 14.9829 42.0478 14.9698C42.1314 14.9571 42.1897 14.8332 42.0865 14.7554Z" fill="black"/>
<path fill-rule="evenodd" clip-rule="evenodd" d="M42.692 14.9763C42.5885 14.9457 42.4859 15.0544 42.4986 15.1845C42.5082 15.2815 42.5182 15.4054 42.6145 15.4704C42.6793 15.5138 42.7242 15.542 42.692 15.425C42.6598 15.308 42.7115 15.2103 42.7691 15.178C42.8271 15.1456 42.8014 15.009 42.692 14.9763Z" fill="black"/>
<path fill-rule="evenodd" clip-rule="evenodd" d="M43.5487 14.4237C43.4736 14.4767 43.4777 14.5996 43.5487 14.645C43.6193 14.6904 43.7225 14.7554 43.7033 14.8659C43.6838 14.9763 43.7417 15.0156 43.7935 14.892C43.8449 14.7685 43.8514 14.5865 43.7935 14.5018C43.7352 14.4172 43.6128 14.3783 43.5487 14.4237Z" fill="black"/>
<path fill-rule="evenodd" clip-rule="evenodd" d="M41.6808 6.7937C41.7257 6.8929 41.854 6.95147 42.0279 6.94659L42.028 6.94659C42.0833 6.94534 42.1167 6.96015 42.157 7.02606C42.1146 7.05718 42.0346 7.07102 41.9332 7.07729C41.7486 7.08928 41.5873 7.23102 41.4183 7.48716C41.2661 7.71723 41.3193 7.88645 41.6814 8.09032C42.0412 8.29292 42.1151 8.64582 42.0595 9.31003C42.0187 9.79266 42.0774 10.1641 42.2262 10.2965C42.4723 10.5157 42.6308 10.8945 42.745 11.3705C42.8102 11.6431 43.0075 11.9722 43.2317 12.1885C43.2844 12.2394 43.3221 12.2906 43.3522 12.3491C43.3695 12.3828 43.3821 12.4131 43.4026 12.4676C43.4733 12.6558 43.521 12.7378 43.6661 12.8708C43.7465 12.9446 43.7621 13.0059 43.7124 13.0458C43.6797 13.0721 43.6206 13.0837 43.5549 13.0837C43.5385 13.0838 43.5385 13.0838 43.5193 13.0842C43.3633 13.0871 43.2628 13.0743 43.1473 13.0167C43.1303 13.0082 43.1136 12.9989 43.0973 12.9886C43.098 12.9969 43.0988 13.0057 43.0996 13.0147C43.1026 13.0471 43.1057 13.0813 43.1071 13.0971C43.1113 13.1454 43.1147 13.1883 43.1174 13.229C43.1243 13.3313 43.1263 13.413 43.1224 13.4731C43.1209 13.4958 43.1183 13.5156 43.1135 13.5468C43.1044 13.6045 43.1027 13.6202 43.1044 13.6453C43.1087 13.7068 43.145 13.762 43.2398 13.8348C43.4882 14.0258 43.6557 14.2232 43.6827 14.3946C43.7127 14.5872 43.5919 14.6796 43.4134 14.6232C43.3042 14.5887 43.2479 14.5172 43.1831 14.3622C43.1795 14.3537 43.1702 14.3306 43.1601 14.3057C43.1482 14.2762 43.1352 14.2443 43.1296 14.2308C43.098 14.1552 43.0693 14.1309 43.044 14.1382C43.0223 14.1445 42.9981 14.1721 42.9746 14.2134C42.9348 14.2843 42.9116 14.4601 42.9289 14.6098L42.9291 14.6114C42.9584 14.8647 42.9533 14.9717 42.8769 15.0828C42.78 15.2247 42.5432 15.2119 42.5098 15.0558C42.4946 14.9835 42.5031 14.888 42.5303 14.7613C42.5378 14.7264 42.5465 14.6903 42.5577 14.6458C42.5588 14.6417 42.5618 14.63 42.5655 14.6154C42.5731 14.5857 42.5839 14.5439 42.5875 14.5293C42.6024 14.4692 42.5983 14.4356 42.5946 14.4349C42.5886 14.4337 42.5664 14.462 42.5513 14.5116C42.5079 14.6533 42.3908 14.7903 42.2224 14.8847C42.0448 14.9842 41.9414 14.8829 41.9296 14.6526C41.9206 14.4691 42.124 14.2366 42.5369 13.9036C42.6171 13.8388 42.671 13.773 42.703 13.7041C42.7608 13.5793 42.7525 13.4834 42.6888 13.2386C42.6757 13.1882 42.6676 13.1554 42.6608 13.1244C42.4167 13.2494 41.9059 13.2387 41.7434 13.1083C41.7324 13.1597 41.7085 13.2223 41.6605 13.3369L41.6603 13.3375C41.6302 13.4094 41.6172 13.4415 41.604 13.4788C41.5753 13.5603 41.5814 13.6033 41.6101 13.615C41.6412 13.6277 41.7021 13.612 41.7763 13.5699C41.9359 13.4793 42.0961 13.598 42.1079 13.7824C42.1173 13.9351 41.9391 14.012 41.7999 13.9699C41.7276 13.9482 41.6946 13.9768 41.6521 14.0841C41.618 14.1707 41.6398 14.3129 41.7301 14.606C41.8309 14.9331 41.7163 15.2286 41.4537 15.1697C41.2929 15.1337 41.2509 15.0062 41.2733 14.7832C41.2761 14.7555 41.2794 14.7291 41.2851 14.6879C41.2974 14.5977 41.2998 14.5772 41.3015 14.5431C41.3031 14.5117 41.3032 14.4869 41.3019 14.469C41.2938 14.4882 41.2841 14.5171 41.2762 14.5494C41.2266 14.7497 41.0505 15.0185 40.8798 15.1185C40.6964 15.2256 40.5456 15.1424 40.5575 14.9717C40.5621 14.9089 40.6069 14.8288 40.6991 14.6993L40.7247 14.6637C40.8416 14.5021 40.8608 14.4736 40.8778 14.4291C40.9203 14.3186 40.914 14.3073 40.8364 14.3308C40.7492 14.3572 40.6288 14.4373 40.5162 14.5404C40.3253 14.7158 40.1228 14.7853 40.0206 14.6446C39.9396 14.5332 39.9731 14.4234 40.1084 14.319C40.2275 14.2271 40.428 14.1353 40.717 14.0362C41.175 13.8796 41.21 13.7288 41.1159 12.9661C40.9996 12.9953 40.8807 13.006 40.7703 12.9711C40.8177 12.6728 40.7806 12.4331 40.6391 11.8854C40.4943 11.3251 40.4563 11.0727 40.5138 10.7739C40.4988 10.7538 40.4861 10.7342 40.4731 10.7113C40.471 10.7076 40.4662 10.699 40.4611 10.6899C40.4547 10.6783 40.4478 10.6658 40.4453 10.6614C40.4308 10.6367 40.4193 10.6232 40.4036 10.6138C40.2663 10.5303 39.9691 10.2337 39.9587 10.1597C39.9483 10.0851 39.885 9.97674 39.8023 9.90991C39.705 9.83133 39.6415 9.70329 39.6207 9.55523C39.6041 9.43963 39.5796 9.4025 39.4429 9.26488C39.3 9.12057 39.2528 8.86102 39.3409 8.53445C39.2814 8.33866 39.2869 8.1501 39.3425 7.56182L39.3494 7.48711C39.3431 7.48933 39.3363 7.49092 39.3273 7.49241C39.3144 7.49435 39.3144 7.49435 39.2966 7.4966L39.2966 7.49661L39.2759 7.46362C39.2886 7.44374 39.2998 7.42433 39.3108 7.40307C39.3155 7.39399 39.3178 7.38942 39.3201 7.38482C39.3224 7.38015 39.3246 7.37545 39.3292 7.36597C39.3254 7.37403 39.3637 7.2922 39.3768 7.26568C39.399 7.22098 39.4229 7.17672 39.4527 7.12637C39.6797 6.74376 40.1826 6.36391 40.7391 6.15517C41.2664 5.95711 41.4783 5.94286 41.5838 6.20576C41.6304 6.20576 41.654 6.20902 41.7911 6.23137C41.8695 6.24415 41.9197 6.25085 41.972 6.25433L42.0051 6.25656C42.1286 6.2649 42.1804 6.27595 42.243 6.31695C42.2705 6.33495 42.2972 6.35829 42.3245 6.38826C42.4385 6.51381 42.4847 6.71765 42.4356 6.89572L42.4007 6.90606C42.1479 6.68078 41.9549 6.65522 41.6808 6.7937ZM42.1313 7.02572C42.0976 6.99966 42.0727 6.9886 42.029 6.98959L42.0291 6.98958C41.8396 6.99491 41.6948 6.92883 41.6505 6.78402C41.9397 6.61434 42.1484 6.63494 42.4023 6.85051C42.4 6.86185 42.3973 6.8731 42.3943 6.88424L42.4291 6.8739C42.4201 6.86587 42.4112 6.85807 42.4023 6.85051C42.4334 6.69498 42.3897 6.52395 42.2928 6.41724C42.2679 6.38985 42.2439 6.36889 42.2196 6.35298C42.1649 6.31719 42.1188 6.30735 42.0022 6.29947L41.9692 6.29724C41.9152 6.29366 41.8638 6.28681 41.7842 6.27382C41.7593 6.26977 41.7383 6.26636 41.7201 6.26341C41.6403 6.25049 41.6153 6.24643 41.5643 6.23618C41.4538 5.99257 41.2595 6.00564 40.7541 6.19546C40.2061 6.40099 39.7111 6.77491 39.4896 7.14837C39.4603 7.19776 39.4369 7.24107 39.4152 7.28482C39.4023 7.31085 39.3642 7.39222 39.3679 7.38454C39.3632 7.39418 39.3609 7.39901 39.3585 7.4038C39.3561 7.4086 39.3537 7.41338 39.3488 7.42294C39.3447 7.43085 39.3406 7.43854 39.3364 7.44609C39.3324 7.44762 39.3279 7.44872 39.3203 7.44996C39.3158 7.45065 39.313 7.45107 39.3102 7.45146C39.306 7.45205 39.3018 7.45258 39.2912 7.45393L39.3119 7.48692C39.3206 7.47332 39.3287 7.45992 39.3364 7.44609C39.3372 7.44579 39.3379 7.44547 39.3387 7.44512C39.3431 7.44313 39.347 7.44082 39.3634 7.43073L39.3958 7.45106L39.3852 7.56588C39.3303 8.14675 39.3248 8.33403 39.3822 8.5336C39.2978 8.85824 39.3421 9.10213 39.4733 9.23454C39.616 9.37815 39.6449 9.42202 39.6631 9.54916C39.6826 9.68716 39.7411 9.80527 39.8292 9.87641C39.9202 9.94996 39.9892 10.0681 40.0012 10.1537C40.0092 10.2106 40.2988 10.4998 40.4257 10.577C40.4486 10.5907 40.4644 10.6093 40.4822 10.6397C40.4851 10.6445 40.4925 10.6579 40.4991 10.6699C40.5039 10.6786 40.5084 10.6866 40.5103 10.6899C40.5135 10.6956 40.5167 10.701 40.5199 10.7065C40.5291 10.7221 40.5389 10.7388 40.552 10.7646C40.4999 11.0718 40.5373 11.3202 40.6806 11.8746C40.8236 12.4281 40.8613 12.6717 40.7938 12.9531C40.8732 12.9619 40.976 12.9539 41.0996 12.9444C41.1102 12.9436 41.121 12.9427 41.1319 12.9419C41.2552 13.7407 41.2156 13.9111 40.7309 14.077C40.446 14.1746 40.2489 14.2648 40.1345 14.353C40.0158 14.4447 39.9899 14.5295 40.0552 14.6192C40.1354 14.7296 40.3133 14.6685 40.4873 14.5087C40.6042 14.4016 40.7295 14.3182 40.8241 14.2896C40.9426 14.2537 40.9713 14.3052 40.9178 14.4445C40.8988 14.4944 40.8804 14.5216 40.7594 14.6889L40.734 14.7243C40.647 14.8465 40.604 14.9233 40.6003 14.9748C40.5908 15.1095 40.7035 15.1717 40.8582 15.0813C41.018 14.9878 41.1876 14.7288 41.2346 14.539C41.2508 14.473 41.2712 14.4231 41.2918 14.4093C41.317 14.3923 41.3357 14.4111 41.3416 14.4412C41.3459 14.4626 41.3468 14.497 41.3443 14.5452C41.3426 14.5811 41.34 14.602 41.3275 14.6937C41.322 14.7345 41.3187 14.7605 41.316 14.7875C41.2954 14.9914 41.3306 15.0981 41.463 15.1277C41.6822 15.1769 41.7819 14.9197 41.6892 14.6187C41.5958 14.3156 41.5731 14.1677 41.6123 14.0683C41.662 13.9429 41.7126 13.8988 41.8122 13.9287C41.927 13.9634 42.0722 13.9007 42.0651 13.7851C42.0552 13.6295 41.9264 13.5342 41.7974 13.6074C41.7128 13.6554 41.6407 13.6739 41.5939 13.6548C41.5377 13.6319 41.5283 13.5648 41.5636 13.4645C41.5772 13.4261 41.5903 13.3935 41.6208 13.3208L41.621 13.3202C41.6813 13.1763 41.7025 13.1165 41.7075 13.0603L41.7465 13.05C41.8455 13.1952 42.4322 13.2137 42.6648 13.073L42.6969 13.0872C42.7048 13.1273 42.7133 13.1626 42.7303 13.2278C42.7964 13.4822 42.8054 13.5851 42.7418 13.7222C42.7069 13.7975 42.6488 13.8684 42.5638 13.9371C42.1633 14.26 41.9644 14.4874 41.9724 14.6504C41.9828 14.8536 42.0582 14.9274 42.2015 14.8471C42.3606 14.758 42.4703 14.6297 42.5103 14.499C42.5313 14.4302 42.5662 14.3857 42.6026 14.3926C42.6427 14.4002 42.6496 14.457 42.6291 14.5397C42.6254 14.5545 42.6146 14.5966 42.607 14.6264C42.6032 14.6408 42.6003 14.6524 42.5993 14.6564C42.5881 14.7004 42.5796 14.7361 42.5722 14.7704C42.5462 14.8916 42.5381 14.9822 42.5518 15.0468C42.5764 15.1618 42.764 15.172 42.8416 15.0584C42.9099 14.9592 42.9146 14.859 42.8865 14.6164L42.8863 14.6148C42.868 14.4567 42.8925 14.2722 42.9373 14.1922C42.9662 14.1415 42.9962 14.1073 43.0322 14.0969C43.084 14.0819 43.1301 14.1209 43.1691 14.2141C43.1749 14.2279 43.188 14.2604 43.2 14.29C43.21 14.3146 43.2192 14.3373 43.2226 14.3456C43.283 14.49 43.3322 14.5524 43.4263 14.5822C43.5757 14.6294 43.6652 14.5609 43.6404 14.4013C43.6156 14.2442 43.4539 14.0537 43.2138 13.869C43.11 13.7893 43.0669 13.7237 43.0617 13.6483C43.0596 13.6187 43.0615 13.6014 43.0711 13.5402C43.0758 13.5101 43.0782 13.4914 43.0796 13.4702C43.0834 13.4126 43.0814 13.3325 43.0747 13.2319C43.072 13.1915 43.0686 13.1489 43.0644 13.1009C43.063 13.0852 43.0599 13.0513 43.057 13.019C43.0541 12.9869 43.0513 12.9564 43.0505 12.947L43.0846 12.9279C43.1108 12.9474 43.138 12.9641 43.1664 12.9782C43.2741 13.0319 43.3689 13.0439 43.5185 13.0412C43.5287 13.041 43.5335 13.0409 43.5383 13.0408C43.5426 13.0408 43.5468 13.0407 43.5549 13.0407C43.6115 13.0407 43.6627 13.0307 43.6856 13.0123C43.7091 12.9934 43.7009 12.961 43.6371 12.9026C43.4862 12.7642 43.4354 12.6767 43.3625 12.4828C43.3426 12.4298 43.3305 12.4006 43.3141 12.3689C43.2861 12.3145 43.2513 12.2671 43.202 12.2195C42.9721 11.9977 42.7705 11.6615 42.7033 11.3805C42.5911 10.9127 42.4352 10.5402 42.1977 10.3287C42.0354 10.1841 41.9749 9.80187 42.0168 9.30641C42.0711 8.65805 42.0001 8.31909 41.6604 8.12783C41.2777 7.91234 41.2158 7.71551 41.3825 7.4634C41.5583 7.19698 41.7285 7.04749 41.9305 7.03436C41.9596 7.03257 41.987 7.03002 42.0121 7.0277C42.0663 7.02267 42.1091 7.0187 42.1313 7.02572Z" fill="black"/>
<path fill-rule="evenodd" clip-rule="evenodd" d="M38.804 7.91967C39.1344 7.93134 39.2546 7.94614 39.3381 8.0036L39.3474 8.02245C39.336 8.24305 39.3453 8.40181 39.3821 8.5336C39.2977 8.85824 39.342 9.10213 39.4732 9.23454C39.6159 9.37815 39.6448 9.42202 39.663 9.54916C39.6824 9.68716 39.741 9.80527 39.829 9.87641C39.9201 9.94996 39.989 10.0681 40.0011 10.1537C40.0091 10.2106 40.2987 10.4998 40.4255 10.577C40.4485 10.5907 40.4643 10.6093 40.4821 10.6397C40.485 10.6445 40.4924 10.6579 40.499 10.6699C40.5038 10.6786 40.5082 10.6866 40.5101 10.6899C40.5134 10.6956 40.5165 10.701 40.5198 10.7065C40.5289 10.7221 40.5388 10.7387 40.5519 10.7646C40.5068 11.0298 40.5355 11.2947 40.6227 11.7006C40.2994 11.9713 39.9502 12.0751 39.7034 11.997C39.4796 11.9263 39.3917 11.7216 39.4845 11.4665C39.2214 11.6524 38.8719 11.7608 38.5771 11.7592C38.2736 11.7575 38.1022 11.6362 38.1703 11.4372C37.4369 11.6834 37.0288 11.544 37.1293 11.2041C36.5223 11.4305 36.0193 11.2735 36.0988 11.0039C35.5777 11.1376 35.1241 11.0904 35.0337 10.9447C34.9774 10.8534 35.065 10.6691 35.198 10.5295C34.9677 10.5971 34.7329 10.6046 34.469 10.5647C34.3446 10.5458 34.283 10.5166 34.2665 10.4668C34.2539 10.4288 34.2578 10.4173 34.305 10.3137L34.311 10.3004C34.3108 10.3008 34.3419 10.229 34.3526 10.2056C34.3713 10.1645 34.3897 10.128 34.4105 10.0916C34.458 10.0088 34.515 9.93249 34.5873 9.86014C33.9845 9.97294 33.4703 9.98845 33.1032 9.86469C33.0987 9.86318 33.0862 9.85919 33.0741 9.8553C33.0632 9.85182 33.0526 9.84842 33.0482 9.84696C32.997 9.82997 32.9655 9.81512 32.9454 9.79416C32.9152 9.76262 32.9198 9.72316 32.9594 9.68323C33.0766 9.56512 33.2839 9.41332 33.5043 9.30026C32.4582 9.43814 31.4571 9.37799 31.1421 9.02035L31.1624 8.98504C31.456 9.04562 31.8335 8.97063 32.2414 8.81248C30.9056 8.63412 29.425 7.7642 29.407 7.00783L29.4466 6.99601C29.7176 7.43617 30.0792 7.64563 30.8241 7.87555C30.1792 7.45847 29.8071 6.9403 29.7746 6.51139L29.8108 6.49428C30.3376 7.00419 30.9651 7.40232 31.5413 7.53666C31.064 7.2262 30.4992 6.52337 30.3358 6.01921L30.3705 5.99655C30.7345 6.32408 31.5791 6.78672 32.1645 6.96726C31.6315 6.51954 31.1042 5.79609 31.1368 5.41614L31.1733 5.40282C31.377 5.60847 31.8444 5.93878 32.5698 6.36457C33.0194 6.62829 33.3619 6.74938 33.813 6.83273C33.8769 6.84452 33.9386 6.85504 34.0358 6.87097C34.2755 6.91026 34.364 6.92538 34.4775 6.94879C34.3724 6.79673 34.2687 6.59818 34.258 6.53287L34.2822 6.50809C34.5076 6.54057 34.7231 6.64125 35.2662 6.97906C35.5279 7.14199 35.8478 7.23773 36.6241 7.41833L36.6599 7.42667C37.2865 7.57247 37.5648 7.64921 37.8339 7.76766C37.9743 7.82951 38.1383 7.86818 38.3339 7.89071C38.4662 7.90596 38.5619 7.91113 38.804 7.91967ZM39.304 8.03265C39.3042 8.02853 39.3044 8.02438 39.3046 8.02021L39.3139 8.03907C39.3107 8.03686 39.3074 8.03473 39.304 8.03265ZM31.2217 9.03872C31.5337 9.0809 31.9212 8.99088 32.3354 8.82129L32.3296 8.78C31.0434 8.63569 29.5849 7.81683 29.4585 7.09335C29.7507 7.52306 30.1528 7.72484 30.9687 7.96387L30.9855 7.92468C30.297 7.51937 29.8873 6.99865 29.8238 6.56615C30.3854 7.09794 31.0538 7.50211 31.6572 7.60383L31.6708 7.56364C31.2068 7.3159 30.6079 6.60874 30.4036 6.08167C30.8235 6.42866 31.692 6.88927 32.2543 7.03774L32.2729 7.00001C31.7464 6.58664 31.1936 5.86147 31.1785 5.46781C31.4009 5.67792 31.8589 5.99711 32.5482 6.4017C33.0023 6.66808 33.3494 6.79082 33.8053 6.87503C33.8695 6.88689 33.9314 6.89745 34.0289 6.91342C34.3043 6.95856 34.3794 6.97167 34.5226 7.0022L34.5442 6.96831C34.4463 6.83653 34.3402 6.64386 34.3088 6.5559C34.516 6.59253 34.7322 6.6975 35.2436 7.01561C35.511 7.1821 35.8327 7.27836 36.6144 7.46023L36.6502 7.46857C37.274 7.61371 37.551 7.69008 37.8167 7.80705C37.9615 7.87085 38.1295 7.91046 38.329 7.93344C38.4629 7.94886 38.5592 7.95407 38.8025 7.96266C39.1075 7.97342 39.2297 7.98731 39.304 8.03265C39.2933 8.25142 39.3032 8.4108 39.3408 8.53445C39.2526 8.86102 39.2999 9.12057 39.4428 9.26488C39.5795 9.4025 39.604 9.43963 39.6206 9.55523C39.6414 9.70329 39.7049 9.83133 39.8022 9.90991C39.8849 9.97674 39.9482 10.0851 39.9586 10.1597C39.969 10.2337 40.2662 10.5303 40.4035 10.6138C40.4192 10.6232 40.4307 10.6367 40.4452 10.6614C40.4477 10.6658 40.4546 10.6783 40.461 10.6899C40.4661 10.699 40.4709 10.7076 40.473 10.7113C40.486 10.7342 40.4987 10.7538 40.5137 10.7739C40.4633 11.0297 40.4926 11.2998 40.5882 11.6893C40.2823 11.9297 39.9475 12.0291 39.7162 11.956C39.4976 11.8869 39.4254 11.6775 39.5548 11.4107L39.5221 11.3845C39.2616 11.5935 38.8873 11.7179 38.5774 11.7162C38.2778 11.7145 38.1346 11.5991 38.2278 11.4109L38.2016 11.381C37.4354 11.6499 37.0511 11.5054 37.1848 11.1754L37.157 11.1473C36.5289 11.3987 36.0307 11.2297 36.1535 10.9818L36.1287 10.9515C35.607 11.094 35.1495 11.0499 35.0701 10.922C35.02 10.8407 35.1419 10.6235 35.2977 10.4951L35.2767 10.4583C35.0234 10.5511 34.7684 10.5664 34.4754 10.5222C34.3659 10.5055 34.3168 10.4823 34.3072 10.4532C34.2999 10.4314 34.304 10.4193 34.344 10.3316L34.3502 10.3178C34.4595 10.0708 34.5001 9.99991 34.6445 9.8645C34.6507 9.85873 34.6538 9.85582 34.657 9.85293C34.6602 9.84998 34.6635 9.84707 34.6701 9.84118L34.6518 9.80393C34.0244 9.92794 33.4896 9.94961 33.1168 9.82392C33.112 9.82228 33.0989 9.81809 33.0865 9.81412C33.0758 9.81072 33.0657 9.80748 33.0616 9.80613C33.017 9.79132 32.9899 9.77851 32.9763 9.76436C32.9638 9.75132 32.9653 9.73819 32.9898 9.71359C33.1259 9.5764 33.3895 9.39068 33.6498 9.27913L33.6383 9.23808C32.6078 9.39072 31.5863 9.35338 31.2217 9.03872ZM31.2217 9.03872C31.2044 9.02373 31.1885 9.00812 31.1742 8.99186L31.1538 9.02717C31.176 9.03176 31.1987 9.0356 31.2217 9.03872ZM34.3088 6.5559C34.3045 6.54375 34.3016 6.5336 34.3003 6.52588L34.2761 6.55066C34.287 6.55223 34.2979 6.55397 34.3088 6.5559ZM31.1785 5.46781C31.1778 5.45121 31.1782 5.43519 31.1795 5.41982L31.1429 5.43314C31.154 5.44434 31.1659 5.4559 31.1785 5.46781ZM30.4036 6.08167C30.3936 6.05596 30.3846 6.03068 30.3766 6.00591L30.3419 6.02857C30.3612 6.04592 30.3818 6.06364 30.4036 6.08167ZM29.8238 6.56615C29.8209 6.54662 29.8188 6.52728 29.8173 6.50813L29.7811 6.52524C29.7952 6.53896 29.8095 6.55259 29.8238 6.56615ZM29.4585 7.09335C29.4534 7.06433 29.4505 7.03546 29.4498 7.0068L29.4102 7.01861C29.426 7.04428 29.4421 7.06918 29.4585 7.09335Z" fill="black"/>
<path fill-rule="evenodd" clip-rule="evenodd" d="M43.6882 13.0474L43.6857 13.012C43.7091 12.9933 43.7008 12.9609 43.637 12.9026C43.486 12.7642 43.4352 12.6767 43.3623 12.4828C43.3424 12.4298 43.3303 12.4006 43.3139 12.3689C43.2859 12.3145 43.2511 12.2671 43.2018 12.2195C42.9719 11.9977 42.7703 11.6615 42.7032 11.3805C42.5909 10.9127 42.435 10.5402 42.1975 10.3287C42.0352 10.1841 41.9747 9.80187 42.0166 9.30641C42.0217 9.2455 42.0257 9.1876 42.0286 9.13248L42.0423 9.1399L42.0421 9.14152L42.0444 9.14104C42.053 9.14559 42.0617 9.15004 42.0703 9.15438C42.0675 9.20406 42.0638 9.2559 42.0593 9.31003C42.0185 9.79265 42.0772 10.1641 42.226 10.2965C42.4721 10.5157 42.6306 10.8945 42.7448 11.3705C42.81 11.6431 43.0073 11.9722 43.2315 12.1885C43.2842 12.2394 43.3219 12.2906 43.352 12.3491C43.3693 12.3828 43.3819 12.4131 43.4024 12.4676C43.4731 12.6558 43.5208 12.7378 43.6658 12.8708C43.7322 12.9314 43.7546 12.9838 43.7326 13.0226C43.725 13.0188 43.7174 13.0147 43.7099 13.0103L43.7124 13.0456C43.7212 13.0386 43.7279 13.0309 43.7326 13.0226C43.9925 13.1527 44.3314 12.9411 44.3352 12.7449L44.3712 12.7295C44.7194 13.0508 45.1524 13.0245 45.2591 12.6564L45.2913 12.6443C45.5685 12.8241 46.0552 12.8439 46.1851 12.6688C46.364 12.4285 46.2588 12.2403 45.5343 11.7999L45.5508 11.7607C45.7772 11.8201 45.9593 11.7092 45.978 11.5193L46.0109 11.5033C46.2607 11.6657 46.472 11.6988 46.7681 11.6369C47.0109 11.5863 47.0155 11.4 46.8038 11.1251L46.8314 11.0932C47.0857 11.2387 47.3624 11.318 47.5505 11.2992C47.7489 11.2793 47.8237 11.1572 47.7428 10.9292L47.7673 10.9009C48.0645 10.9631 48.3004 10.9533 48.3679 10.8471C48.4493 10.7194 48.2924 10.4881 47.8899 10.1835L47.9005 10.145C48.0055 10.1334 48.0676 10.1181 48.1415 10.0852C48.5396 10.2864 49.4003 10.4469 49.8018 10.4178C50.1377 10.3937 50.2461 10.2354 50.1856 9.88512C51.0473 9.71759 51.8401 9.44587 52.3648 9.05794C52.4217 9.01596 52.4471 8.99698 52.4795 8.97207C52.5257 8.93663 52.5649 8.90485 52.5991 8.87469C52.6521 8.82813 52.6916 8.78666 52.7165 8.75088C52.7375 8.73914 52.7578 8.72736 52.7773 8.71553L52.7454 8.69223C52.7414 8.70959 52.7316 8.72919 52.7165 8.75088C52.2747 8.99776 51.5028 9.22651 50.1817 9.55001L50.17 9.50868C51.3431 9.123 53.1589 7.94861 53.233 7.44654C53.2456 7.43546 53.2581 7.42429 53.2704 7.41301L53.2345 7.3992C53.236 7.41421 53.2354 7.43001 53.233 7.44654C52.9288 7.71242 52.5001 7.924 51.7841 8.20029C51.7241 8.22344 51.6625 8.24697 51.5822 8.27745L51.3826 8.35318L51.3642 8.31447C52.0858 7.89458 52.6674 7.27827 52.7271 6.80507C52.7426 6.7859 52.7572 6.76639 52.7711 6.74646L52.7322 6.73385C52.7319 6.75719 52.7302 6.78094 52.7271 6.80507C52.5275 7.05343 52.197 7.24469 51.5614 7.53098L51.5408 7.54018C51.4827 7.56626 51.3189 7.63973 51.2659 7.66378C51.1779 7.70378 51.1044 7.73798 51.0363 7.77094L51.0137 7.7347C51.3313 7.48253 51.4418 7.39282 51.6147 7.2422C51.94 6.95863 52.1881 6.70118 52.355 6.45812C52.5254 6.21003 52.6027 5.98723 52.5755 5.79207C52.5855 5.77608 52.5952 5.76003 52.6045 5.74391L52.5651 5.73833C52.5695 5.756 52.5729 5.77392 52.5755 5.79207C52.3445 6.1583 51.898 6.49399 51.1829 6.89833C51.0696 6.96243 50.7855 7.11719 50.5858 7.22601L50.5857 7.22604L50.5855 7.22619C50.4846 7.28117 50.4052 7.32439 50.3804 7.3382L50.356 7.30311C50.8117 6.9089 51.0685 6.56365 51.0942 6.12816L51.1303 6.10137L51.096 6.08364C51.0957 6.09858 51.0951 6.11342 51.0942 6.12816C50.1191 6.84812 48.9227 7.36028 47.6696 7.66512L47.6535 7.6258C47.9587 7.44103 48.2788 7.09585 48.373 6.85094C48.3901 6.83968 48.4071 6.82836 48.424 6.81697L48.3912 6.79395C48.3867 6.81221 48.3806 6.83125 48.373 6.85094C47.4549 7.45338 46.089 7.85927 45.0894 7.9258C44.185 7.98552 43.5996 8.06157 42.8922 8.23124C42.7574 8.09504 42.3599 8.10229 41.865 8.2376C41.857 8.2287 41.8488 8.21993 41.8403 8.21129L41.8308 8.24711L41.865 8.2376C42.037 8.42926 42.0895 8.6829 42.0737 9.08414L42.0338 9.09202L42.029 9.12303C42.0503 8.69068 41.9967 8.43138 41.8098 8.24152L41.8192 8.20571C42.3447 8.05712 42.7693 8.04603 42.9021 8.19524C43.592 8.01912 44.1798 7.94276 45.0866 7.88289C46.0977 7.81559 47.4889 7.39782 48.4 6.78131L48.4328 6.80433C48.3755 7.03568 48.0847 7.37707 47.7813 7.59299C49.0002 7.28238 50.1596 6.77365 51.1047 6.06688L51.1389 6.08462C51.1292 6.5097 50.9145 6.84627 50.5226 7.21151L50.5658 7.18797L50.5659 7.18791L50.5661 7.18778L50.5662 7.18775C50.7659 7.07895 51.049 6.92469 51.1619 6.86086C51.9017 6.44254 52.351 6.09874 52.5674 5.72241L52.6067 5.728C52.6614 5.94988 52.5828 6.20222 52.3903 6.48253C52.2209 6.72914 51.9706 6.98893 51.6428 7.27468C51.4984 7.40047 51.3974 7.48387 51.1844 7.65379L51.2483 7.6246C51.3013 7.60053 51.4648 7.52717 51.5231 7.50102L51.5237 7.50076L51.5438 7.49174C52.221 7.18675 52.5478 6.99089 52.736 6.72175L52.775 6.73437C52.7695 7.19261 52.2557 7.79114 51.5783 8.23295C51.6531 8.20454 51.7117 8.18217 51.7687 8.16014C52.5096 7.87425 52.9403 7.65836 53.2414 7.38131L53.2772 7.39513C53.3203 7.8504 51.7523 8.91975 50.5411 9.41656C51.6921 9.12683 52.3698 8.91214 52.7552 8.67871L52.7871 8.70201C52.7737 8.75964 52.7189 8.82654 52.6274 8.90704C52.5923 8.9379 52.5524 8.97025 52.5056 9.00622C52.4729 9.03136 52.4473 9.05045 52.3902 9.09258C51.8591 9.48522 51.0612 9.7587 50.2105 9.90123C50.2938 10.2506 50.1677 10.4347 49.8048 10.4607C49.3958 10.4903 48.5274 10.3284 48.1429 10.1229C48.093 10.1529 48.0382 10.1694 47.9574 10.1811C48.3466 10.4835 48.5 10.7196 48.404 10.8702C48.3255 10.9938 48.093 11.0081 47.7948 10.9503C47.8642 11.1828 47.7704 11.3204 47.5547 11.342C47.3772 11.3597 47.1299 11.296 46.8923 11.175C47.0625 11.433 47.0352 11.6251 46.7768 11.679C46.4812 11.7408 46.2636 11.7106 46.0157 11.5572C45.983 11.7234 45.8355 11.8282 45.6474 11.8191C46.3091 12.2329 46.41 12.4386 46.2195 12.6945C46.077 12.8866 45.5886 12.872 45.2917 12.6952C45.1655 13.0631 44.7283 13.0923 44.373 12.7885C44.3259 13.0075 43.9618 13.2088 43.6882 13.0474ZM43.0217 9.01255C43.0321 8.98454 43.0399 8.95423 43.0448 8.9216L43.0195 8.89727L42.0737 9.08414L42.0724 9.11358C42.0643 9.10923 42.0562 9.10477 42.0482 9.10021L42.0423 9.1399L42.0444 9.14104L42.0713 9.13555L42.0703 9.15438C42.4379 9.33887 42.8442 9.32819 42.9927 9.07407C43.3146 9.24903 43.8233 9.16329 43.9875 8.91811C44.4491 9.08526 44.8806 8.98489 44.9575 8.56127L44.9295 8.53707L44.0231 8.84793C44.036 8.81178 44.0421 8.773 44.04 8.73182L43.0217 9.01255ZM43.0122 9.03579C43.0156 9.02823 43.0187 9.02048 43.0217 9.01255L42.9787 9.0244L42.9741 9.06354C42.9802 9.06715 42.9864 9.07066 42.9927 9.07407L42.9988 9.06326L43.041 9.05051C43.3442 9.19559 43.8004 9.1132 43.9639 8.90936L43.9875 8.91811C43.991 8.91286 43.9944 8.90754 43.9976 8.90214L44.0352 8.88922C44.4482 9.02746 44.8211 8.9398 44.9076 8.59005L44.9434 8.57777L44.9154 8.55357C44.9131 8.56603 44.9105 8.57819 44.9076 8.59005L44.0352 8.88922C44.0266 8.88635 44.018 8.88337 44.0094 8.8803C44.0146 8.86976 44.0192 8.85896 44.0231 8.84793L43.9982 8.85648C44.0143 8.82438 44.0236 8.78995 44.0248 8.7535L43.041 9.05051C43.0313 9.04584 43.0217 9.04094 43.0122 9.03579ZM43.9892 8.87294C43.9959 8.87545 44.0027 8.8779 44.0094 8.8803C44.0057 8.88771 44.0018 8.89499 43.9976 8.90214L43.9772 8.90912L43.9775 8.89117C43.9816 8.88518 43.9855 8.87911 43.9892 8.87294ZM43.9892 8.87294C43.9854 8.87153 43.9817 8.87011 43.9779 8.86868L43.9775 8.89117C43.9732 8.89733 43.9687 8.9034 43.9639 8.90936L43.9626 8.90887L43.9633 8.86842L43.9982 8.85648C43.9954 8.86204 43.9924 8.86752 43.9892 8.87294ZM43.0122 9.03579C43.0081 9.04523 43.0036 9.05439 42.9988 9.06326L42.9911 9.06558L42.9957 9.02644C43.0012 9.02964 43.0067 9.03276 43.0122 9.03579ZM42.1024 9.1292L42.0713 9.13555L42.0724 9.11358C42.0824 9.11895 42.0924 9.12415 42.1024 9.1292ZM42.9967 8.94662C42.9229 9.28382 42.4955 9.32735 42.1024 9.1292L42.9967 8.94662ZM42.9967 8.94662C42.999 8.93639 43.0009 8.9259 43.0025 8.91513L43.0278 8.94028L42.9967 8.94662ZM42.029 9.12303L42.0286 9.13248L42.0277 9.13199L42.029 9.12303ZM34.4997 6.98682C34.6363 7.18594 34.9947 7.47789 35.2203 7.54889C35.2366 7.70694 35.3033 7.86007 35.4156 7.98351L34.395 7.65607L34.3677 7.68213C34.3916 7.77132 34.4318 7.84988 34.484 7.91695L33.7811 7.63191C33.8392 7.63301 33.903 7.62906 33.9726 7.61977L33.9842 7.5825L33.8205 7.43408L34.4997 6.98682ZM33.7586 7.1373L34.4997 6.98682L34.5304 6.95755L35.2164 7.48456L35.217 7.50248C35.1803 7.48956 35.1401 7.47086 35.0981 7.44781L34.6667 7.11644C34.613 7.0625 34.5674 7.00961 34.535 6.96243L34.5043 6.9917L34.6667 7.11644C34.7898 7.24009 34.9549 7.36926 35.0981 7.44781L35.2195 7.54108L35.2203 7.54889C35.2269 7.55097 35.2334 7.55286 35.2398 7.55455L35.2583 7.51669L35.2164 7.48456C35.2162 7.46803 35.2165 7.45148 35.2173 7.43494L35.2481 7.4167L36.7941 8.17151C36.7954 8.18134 36.7972 8.19107 36.7996 8.2007L36.7707 8.20789L35.2592 7.46996C35.2593 7.45903 35.2596 7.44809 35.2601 7.43715L35.2294 7.45538L35.2592 7.46996C35.258 7.77121 35.4524 8.06985 35.8055 8.17622C36.1185 8.27053 36.4255 8.28223 36.6849 8.23176C36.6187 8.25161 36.5526 8.27472 36.488 8.30034C36.2717 8.31471 36.034 8.29 35.7931 8.21741C35.6734 8.18134 35.5709 8.12416 35.4869 8.05258L35.497 8.0446L35.4901 8.00739L35.4156 7.98351C35.428 7.99715 35.441 8.01044 35.4545 8.02332C35.4489 8.02756 35.4433 8.03168 35.4375 8.0357L34.4207 7.7095C34.4165 7.69691 34.4126 7.68407 34.4091 7.67099L34.3819 7.69704L34.4207 7.7095C34.4648 7.84027 34.5481 7.94445 34.6521 8.0185L34.5539 7.99363L34.553 7.9928L34.5624 7.98994L34.5641 7.94944L34.484 7.91695C34.4951 7.9312 34.5067 7.94493 34.5188 7.95813L34.4909 7.96612L33.6526 7.6262L33.6551 7.62021C33.6936 7.6271 33.7356 7.63104 33.7811 7.63191L33.6494 7.57851L33.6219 7.58933C33.6186 7.5966 33.6154 7.60383 33.6125 7.61103C33.598 7.60735 33.5841 7.60321 33.5707 7.5986L33.6171 7.56803C33.6974 7.58948 33.7981 7.59513 33.9204 7.58264L33.9554 7.61441L33.967 7.57713C33.9511 7.57925 33.9356 7.58108 33.9204 7.58264L33.7835 7.45847L33.8205 7.43408L33.5418 7.18132L33.6544 7.15845C33.6856 7.16336 33.7169 7.1677 33.7482 7.17146L33.7586 7.1373ZM33.7501 7.13902L33.7586 7.1373L33.7605 7.13098L31.8086 6.1235L31.7841 6.15824C32.251 6.60186 32.7932 6.94078 33.364 7.09604C33.3468 7.13495 33.3357 7.17886 33.3315 7.22402L33.0707 7.27699L32.2572 6.98705L32.2364 7.02391C32.3899 7.1507 32.5987 7.24424 32.8654 7.31866L31.6669 7.56204L32.2692 7.78461C32.2383 7.77428 32.2068 7.76422 32.1744 7.75422C32.1369 7.74266 32.0977 7.73108 32.0526 7.71814C32.0795 7.72588 31.7618 7.63653 31.6548 7.60467L31.6668 7.56202L31.6666 7.56195L31.6545 7.6046L31.6548 7.60467L32.4493 7.85113C32.4414 7.92591 32.4843 8.01007 32.5847 8.08726C32.62 8.11442 32.6622 8.14041 32.7103 8.16523C32.6087 8.21396 32.5703 8.29362 32.5918 8.37892L30.9804 7.92253L30.9631 7.96139C31.3783 8.22566 31.8978 8.36675 32.6123 8.43147C32.6317 8.46814 32.6617 8.50489 32.7021 8.53981C32.6536 8.59623 32.6348 8.65971 32.642 8.72434C32.546 8.72127 32.4089 8.74573 32.3192 8.78335L32.3305 8.82591L32.6526 8.7738C32.672 8.83577 32.7144 8.89743 32.7767 8.95363C33.2957 9.42323 34.5769 9.41417 35.7885 8.99235C35.8159 9.05356 35.8866 9.09567 35.9996 9.1273C36.0454 9.14018 36.0919 9.15116 36.1389 9.16028L34.6474 9.80528L34.659 9.84631C35.1119 9.77974 35.748 9.48425 36.2179 9.17379C36.3426 9.19227 36.4705 9.19812 36.5992 9.19209C36.5442 9.29476 36.5345 9.42628 36.5744 9.53779L34.9967 10.0972L35.0099 10.1381C35.5294 9.98504 36.2084 9.74759 36.5917 9.57855C36.6388 9.67383 36.7266 9.7479 36.8582 9.765L35.2754 10.4587L35.2893 10.4993C35.6592 10.4034 36.3925 10.0829 36.9538 9.77358C37.1146 9.78233 37.2923 9.76497 37.4754 9.72719C37.4412 9.79823 37.4209 9.86828 37.4141 9.93486L35.9027 10.6441L35.9171 10.6844C36.375 10.567 36.7885 10.36 37.4115 9.98712C37.412 10.0875 37.4446 10.1779 37.5074 10.2489L36.1246 10.9465L36.1387 10.9867C36.2889 10.9552 36.4682 10.8872 36.6717 10.7884C36.7833 10.7342 36.9003 10.6717 37.0224 10.6018C37.1966 10.502 37.3337 10.4165 37.5408 10.2823C37.6108 10.3445 37.7086 10.3872 37.8323 10.4021C37.8465 10.4038 37.8609 10.4051 37.8755 10.4059L36.7437 10.9366L36.7572 10.9771C37.0085 10.9237 37.2487 10.8253 37.5073 10.6829C37.5656 10.6507 37.6846 10.5799 37.7907 10.5167L37.7907 10.5167L37.7907 10.5166C37.8732 10.4675 37.9479 10.423 37.9802 10.405C38.1093 10.396 38.2532 10.3589 38.4051 10.2965C38.3374 10.4029 38.301 10.4881 38.2954 10.5631L37.1392 11.1415L37.1558 11.1811C37.359 11.1101 37.9464 10.8102 38.2963 10.6128C38.3021 10.6627 38.3231 10.7088 38.359 10.7549C38.3949 10.8009 38.4374 10.8259 38.4934 10.8303L37.7003 11.1998L37.7174 11.2392C37.9899 11.1292 38.3613 10.9568 38.6755 10.7954C38.7601 10.7645 38.8642 10.7136 38.9946 10.6433C39.0973 10.5881 39.2182 10.5097 39.3568 10.4104C39.3932 10.3843 39.4307 10.3568 39.4694 10.3279C39.4399 10.4353 39.4385 10.5278 39.4617 10.605L38.191 11.3764L38.2097 11.4148C38.5501 11.284 39.1805 10.8893 39.4786 10.6493C39.5112 10.7195 39.5672 10.7746 39.6433 10.8139L38.7604 11.3766L38.7802 11.4146C39.1165 11.272 39.5055 11.0204 39.6934 10.8364L39.7018 10.8396C39.898 10.9129 40.0956 10.9151 40.2807 10.8176L39.5226 11.3875L39.5463 11.4232C39.916 11.2037 40.3547 10.8791 40.4988 10.7066L40.4695 10.6756L40.4678 10.6769L40.4618 10.6439L39.5681 10.2533C39.6174 10.2156 39.6687 10.1757 39.7247 10.1316C39.7584 10.105 39.8436 10.0376 39.8841 10.0054L39.8842 10.0054L39.8845 10.0051L39.8846 10.005L39.9059 9.98817L39.8888 9.95012L39.3033 10.0587L39.7127 9.74474L39.6877 9.70979C39.5568 9.7979 39.3587 9.94192 39.1733 10.0827L38.6446 10.1807C38.9584 10.0072 39.2908 9.73993 39.5902 9.40058L39.5711 9.36503L38.7984 9.47535C38.8317 9.45348 38.8661 9.43073 38.9015 9.40703L38.99 9.34771L39.1356 9.25009C39.2246 9.19081 39.2956 9.14449 39.363 9.1021L39.3408 9.06535L38.5999 9.50369L37.9165 9.60127C38.3373 9.44925 38.7387 9.21458 38.9845 8.96497C39.089 8.95051 39.1969 8.93021 39.3067 8.90362L39.3123 8.90471L39.3122 8.90228L39.3214 8.90002L39.3204 8.85802L38.0375 8.61151C38.1193 8.6054 38.2034 8.59558 38.2891 8.58175L38.2917 8.53987L36.8198 8.10805L36.7924 8.12765C36.7917 8.14245 36.7923 8.15708 36.7941 8.17151L36.8424 8.19509L36.8438 8.19989L36.8379 8.19689L36.8301 8.19593L36.8301 8.19553L36.8292 8.19582L36.8235 8.19511L36.7996 8.2007L36.8006 8.20427L36.7766 8.21081L36.7707 8.20789C36.7421 8.2152 36.7135 8.22318 36.6849 8.23176C36.7162 8.22567 36.7468 8.21868 36.7766 8.21081L36.8073 8.22576C36.8092 8.23107 36.8113 8.23635 36.8135 8.24159C36.7744 8.25093 36.7349 8.26163 36.6955 8.27351C36.6291 8.28653 36.5597 8.29558 36.488 8.30034C36.399 8.3357 36.3128 8.37586 36.2335 8.41888L35.2477 8.16929C35.3334 8.14712 35.415 8.10856 35.4869 8.05258L35.476 8.04308L35.4701 8.01114C35.4649 8.0153 35.4597 8.01936 35.4545 8.02332C35.4615 8.03002 35.4687 8.0366 35.476 8.04308L35.477 8.04836L35.4375 8.0357C35.3511 8.0964 35.2515 8.13195 35.1487 8.14424L34.6521 8.0185C34.702 8.054 34.7567 8.08258 34.814 8.10385L34.6337 8.05819C34.6056 8.03869 34.5789 8.01715 34.5539 7.99363L34.5519 7.99313L34.553 7.9928L34.5481 7.98813L34.5498 7.94882L34.5188 7.95813C34.5283 7.96845 34.5381 7.97845 34.5481 7.98813L34.5481 7.98932L34.4909 7.96612L34.4689 7.97212L33.6273 7.75902C33.6252 7.71743 33.6335 7.67275 33.6526 7.6262L33.6333 7.61839L33.6374 7.61678L33.6551 7.62021L33.6608 7.60757L33.6374 7.61678C33.6289 7.61501 33.6206 7.61309 33.6125 7.61103C33.5926 7.65952 33.5831 7.70618 33.5833 7.74996C33.5169 7.73732 33.4536 7.72579 33.3934 7.7154L33.5707 7.5986C33.4802 7.5674 33.4151 7.51507 33.3747 7.44442C33.3715 7.43896 33.3686 7.4334 33.3658 7.42775L33.3672 7.42799L33.378 7.38653L33.3453 7.37486C33.331 7.32648 33.3269 7.27447 33.3315 7.22402L33.3757 7.21506C33.3667 7.28635 33.3771 7.36234 33.4118 7.42302C33.4513 7.49205 33.519 7.54183 33.6171 7.56803L33.7835 7.45847L33.4896 7.19192L33.5418 7.18132L33.4796 7.12486C33.5376 7.13802 33.5959 7.14924 33.6544 7.15845L33.7015 7.14889L33.7409 7.16923L33.7501 7.13902ZM33.6268 7.11032C33.6689 7.11753 33.711 7.12368 33.7533 7.12875L33.7501 7.13902L33.7015 7.14889L33.6268 7.11032ZM33.4131 7.06452C33.4839 7.08274 33.5552 7.09805 33.6268 7.11032L31.9313 6.23518C31.8916 6.19988 31.8523 6.16381 31.8136 6.12701L31.789 6.16175L31.9313 6.23518C32.3748 6.62905 32.8799 6.92634 33.4077 7.06313L33.3778 7.06809C33.3729 7.07706 33.3682 7.0864 33.364 7.09604L33.3922 7.10355L33.4032 7.11351C33.3895 7.14447 33.3801 7.17917 33.3757 7.21506L33.4896 7.19192L33.4032 7.11351L33.406 7.10713C33.4305 7.11338 33.455 7.1193 33.4796 7.12486L33.4131 7.06452ZM33.406 7.10713C33.409 7.10091 33.412 7.09486 33.4153 7.08899L33.3822 7.09449L33.3922 7.10355L33.406 7.10713ZM33.4131 7.06452L33.4109 7.06258L33.4077 7.06313L33.4131 7.06452ZM33.3471 7.38081L33.3453 7.37486L33.0707 7.27699L32.9891 7.29355L32.3912 7.08046C32.3449 7.05251 32.3023 7.02267 32.2637 6.99071L32.2429 7.02758L32.3912 7.08046C32.5407 7.17054 32.7302 7.24096 32.9605 7.29937L32.8654 7.31866C33.0141 7.36015 33.1808 7.3957 33.3658 7.42775L33.3643 7.42464L33.3745 7.3856L33.3471 7.38081ZM33.094 7.33093L32.9891 7.29355L32.9605 7.29937C33.0035 7.31029 33.048 7.3208 33.094 7.33093ZM33.094 7.33093C33.174 7.34859 33.2584 7.36513 33.3471 7.38081C33.3518 7.39585 33.3575 7.41051 33.3643 7.42464L33.3637 7.42706L33.094 7.33093ZM33.3406 7.75014L33.3934 7.7154C32.9828 7.64456 32.7176 7.62719 32.5987 7.67958C32.528 7.71094 32.4811 7.75541 32.4604 7.80665C32.3687 7.77091 32.2819 7.74099 32.1866 7.71162C32.1488 7.69997 32.1094 7.68832 32.064 7.67531C32.0907 7.68296 31.7738 7.59387 31.6669 7.56204L32.4599 7.80802C32.4546 7.82154 32.4511 7.83552 32.4494 7.84985C32.3884 7.826 32.3297 7.80478 32.2692 7.78461L32.4493 7.85113L32.4967 7.90824C32.5101 7.9548 32.5473 8.00435 32.6107 8.05311C32.6161 8.05725 32.6217 8.06135 32.6274 8.06543L32.7103 8.16523C32.7255 8.17307 32.7413 8.18079 32.7577 8.1884L32.7567 8.18843L32.7589 8.18898L32.7619 8.19034C32.5931 8.25066 32.5861 8.39404 32.74 8.51745L32.7357 8.51685L32.7176 8.52299C32.7121 8.52852 32.7069 8.53413 32.7021 8.53981C32.7125 8.54889 32.7237 8.55784 32.7356 8.56664C32.6448 8.67152 32.6765 8.8054 32.8054 8.92166C33.2997 9.36896 34.5269 9.36907 35.7041 8.97571L35.7863 8.98721L35.7885 8.99235L35.8033 8.98718L35.7992 8.94558L35.7986 8.9455L35.8014 8.90714L35.7773 8.9011C35.7829 8.85841 35.801 8.80912 35.8319 8.7519C35.8793 8.66414 35.9858 8.56988 36.124 8.48278C36.1632 8.4762 36.2004 8.46908 36.2355 8.46145L36.2362 8.41958L36.2335 8.41888L36.2264 8.42275L36.2264 8.41941C36.1966 8.42589 36.1653 8.43198 36.1325 8.43769L35.1458 8.18784C35.1801 8.18412 35.2142 8.17796 35.2477 8.16929L35.1487 8.14424C35.0877 8.15154 35.0256 8.15064 34.9645 8.14195L34.814 8.10385C34.8626 8.12188 34.9132 8.13466 34.9645 8.14195L35.1458 8.18784C34.9677 8.20714 34.7817 8.16104 34.6337 8.05819L34.469 8.0165C34.4961 8.00944 34.5238 8.00165 34.5519 7.99313L34.4689 7.97212C34.4385 7.98028 34.4087 7.98753 34.3798 7.9939L33.6341 7.8051C33.6304 7.79023 33.6281 7.77485 33.6273 7.75902L33.6175 7.75652L33.6163 7.75626L33.5833 7.74996C33.5834 7.76515 33.5847 7.77999 33.5871 7.79445C33.4996 7.77774 33.4174 7.76294 33.3406 7.75014ZM32.7514 8.13813C32.7044 8.11496 32.6628 8.09072 32.6274 8.06543L32.4967 7.90824C32.4747 7.83127 32.5178 7.76248 32.616 7.71894C32.72 7.67311 32.966 7.68771 33.3406 7.75014L32.7514 8.13813ZM32.7716 8.14782L32.7671 8.14671L32.7551 8.14717C32.739 8.15258 32.7241 8.15862 32.7103 8.16523L32.7514 8.13813L32.7716 8.14782ZM32.7716 8.14782C33.0139 8.26188 33.3903 8.34947 33.814 8.40908L32.7716 8.14782ZM34.1474 8.49262L33.814 8.40908C34.6121 8.52133 35.578 8.53429 36.1325 8.43769L36.179 8.44946C36.1602 8.46043 36.1418 8.47155 36.124 8.48278C35.64 8.56421 34.8623 8.56561 34.1474 8.49262ZM33.8047 8.45108C33.9163 8.46688 34.031 8.48074 34.1474 8.49262L35.7773 8.9011L35.7765 8.90825C35.7403 8.91155 35.7023 8.91436 35.6627 8.91671L33.8047 8.45108ZM32.7629 8.18998L32.7687 8.18797L32.7577 8.1884L32.7589 8.18898L32.7629 8.18998ZM32.7629 8.18998L33.8047 8.45108C33.384 8.39145 33.0088 8.3041 32.7619 8.19034L32.7629 8.18998ZM35.7511 8.93885L35.6627 8.91671L35.6122 8.91942L32.74 8.51745C32.7636 8.53635 32.791 8.55477 32.8221 8.57236L32.7407 8.56097L32.748 8.55332L32.7298 8.55945L32.7407 8.56097L32.7356 8.56664C32.7847 8.60298 32.8458 8.63662 32.9183 8.66518C33.4185 8.86196 34.8027 9.00058 35.6102 8.96257L35.7041 8.97571C35.7277 8.96783 35.7513 8.95979 35.7748 8.95159L35.777 8.95139C35.7787 8.964 35.7818 8.97592 35.7863 8.98721L35.7933 8.98818L35.7895 8.95023L35.7983 8.94941L35.7986 8.9455L35.7913 8.94449L35.7941 8.90659L35.7765 8.90825C35.7753 8.92013 35.7752 8.93148 35.776 8.94234L35.7511 8.93885ZM35.7763 8.94517L35.7511 8.93885L35.6122 8.91942C35.5296 8.92337 35.4408 8.92546 35.3475 8.9258L32.8221 8.57236C32.8551 8.59105 32.8924 8.60879 32.934 8.62514C33.3776 8.79968 34.5355 8.92874 35.3475 8.9258L35.6102 8.96257C35.6682 8.95983 35.7233 8.95619 35.7748 8.95159L35.7769 8.95085L35.777 8.95139L35.7895 8.95023L35.7893 8.94844L35.791 8.94886L35.7913 8.94449L35.776 8.94234L35.7763 8.94517ZM35.7861 8.94764L35.7893 8.94844L35.7891 8.94658L35.7861 8.94764ZM35.7861 8.94764L35.7763 8.94517L35.7769 8.95085L35.7861 8.94764ZM33.6076 7.79838L33.6341 7.8051C33.6798 7.98579 33.9432 8.08988 34.3798 7.9939L34.469 8.0165C33.9477 8.15236 33.6249 8.02174 33.5871 7.79445L33.6076 7.79838ZM33.6076 7.79838L33.6082 7.7985L33.607 7.79823L33.6076 7.79838ZM36.179 8.44946C36.1945 8.44045 36.2103 8.43154 36.2264 8.42275L36.2257 8.46128L36.179 8.44946ZM32.4494 7.84985L32.4646 7.85581L32.4784 7.81375L32.4599 7.80802L32.4604 7.80665L32.4798 7.81428L32.4661 7.85634L32.4493 7.85113L32.4494 7.84985ZM36.815 8.24488L36.8135 8.24159L36.8255 8.23878L36.8293 8.24072L36.815 8.24488ZM37.353 8.5694C37.0757 8.50656 36.8793 8.38912 36.815 8.24488C36.7764 8.25589 36.7365 8.26546 36.6955 8.27351C36.329 8.38389 35.9648 8.59627 35.8696 8.77239C35.7706 8.95572 35.8128 9.03035 36.0111 9.08587C36.588 9.24815 37.2749 9.10075 37.7996 8.73292L37.8211 8.7438C37.8245 8.75011 37.8282 8.75632 37.8324 8.76243C37.6185 8.91374 37.3778 9.02897 37.128 9.1022L36.6345 9.15021L36.6188 9.15952C36.6117 9.16999 36.6052 9.18087 36.5992 9.19209C36.6143 9.19139 36.6294 9.19051 36.6446 9.18948L36.6386 9.19302L36.6488 9.19203C36.5329 9.37522 36.5945 9.68819 36.8648 9.72249C36.8891 9.72555 36.9138 9.72792 36.9389 9.72961L36.8582 9.765L36.8595 9.76516L36.8759 9.76713C36.6892 9.86817 36.486 9.96959 36.2852 10.0631L35.8218 10.2662C35.6079 10.3536 35.4171 10.4217 35.2786 10.4576L35.2926 10.4982L35.8218 10.2662C35.9685 10.2062 36.1261 10.1371 36.2852 10.0631L36.9466 9.77318L36.9538 9.77358L36.9854 9.7561L36.9732 9.73148C37.136 9.7384 37.3162 9.71844 37.5014 9.67771C37.492 9.69423 37.4833 9.71074 37.4754 9.72719C37.4934 9.72347 37.5114 9.71956 37.5295 9.71546C37.3611 10.0273 37.48 10.3164 37.8374 10.3594C37.8785 10.3643 37.922 10.3654 37.9675 10.3628L37.8755 10.4059L37.8918 10.4067C37.8565 10.4274 37.8134 10.4531 37.768 10.4802L37.7674 10.4805L37.7673 10.4806L37.7671 10.4807L37.767 10.4808L37.7667 10.4809L37.7665 10.4811L37.7664 10.4811C37.7022 10.5194 37.6337 10.5602 37.577 10.5934L36.989 10.869C36.9092 10.8958 36.8293 10.9178 36.7483 10.935L36.7619 10.9755L36.989 10.869C37.1523 10.8143 37.3152 10.7396 37.4866 10.6452C37.509 10.6329 37.5405 10.6147 37.577 10.5934L37.9785 10.4051L37.9802 10.405L37.9898 10.3998L37.9714 10.3626C38.114 10.3537 38.2764 10.3085 38.4488 10.2311C38.433 10.2537 38.4185 10.2755 38.4051 10.2965C38.429 10.2866 38.4531 10.2762 38.4774 10.2652C38.3223 10.4905 38.3003 10.6096 38.3927 10.7284C38.4425 10.7922 38.5147 10.8038 38.6417 10.7613L38.4934 10.8303C38.4987 10.8308 38.5041 10.831 38.5096 10.831C38.2325 10.9688 37.9313 11.1064 37.7014 11.1993L37.7184 11.2388L38.654 10.8029L38.6755 10.7954L38.7238 10.7704L38.7072 10.7366C38.7799 10.7066 38.8676 10.6629 38.9743 10.6054C39.0752 10.5512 39.1946 10.4738 39.3319 10.3754C39.3798 10.341 39.4297 10.3043 39.4818 10.265L39.4922 10.2571C39.4833 10.2814 39.4757 10.305 39.4694 10.3279L39.5075 10.2994L39.5282 10.2836C39.4327 10.5544 39.5131 10.7238 39.7167 10.7993C39.9579 10.8893 40.1986 10.8662 40.4148 10.6702L40.4447 10.6833L40.4383 10.6481C40.4305 10.6557 40.4227 10.6631 40.4148 10.6702L39.5289 10.2831L39.5681 10.2533L39.5248 10.2344L39.5188 10.2369C39.5752 10.194 39.6335 10.1487 39.6983 10.0978L39.8115 10.0082L39.8966 9.99242L39.8794 9.95437L39.8578 9.97146L39.8115 10.0082L39.228 10.1163L39.3033 10.0587L39.2678 10.0652C39.4315 9.94226 39.5975 9.82229 39.7116 9.74552L39.6866 9.71057L39.2102 10.0759L39.1733 10.0827C39.1479 10.1021 39.1226 10.1214 39.0978 10.1405L38.5119 10.2491C38.5557 10.2282 38.5999 10.2054 38.6446 10.1807L38.499 10.2077C38.8294 10.0492 39.192 9.7761 39.5189 9.41594L39.5772 9.40761L39.5581 9.37207C39.5451 9.38683 39.532 9.40146 39.5189 9.41594L38.713 9.53099C38.7407 9.5131 38.7692 9.49457 38.7984 9.47535L38.7111 9.48781L39.3625 9.1024L39.3403 9.06564C39.2724 9.10827 39.2011 9.15479 39.1119 9.21426L38.9661 9.31198L38.8778 9.37123C38.8142 9.41367 38.7544 9.45307 38.6977 9.48973L38.5999 9.50369L38.5031 9.56095L37.6709 9.67977C37.7528 9.65703 37.835 9.6307 37.9165 9.60127L37.6622 9.63757C38.1366 9.50534 38.6209 9.25097 38.914 8.97391C38.9373 8.97123 38.9608 8.96825 38.9845 8.96497L38.9902 8.95921L38.9751 8.92765C39.0523 8.91689 39.1316 8.90282 39.2124 8.88523L39.3067 8.90362L39.3122 8.90228L39.3112 8.86208C39.2781 8.87039 39.2451 8.8781 39.2124 8.88523L37.8482 8.61921C37.9097 8.61885 37.9729 8.61633 38.0375 8.61151L37.8538 8.57621C37.9594 8.57533 38.0702 8.56801 38.1849 8.55336L38.2797 8.58116L38.2823 8.53928C38.2496 8.54456 38.2171 8.54925 38.1849 8.55336L36.8357 8.15752C36.8349 8.14833 36.8348 8.13906 36.8352 8.12973L36.8078 8.14933L36.8357 8.15752C36.8368 8.17019 36.8391 8.18272 36.8424 8.19509L36.8458 8.19675L36.8455 8.20076L36.8438 8.19989L36.8452 8.20454L36.8427 8.23664L36.8293 8.24072L36.8729 8.26287C36.9517 8.38673 37.1484 8.48804 37.4184 8.53953L37.5414 8.60194C37.5062 8.59759 37.4718 8.59245 37.4384 8.58657L37.4224 8.54655L37.353 8.5694ZM37.3713 8.57345L37.353 8.5694L36.482 8.85589L36.491 8.89913C36.8849 8.84917 37.1097 8.76512 37.4388 8.58745L37.4384 8.58657L37.4341 8.58581L37.419 8.54798L37.3713 8.57345ZM37.1358 8.68741L37.4354 8.58887L37.4341 8.58581C37.4128 8.58199 37.3918 8.57787 37.3713 8.57345C37.2881 8.61734 37.2113 8.65497 37.1358 8.68741ZM36.7832 8.80338C36.9094 8.7741 37.021 8.73673 37.1358 8.68741L36.7832 8.80338ZM36.7832 8.80338C36.6935 8.8242 36.5965 8.84093 36.4858 8.85497L36.4949 8.89821L36.7832 8.80338ZM37.6587 8.61325C37.6186 8.61043 37.5795 8.60664 37.5414 8.60194L37.7996 8.73292L37.8118 8.72423C37.8145 8.73086 37.8176 8.73738 37.8211 8.7438L37.8313 8.749L37.8285 8.71237L37.8118 8.72423C37.8066 8.71157 37.8028 8.69853 37.8005 8.68514L37.8507 8.71061L37.8536 8.74724L37.8324 8.76243C37.8856 8.84157 37.9974 8.90352 38.1505 8.94314L37.9831 9.01903L37.128 9.1022C36.971 9.14824 36.8105 9.17768 36.6507 9.18905L36.6543 9.1837L36.6446 9.18948L36.6507 9.18905L36.6488 9.19203L37.8618 9.07405L37.1304 9.40561L37.1456 9.44572C37.439 9.35314 37.7621 9.20931 38.0475 9.05598L38.7364 8.98897C38.7941 8.98588 38.8534 8.98089 38.914 8.97391L38.9166 8.97144L38.9769 8.96558L38.9598 8.92975L38.9751 8.92765L38.9728 8.92277L38.6457 8.95458C38.1484 8.96495 37.8046 8.82491 37.8439 8.61923L37.8482 8.61921L37.8441 8.6184C37.8453 8.61218 37.8469 8.6059 37.8488 8.59956L37.8243 8.61454L37.8441 8.6184L37.8439 8.61923C37.8293 8.61929 37.8147 8.61923 37.8003 8.61904C37.802 8.60848 37.8045 8.59775 37.8079 8.58685L37.8254 8.57629L37.8538 8.57621L37.8324 8.57208L37.8254 8.57629C37.7303 8.57604 37.6397 8.57054 37.5546 8.56045L36.8455 8.20076L36.8452 8.20454C36.8516 8.22444 36.8609 8.24392 36.8729 8.26287L37.4184 8.53953C37.4619 8.54784 37.5074 8.55485 37.5546 8.56045L37.6587 8.61325ZM37.6587 8.61325C37.7047 8.61648 37.7519 8.61843 37.8003 8.61904C37.7966 8.64191 37.7967 8.66397 37.8005 8.68514L37.6587 8.61325ZM38.9588 8.92988L38.9595 8.92914L38.9598 8.92975L38.9588 8.92988ZM38.9588 8.92988C38.8496 8.9445 38.7446 8.95251 38.6457 8.95458L38.3694 8.98145C38.3169 8.97594 38.2672 8.96845 38.2205 8.95913L38.2255 8.95622L38.2059 8.91804L38.1505 8.94314L38.1587 8.94522C38.1184 8.96826 38.077 8.99123 38.0348 9.014L37.9831 9.01903L37.8618 9.07405L37.9342 9.067C37.6751 9.20047 37.3919 9.3229 37.1328 9.40469L37.148 9.4448L37.9943 9.06115L38.0475 9.05598C38.0798 9.03858 38.1117 9.02106 38.143 9.00347L38.3694 8.98145C38.4808 8.99317 38.6044 8.99604 38.7364 8.98897L38.9166 8.97144C38.9312 8.95764 38.9452 8.94378 38.9588 8.92988ZM38.1157 9.00614L38.143 9.00347C38.1693 8.98872 38.1952 8.97393 38.2205 8.95913L38.2197 8.95897L38.2235 8.95723L38.2039 8.91905L38.1587 8.94522C38.1784 8.95017 38.1987 8.95475 38.2197 8.95897L38.1157 9.00614ZM38.1157 9.00614L38.0348 9.014C38.0017 9.03181 37.9682 9.0495 37.9342 9.067L37.9943 9.06115L38.1157 9.00614ZM37.5389 9.69862L37.5295 9.71546C37.5764 9.70482 37.6236 9.6929 37.6709 9.67977L37.5389 9.69862ZM37.5389 9.69862L37.544 9.68974L37.5286 9.70009L37.5389 9.69862ZM38.6101 9.54569L38.5031 9.56095L37.9398 9.89425L37.9582 9.93291C38.1907 9.84557 38.4085 9.72731 38.713 9.53099L38.6144 9.54507L38.7111 9.48781L38.6977 9.48973C38.6676 9.50914 38.6385 9.52777 38.6101 9.54569ZM38.5506 9.5828C38.5701 9.57078 38.5899 9.55842 38.6101 9.54569L38.6144 9.54507L38.5506 9.5828ZM38.5506 9.5828C38.4832 9.62441 38.42 9.66186 38.3596 9.69583L38.5506 9.5828ZM38.3596 9.69583C38.2115 9.77904 38.0797 9.84135 37.9432 9.89263L37.9616 9.9313L38.3596 9.69583ZM38.4851 10.254L38.4774 10.2652C38.4888 10.2599 38.5003 10.2546 38.5119 10.2491L38.4851 10.254ZM38.4851 10.254L38.4901 10.2469L38.4764 10.2556L38.4851 10.254ZM39.1349 10.1336L39.0978 10.1405C38.9278 10.2714 38.7789 10.3922 38.7183 10.4533L38.7465 10.4856L39.228 10.1163L39.1911 10.1232L39.2678 10.0652L39.2102 10.0759L39.1349 10.1336ZM39.1349 10.1336L38.7205 10.4514L38.7487 10.4836C38.8157 10.416 38.9954 10.272 39.1911 10.1232L39.1349 10.1336ZM39.5285 10.2829L39.5282 10.2836L39.5289 10.2831L39.5285 10.2829ZM39.5285 10.2829L39.5362 10.2618L39.5077 10.2738L39.5285 10.2829ZM39.5188 10.2369L39.4922 10.2571L39.4962 10.2464L39.5188 10.2369ZM38.7064 10.7369L38.7072 10.7366L38.7049 10.7318L38.6417 10.7613L38.6608 10.7546C38.6116 10.7799 38.561 10.8055 38.5096 10.831C38.5502 10.8314 38.5975 10.822 38.654 10.8029L38.7229 10.7708L38.7064 10.7369ZM38.7064 10.7369L38.7041 10.7322L38.6608 10.7546C38.6753 10.7493 38.6905 10.7435 38.7064 10.7369ZM38.499 10.2077C38.4822 10.2158 38.4654 10.2236 38.4488 10.2311L38.455 10.2221L38.4687 10.2133L38.499 10.2077ZM37.9704 10.3626L37.9889 10.4002L37.9785 10.4051C37.9488 10.4071 37.9198 10.4077 37.8918 10.4067C37.9269 10.386 37.9541 10.3701 37.9679 10.3628L37.9704 10.3626ZM37.9704 10.3626L37.9714 10.3626L37.9708 10.3612L37.9675 10.3628L37.9679 10.3628L37.9699 10.3617L37.9704 10.3626ZM37.6622 9.63757C37.6084 9.65257 37.5547 9.666 37.5014 9.67771L37.5071 9.66785L37.5226 9.6575L37.6622 9.63757ZM36.9709 9.73138L36.9835 9.757L36.9466 9.77318C36.9227 9.77175 36.8991 9.76974 36.8759 9.76713C36.8989 9.75472 36.9215 9.74232 36.9439 9.72993L36.9709 9.73138ZM36.9709 9.73138L36.9732 9.73148L36.9664 9.71758L36.9389 9.72961L36.9439 9.72993L36.9646 9.71848L36.9709 9.73138ZM36.8255 8.23878L36.8185 8.23528L36.833 8.23706L36.8255 8.23878ZM36.8073 8.22576C36.8047 8.21866 36.8025 8.21149 36.8006 8.20427C36.8102 8.20155 36.8197 8.19873 36.8292 8.19582L36.8301 8.19593L36.8271 8.23542L36.8073 8.22576ZM40.467 10.6801L40.4682 10.679L40.4678 10.6769L40.2807 10.8176C40.3406 10.786 40.3991 10.7441 40.4559 10.6907C40.306 10.8614 39.8819 11.1739 39.5245 11.3862L39.5483 11.4219L40.4952 10.71L40.467 10.6801ZM40.467 10.6801L40.4559 10.6907L40.466 10.679L40.467 10.6801ZM39.69 10.8351L39.6934 10.8364L39.7049 10.825L39.6782 10.7917L39.6433 10.8139L39.6509 10.8177C39.5765 10.8884 39.473 10.9688 39.3549 11.0486L39.1823 11.1587C39.0455 11.2409 38.9 11.3171 38.7635 11.3749L38.7834 11.4129L39.1823 11.1587C39.242 11.1228 39.3 11.0858 39.3549 11.0486L39.69 10.8351ZM39.69 10.8351L39.7012 10.828L39.6745 10.7946C39.667 10.8022 39.6591 10.8099 39.6509 10.8177C39.6634 10.8239 39.6765 10.8297 39.69 10.8351ZM39.477 10.6459L39.4786 10.6493L39.5007 10.6313L39.476 10.5963L39.4617 10.605L39.4624 10.6072C39.3424 10.7049 39.1627 10.8309 38.9693 10.9542L38.6694 11.1362C38.4918 11.2384 38.322 11.3256 38.1944 11.3747L38.2131 11.4132L38.6694 11.1362C38.7689 11.0789 38.8709 11.0169 38.9693 10.9542L39.477 10.6459ZM39.477 10.6459C39.4714 10.6335 39.4665 10.6205 39.4624 10.6072L39.4735 10.5981L39.4982 10.6331L39.477 10.6459ZM38.2961 10.6108L38.2963 10.6128L38.3285 10.5945L38.3084 10.5566L38.2954 10.5631L38.2953 10.564C37.9505 10.7597 37.3456 11.0692 37.1417 11.1405L37.1583 11.18L38.2961 10.6108ZM38.2961 10.6108C38.2944 10.5956 38.2942 10.58 38.2953 10.564L38.3073 10.5571L38.3275 10.5951L38.2961 10.6108ZM37.5393 10.281L37.5408 10.2823L37.5564 10.2722L37.5352 10.2349L37.5074 10.2489L37.5096 10.2513C37.3686 10.3426 37.2602 10.4112 37.1493 10.4777L36.3571 10.8773C36.2751 10.9075 36.1991 10.9301 36.1299 10.9446L36.1439 10.9849L36.3571 10.8773C36.4485 10.8438 36.5474 10.8009 36.6531 10.7496C36.7637 10.696 36.8799 10.6339 37.0011 10.5644C37.0529 10.5348 37.1013 10.5065 37.1493 10.4777L37.5393 10.281ZM37.5393 10.281C37.5287 10.2715 37.5188 10.2616 37.5096 10.2513L37.5332 10.236L37.5544 10.2733L37.5393 10.281ZM37.4115 9.98355L37.4115 9.98712L37.4399 9.97011L37.4198 9.93217L37.4141 9.93486L37.414 9.93552C37.2639 10.0256 37.1259 10.1062 36.9967 10.1782L36.1922 10.5557C36.0972 10.5893 36.0028 10.618 35.9064 10.6427L35.9208 10.6831L36.1922 10.5557C36.4421 10.4674 36.6956 10.346 36.9967 10.1782L37.4115 9.98355ZM37.4115 9.98355L37.438 9.97114L37.4179 9.9332L37.414 9.93552C37.4124 9.95175 37.4116 9.96777 37.4115 9.98355ZM36.5911 9.57747L36.5917 9.57855L36.6068 9.57183L36.591 9.5319L36.5744 9.53779L36.5748 9.539C36.1936 9.70719 35.5159 9.94419 34.9978 10.0969L35.011 10.1378L36.5911 9.57747ZM36.5911 9.57747C36.585 9.56498 36.5796 9.55213 36.5748 9.539L36.5895 9.53252L36.6053 9.57245L36.5911 9.57747ZM36.2165 9.17357L36.2179 9.17379L36.2232 9.17029L36.2029 9.13259L36.1389 9.16028L36.1553 9.16338C36.0902 9.20547 36.0221 9.24717 35.952 9.28794L34.8562 9.76182C34.7852 9.78011 34.7171 9.7943 34.6528 9.80375L34.6643 9.84478L34.8562 9.76182C35.1958 9.67429 35.5996 9.49291 35.952 9.28794L36.2165 9.17357ZM36.2165 9.17357C36.196 9.17052 36.1756 9.16712 36.1553 9.16338C36.1702 9.15374 36.185 9.14407 36.1996 9.1344L36.2199 9.17209L36.2165 9.17357ZM32.6512 8.76914L32.6526 8.7738L32.6733 8.77044L32.6723 8.72639C32.6628 8.72535 32.6527 8.72468 32.642 8.72434L32.6428 8.73033L32.3239 8.78192L32.3352 8.82448C32.4229 8.7877 32.5617 8.76393 32.6512 8.76914ZM32.6512 8.76914C32.6474 8.7562 32.6446 8.74324 32.6428 8.73033L32.6667 8.72645L32.6678 8.77051C32.6625 8.76993 32.6569 8.76948 32.6512 8.76914ZM32.6111 8.42906L32.6123 8.43147L32.6249 8.4326L32.6327 8.39049L32.5918 8.37892L32.5939 8.38658C32.5203 8.37971 32.4488 8.37202 32.3794 8.36344L31.1309 8.00984C31.0812 7.98312 31.0329 7.95489 30.9861 7.92507L30.9688 7.96392L31.1309 8.00984C31.465 8.18927 31.8674 8.30022 32.3794 8.36344L32.6111 8.42906ZM32.6111 8.42906C32.6038 8.41485 32.598 8.40065 32.5939 8.38658L32.6287 8.38976L32.621 8.43188L32.6111 8.42906ZM35.2195 7.54108L35.2322 7.55084L35.2507 7.51297C35.2399 7.51009 35.2286 7.50657 35.217 7.50248C35.2175 7.51536 35.2183 7.52824 35.2195 7.54108ZM40.4844 11.0017C40.396 11.1204 40.1733 11.3837 40.0316 11.5363L40.0636 11.5649L40.5179 11.0285L40.4844 11.0017ZM40.4853 11.0006L40.5188 11.0274C40.4293 11.1475 40.2057 11.4119 40.063 11.5656L40.031 11.537L40.4853 11.0006ZM47.6577 7.63691L47.6574 7.63702L47.6574 7.63703L47.6577 7.63691ZM47.6577 7.63691L47.6579 7.63686L47.658 7.63682L47.6717 7.67756C47.6927 7.67008 47.0863 7.88962 46.8733 7.96408C46.8101 7.98617 46.7492 8.00724 46.6901 8.02739C46.2623 8.17322 45.9404 8.26803 45.7357 8.30233L45.7256 8.26065L47.6577 7.63691Z" fill="black"/>
<path fill-rule="evenodd" clip-rule="evenodd" d="M39.3814 7.46985C39.446 7.43551 39.4782 7.42581 39.5507 7.41197C39.5687 7.40852 39.5798 7.40609 39.5916 7.40266C39.6374 7.38935 39.6769 7.36373 39.7295 7.31004C40.0693 6.96247 40.6147 6.57498 40.9362 6.43624L40.9388 6.44216C40.9506 6.43666 40.9588 6.43942 40.973 6.45391C40.9791 6.46009 40.9999 6.48551 41.0086 6.49611L41.0124 6.50071C41.0761 6.57496 41.146 6.5992 41.2595 6.5567C41.331 6.5298 41.3669 6.47781 41.381 6.40295C41.385 6.38161 41.3863 6.36792 41.3893 6.32853C41.393 6.2794 41.3971 6.26696 41.4053 6.26621L41.4053 6.26516L41.4071 6.26478C41.466 6.25235 41.5236 6.24716 41.5884 6.24877L41.5895 6.20577C41.5225 6.20411 41.4625 6.20939 41.4014 6.22204C41.3946 6.22267 41.3887 6.22393 41.3835 6.22593C41.3303 6.23812 41.2746 6.25604 41.2028 6.28323C41.1555 6.30118 40.9508 6.38359 40.9529 6.38276C40.631 6.5105 40.0545 6.91626 39.6989 7.27991C39.6512 7.32863 39.6178 7.35025 39.5796 7.36134C39.5694 7.36431 39.5595 7.3665 39.5427 7.36971C39.4663 7.38429 39.4305 7.39511 39.3613 7.43183L39.3814 7.46985ZM41.3523 6.27545C41.3576 6.24771 41.3663 6.23264 41.3835 6.22593L41.3983 6.22269L41.4014 6.22204L41.4016 6.22202L41.4053 6.26516C41.3919 6.26795 41.3822 6.26971 41.374 6.27119L41.3578 6.27425L41.3523 6.27545ZM40.9931 6.41306L41.0612 6.38599L41.0612 6.38599L41.0612 6.38599L41.0612 6.38599C41.2808 6.2987 41.321 6.2827 41.3523 6.27545C41.3498 6.28887 41.3481 6.30526 41.3466 6.3251C41.3438 6.36269 41.3425 6.37542 41.3389 6.39447C41.3275 6.45521 41.3007 6.494 41.2449 6.515C41.1493 6.55081 41.0973 6.53277 41.0444 6.47124L41.0434 6.47002C41.0379 6.46329 41.0114 6.43076 41.0031 6.4223C40.9998 6.41893 40.9964 6.41584 40.9931 6.41306ZM40.9931 6.41306C40.9707 6.39437 40.9477 6.38936 40.9212 6.40168L40.9362 6.43624C40.9473 6.43144 40.9581 6.42694 40.9687 6.42275L40.9931 6.41306ZM48.6456 8.48898L48.6256 8.49639L48.6108 8.45604L48.6453 8.44327C48.6464 8.45797 48.6465 8.47322 48.6456 8.48898ZM48.4822 8.87076C48.5474 8.7912 48.6076 8.67744 48.6326 8.57389C48.6398 8.54426 48.6442 8.51588 48.6456 8.48898C49.5807 8.14258 50.1025 7.9198 50.7299 7.55694C51.0541 7.36941 51.3553 7.16686 51.6332 6.94606L51.6066 6.91234C51.3305 7.13177 51.0309 7.33316 50.7085 7.51967C50.0871 7.87911 49.5691 8.10072 48.6453 8.44327C48.6386 8.35597 48.5965 8.28796 48.5158 8.24834C49.3339 7.98181 50.0987 7.62308 50.3917 7.33475L50.3617 7.30404C50.068 7.59305 49.2818 7.95811 48.4496 8.22448C48.474 8.23064 48.4961 8.23864 48.5158 8.24834L48.4507 8.26932L48.4392 8.26619L48.4496 8.22448C48.2053 8.30269 47.957 8.37238 47.716 8.42915C47.6599 8.40216 47.5919 8.37928 47.5118 8.36097C46.9998 8.24404 46.2291 8.36778 45.7579 8.64002C45.6945 8.62401 45.6316 8.60929 45.57 8.59611C45.713 8.46831 45.7881 8.30431 45.7298 8.15029L45.6897 8.16558C45.808 8.47781 45.2841 8.85533 44.8346 8.77026L44.8267 8.81253C45.0747 8.85947 45.3444 8.77363 45.5278 8.63119C45.7546 8.67804 46.0029 8.74717 46.2251 8.82509L46.2255 8.82791L46.2306 8.82703C46.4916 8.91892 46.716 9.02283 46.8263 9.11678C46.9538 9.22504 47.0209 9.32131 47.0169 9.39486C47.0125 9.47556 46.9194 9.53769 46.7205 9.57297C46.4731 9.61712 46.3142 9.62824 46.0937 9.6042C46.0509 9.59585 46.008 9.58763 45.965 9.57955L45.9636 9.58716C45.8817 9.57491 45.79 9.55879 45.6832 9.53873C45.3794 9.32392 44.9132 9.11265 44.4317 8.94654L44.4178 8.98722C44.8921 9.15085 45.3528 9.35945 45.6522 9.56944L45.6509 9.5764L45.6661 9.57928C45.7516 9.64027 45.8233 9.70133 45.8777 9.76138C46.0093 9.90715 45.9927 10.0039 45.8483 10.0597C45.7058 10.1147 45.4527 10.1209 45.1623 10.077C44.6166 9.99406 43.7105 9.52901 43.2503 9.11669L43.2218 9.14877C43.4998 9.39787 43.937 9.66523 44.3623 9.8583L44.3612 9.85945C44.466 9.96544 44.5636 10.1199 44.6072 10.2605C44.6481 10.3923 44.5953 10.4566 44.4748 10.447C44.3129 10.4346 44.1935 10.4065 44.0376 10.3321L44.0313 10.3453C43.9566 10.2596 43.8562 10.178 43.7294 10.1086C43.3832 9.91881 42.9321 9.52002 42.7223 9.22752L42.6876 9.25265C42.9011 9.55038 43.357 9.95348 43.7088 10.1464C44.1069 10.3643 44.2287 10.6989 44.1074 10.8757C44.0002 11.0322 43.6425 11.0527 43.2857 10.8402C42.8594 10.5859 42.3668 9.77769 42.3007 9.20835L42.2582 9.21333C42.3258 9.79559 42.8257 10.6158 43.2638 10.8772C43.3351 10.9196 43.4067 10.9532 43.4768 10.9785C43.5091 11.0682 43.5225 11.18 43.5143 11.3549C43.504 11.574 43.3433 11.722 43.1473 11.6478C42.9537 11.5747 42.8045 11.412 42.7046 11.2097L42.6662 11.2288C42.7705 11.44 42.9269 11.6105 43.1321 11.6881C43.186 11.7085 43.2376 11.7143 43.2851 11.7082C43.401 11.9547 43.4646 12.1356 43.4565 12.2014C43.4443 12.3006 43.4185 12.3308 43.328 12.3097L43.3183 12.3516C43.4397 12.3799 43.4841 12.3278 43.499 12.2067C43.5084 12.1302 43.4455 11.9496 43.3281 11.699C43.3521 11.6918 43.3748 11.6814 43.3959 11.6681C43.559 11.8843 43.6785 12.0383 43.8257 12.2165C43.8699 12.2699 43.9129 12.3207 43.9545 12.3688C44.1091 12.5472 44.2407 12.6817 44.3437 12.7623L44.37 12.7283C44.2697 12.6499 44.1397 12.517 43.9868 12.3406C43.9454 12.2928 43.9027 12.2422 43.8587 12.189C43.7121 12.0116 43.593 11.8581 43.4304 11.6426C43.504 11.5793 43.5515 11.4769 43.5571 11.3569C43.562 11.2512 43.5593 11.1671 43.5492 11.0964C43.9741 11.5887 44.9721 12.5125 45.2693 12.6811L45.2904 12.6436C44.9864 12.4712 43.9213 11.4807 43.533 11.0108L43.5321 11.0116L43.5275 10.9955C43.7765 11.0722 43.9996 11.0437 44.1098 10.9386C44.3587 11.2648 45.1348 11.7228 45.535 11.7995L45.543 11.7573C45.1499 11.6819 44.3743 11.2229 44.1387 10.9057L44.1427 10.9001C44.2154 10.7941 44.2125 10.6425 44.1314 10.4893C44.4143 10.7266 44.89 11.0765 45.3303 11.3832L45.3548 11.3478C44.8841 11.02 44.372 10.642 44.1015 10.4074C44.2256 10.4577 44.3342 10.4794 44.4714 10.4899C44.535 10.495 44.5853 10.4813 44.6185 10.4516C44.9178 10.7639 45.6876 11.3927 45.9934 11.5441L46.0124 11.5055C45.7104 11.356 44.9384 10.7249 44.6453 10.4175C44.6677 10.3761 44.6701 10.3185 44.6482 10.2477C44.6113 10.1289 44.5384 10.0017 44.4542 9.89894C44.7096 10.0088 44.9561 10.0891 45.1559 10.1195C45.216 10.1286 45.2746 10.1356 45.3311 10.1405L45.3283 10.1436C45.7048 10.478 46.4024 10.9357 46.8117 11.1313L46.8302 11.0925C46.438 10.9051 45.7764 10.4734 45.3954 10.1452C45.5093 10.152 45.6129 10.1497 45.7011 10.1382C45.8177 10.2327 46.0341 10.3652 46.3446 10.5376C46.3847 10.5598 46.4264 10.5828 46.4699 10.6066C46.576 10.6644 46.8309 10.8007 46.9891 10.8853L46.9893 10.8854L47.12 10.9553L47.1404 10.9175L47.0092 10.8473L47.0092 10.8473L47.0088 10.8471C46.8506 10.7625 46.5962 10.6265 46.4904 10.5688C46.4469 10.545 46.4054 10.5222 46.3653 10.4999C46.083 10.3432 45.8789 10.2196 45.759 10.1289C45.798 10.1213 45.8331 10.1116 45.8637 10.0998C45.8955 10.0875 45.9222 10.0731 45.9437 10.0566C46.7369 10.558 47.2419 10.8227 47.7583 10.9429L47.768 10.901C47.2599 10.7827 46.7596 10.5211 45.9759 10.0261C46.0144 9.9795 46.0205 9.92123 45.9918 9.85422C46.0819 9.89034 46.1879 9.93471 46.3227 9.99232C46.3832 10.0182 46.5542 10.0919 46.666 10.1401L46.7645 10.1825L46.8508 10.2195C47.3454 10.4309 47.6559 10.5514 47.8689 10.6063L47.8795 10.5646C47.6694 10.5105 47.36 10.3904 46.8676 10.1799L46.7813 10.1429L46.6829 10.1005C46.5711 10.0523 46.4 9.97861 46.3395 9.95275C46.1795 9.88437 46.0599 9.83459 45.9593 9.79503L45.9592 9.79534C45.9454 9.775 45.9289 9.75402 45.9094 9.73248C45.8688 9.68755 45.819 9.64222 45.7613 9.59689C45.8882 9.61984 45.9932 9.63642 46.0871 9.64675C46.9057 9.80658 47.6959 10.0166 47.8891 10.1827L47.9169 10.15C47.7371 9.9954 47.0893 9.8115 46.3629 9.65873C46.4743 9.65503 46.5872 9.64045 46.728 9.61532C46.8459 9.59441 46.9321 9.56314 46.9871 9.52176L46.9874 9.5247C47.0201 9.52134 47.0523 9.51761 47.0839 9.51349C47.4546 9.67384 48.0494 9.71776 48.3365 9.57966C48.427 9.7602 48.2869 10.0322 48.1255 10.0839L48.1386 10.1249C48.2275 10.0964 48.3095 10.0123 48.359 9.90976C48.7808 10.0084 49.7284 10.0274 50.1878 9.92623L50.1789 9.88275C49.7287 9.98187 48.7967 9.96387 48.3769 9.86835C48.3952 9.82016 48.4063 9.76922 48.4078 9.71894C49.0377 9.77606 49.796 9.72848 50.1827 9.54341L50.1648 9.50305C49.7858 9.68445 49.0304 9.73139 48.4064 9.6742C48.4028 9.63422 48.3925 9.59533 48.3743 9.55933C48.3791 9.55646 48.3837 9.55352 48.3883 9.55052C48.4371 9.51828 48.477 9.48235 48.5085 9.44418C49.2838 9.3327 49.8556 9.15247 50.3773 8.89087C50.4903 8.83425 50.7266 8.70094 50.9175 8.59319C51.0446 8.52151 51.1516 8.46114 51.1889 8.44219C51.2569 8.40762 51.3205 8.3783 51.3831 8.35303L51.3671 8.31312C51.3033 8.33889 51.2386 8.36872 51.1695 8.40382C51.1314 8.42317 51.0231 8.48429 50.895 8.55656L50.8947 8.5567L50.8946 8.5568L50.8945 8.55681C50.7039 8.66436 50.4697 8.79649 50.3582 8.85239C49.8497 9.10735 49.2932 9.28442 48.5432 9.39566C48.578 9.33874 48.5955 9.27846 48.5962 9.21909C49.8999 8.89143 51.0291 8.40267 51.7881 7.77783L51.761 7.74458C51.0091 8.36346 49.8884 8.84914 48.5937 9.17539C48.5816 9.08128 48.5268 8.99222 48.4318 8.92579C49.1206 8.77837 49.573 8.57613 50.4448 8.08922L50.5018 8.0574C50.7493 7.91917 50.8828 7.84632 51.0369 7.76728L51.0174 7.72898C50.8627 7.80832 50.7289 7.88135 50.4809 8.01982L50.424 8.05164C49.581 8.52245 49.133 8.72546 48.4822 8.87076ZM48.4308 8.92509C48.4479 8.90981 48.4652 8.89144 48.4822 8.87076L48.4204 8.88426L48.4287 8.92365C48.4218 8.91887 48.4146 8.9142 48.4072 8.90966L48.3848 8.94634L48.3962 8.95355C48.0257 9.24948 47.66 9.42444 47.1693 9.50128C47.1454 9.49249 47.1223 9.48326 47.1 9.47359L47.083 9.51307L47.0839 9.51349C47.1128 9.50974 47.1413 9.50567 47.1693 9.50128C47.5439 9.63907 48.0984 9.66653 48.3432 9.52778L48.339 9.56037L48.3292 9.56611C48.3318 9.57057 48.3342 9.57508 48.3365 9.57966C48.3498 9.57327 48.3624 9.5665 48.3743 9.55933C48.3718 9.55431 48.3691 9.54933 48.3662 9.54442L48.3393 9.5602L48.3439 9.52733C48.3511 9.52323 48.3581 9.51899 48.3647 9.5146C48.6007 9.35861 48.6098 9.11593 48.4228 8.97239L48.4293 8.92632L48.4287 8.92365L48.4308 8.92509ZM48.4151 8.96663L48.4191 8.93509L48.3962 8.95355C48.4027 8.9578 48.409 8.96216 48.4151 8.96663ZM48.4151 8.96663L48.4228 8.97239L48.3439 9.52733L48.3432 9.52778L48.4151 8.96663ZM48.3393 9.5602L48.339 9.56037L48.3365 9.57966L48.3393 9.5602ZM48.4308 8.92509L48.4295 8.92629L48.4318 8.92579L48.4308 8.92509ZM48.5937 9.17539C48.5955 9.18986 48.5964 9.20445 48.5962 9.21909L48.5719 9.22517L48.5616 9.18343L48.5937 9.17539ZM48.5432 9.39566L48.4863 9.40391L48.4923 9.4465L48.5085 9.44418C48.5215 9.42836 48.5331 9.41215 48.5432 9.39566ZM48.4064 9.6742L48.3881 9.67248L48.3841 9.71674L48.4078 9.71894C48.4082 9.70393 48.4078 9.68899 48.4064 9.6742ZM48.3769 9.86835L48.3527 9.86261L48.3427 9.90584L48.359 9.90976C48.3656 9.89625 48.3715 9.88241 48.3769 9.86835ZM47.032 9.47656C47.0158 9.47844 46.9995 9.48023 46.983 9.48192L46.9871 9.52176C47.0056 9.50784 47.0205 9.49276 47.032 9.47656ZM46.9349 9.15897C47.0196 9.24598 47.0636 9.326 47.0597 9.39722C47.0581 9.42613 47.0489 9.45259 47.032 9.47656C47.5929 9.4113 47.9872 9.23034 48.3921 8.90166C48.4709 8.83758 48.5601 8.69141 48.591 8.56375C48.6273 8.41355 48.5855 8.30837 48.4507 8.26932C48.2248 8.34131 47.9957 8.40599 47.7722 8.45996C47.755 8.44917 47.7363 8.43889 47.716 8.42915L47.7147 8.42947L47.7245 8.47134L47.7722 8.45996C47.8512 8.50955 47.8978 8.57002 47.9131 8.63933C47.9359 8.74228 47.8852 8.8557 47.7922 8.94365C47.6331 9.09417 47.29 9.18246 46.9349 9.15897ZM46.8858 9.1118C46.9034 9.12774 46.9198 9.14347 46.9349 9.15897C46.9155 9.15769 46.8961 9.15608 46.8768 9.15413L46.881 9.11133L46.8858 9.1118ZM46.3179 8.81279C46.2872 8.81754 46.258 8.8223 46.2306 8.82703L46.2251 8.82509L46.2184 8.78408L46.2317 8.78179C46.2609 8.79197 46.2896 8.80231 46.3179 8.81279ZM45.8181 8.65558C46.2828 8.40387 47.0147 8.29156 47.5022 8.4029C47.7296 8.45487 47.8476 8.54175 47.8713 8.64867C47.8903 8.73447 47.8459 8.8338 47.7628 8.91235C47.606 9.06071 47.2482 9.14721 46.8858 9.1118C46.8756 9.1026 46.865 9.09332 46.854 9.08397C46.75 8.99542 46.552 8.89964 46.3179 8.81279C46.6633 8.75938 47.2 8.70733 47.4779 8.70733V8.66288C47.1751 8.66288 46.5708 8.72384 46.2317 8.78179C46.0994 8.73558 45.9583 8.69263 45.8181 8.65558ZM45.8181 8.65558C45.798 8.65027 45.7779 8.64508 45.7579 8.64002L45.7473 8.64622L45.7689 8.68333C45.785 8.6739 45.8014 8.66465 45.8181 8.65558ZM46.3629 9.65873C46.2745 9.66166 46.187 9.65772 46.0871 9.64675C46.0439 9.6383 46.0005 9.62998 45.9571 9.62182L45.9636 9.58716C46.0097 9.59406 46.0528 9.59974 46.0937 9.6042C46.1842 9.62184 46.2741 9.64005 46.3629 9.65873ZM45.9592 9.79534L45.9436 9.83508L45.9918 9.85422C45.9837 9.83527 45.9729 9.81562 45.9592 9.79534ZM45.9759 10.0261C45.9669 10.0369 45.9562 10.0471 45.9437 10.0566L45.9301 10.048L45.953 10.0116L45.9759 10.0261ZM45.759 10.1289C45.7461 10.1192 45.7342 10.1098 45.7233 10.1009L45.6962 10.1341L45.7011 10.1382C45.7212 10.1356 45.7405 10.1325 45.759 10.1289ZM45.3954 10.1452C45.3743 10.1439 45.3529 10.1424 45.3311 10.1405L45.3568 10.1114C45.3693 10.1225 45.3822 10.1338 45.3954 10.1452ZM44.6453 10.4175L44.6337 10.4052L44.6025 10.4347L44.6185 10.4516C44.6293 10.4419 44.6383 10.4305 44.6453 10.4175ZM44.0712 10.3947C44.0814 10.3991 44.0915 10.4033 44.1015 10.4074C44.0804 10.3891 44.0608 10.3717 44.0428 10.3552L44.0413 10.3569L44.0313 10.3453L44.0192 10.3709L44.0257 10.374L44.014 10.387C44.0478 10.418 44.0873 10.4522 44.1314 10.4893C44.1147 10.4577 44.0946 10.426 44.0712 10.3947ZM44.0712 10.3947C44.0563 10.3882 44.0412 10.3813 44.0257 10.374L44.0413 10.3569C44.0518 10.3694 44.0618 10.382 44.0712 10.3947ZM44.1387 10.9057C44.1302 10.9174 44.1206 10.9284 44.1098 10.9386C44.1033 10.9301 44.0971 10.9216 44.0913 10.9133L44.1265 10.8887C44.1304 10.8943 44.1345 10.9 44.1387 10.9057ZM43.5321 11.0116C43.5391 11.0378 43.5448 11.0659 43.5492 11.0964C43.5318 11.0763 43.5154 11.0569 43.5 11.0382L43.5321 11.0116ZM43.4304 11.6426L43.4177 11.6257L43.3835 11.6517L43.3959 11.6681C43.4079 11.6605 43.4194 11.6519 43.4304 11.6426ZM43.3281 11.699L43.3137 11.6683L43.275 11.6868L43.2851 11.7082C43.2998 11.7063 43.3142 11.7032 43.3281 11.699ZM43.5275 10.9955C43.5107 10.9903 43.4938 10.9846 43.4768 10.9785L43.4745 10.9722L43.5146 10.9571C43.5193 10.9695 43.5236 10.9822 43.5275 10.9955ZM44.4542 9.89894C44.4237 9.8858 44.393 9.87224 44.3623 9.8583L44.3916 9.82915C44.4129 9.85068 44.4339 9.8741 44.4542 9.89894ZM45.7613 9.59689C45.7367 9.57749 45.7106 9.5581 45.6832 9.53873L45.6589 9.53414L45.6522 9.56944L45.6661 9.57928C45.6992 9.58551 45.7309 9.59138 45.7613 9.59689ZM45.5278 8.63119C45.5424 8.61984 45.5565 8.60814 45.57 8.59611C45.5524 8.59234 45.5349 8.58871 45.5175 8.5852L45.5091 8.62736L45.5278 8.63119ZM42.9119 8.19535C42.7322 8.24644 42.6315 8.2981 42.4423 8.41976L42.4649 8.45753C42.6509 8.33793 42.7483 8.28793 42.9232 8.23821L42.9119 8.19535ZM43.7473 9.08332C44.2407 9.3633 44.904 9.678 45.3644 9.84525L45.379 9.80481C44.921 9.63843 44.2599 9.32475 43.7684 9.04588L43.7473 9.08332ZM45.5412 9.1076C45.1852 9.03413 44.8778 8.98603 44.5679 8.95906L44.5716 8.91621C44.8833 8.94334 45.1923 8.99169 45.5498 9.06547C45.6932 9.09507 45.8413 9.12797 46.031 9.17187L46.2105 9.21374C46.3289 9.24138 46.4691 9.27411 46.5261 9.28725L46.5165 9.32917C46.4595 9.31604 46.3197 9.28338 46.2014 9.25576L46.2009 9.25564L46.2007 9.2556L46.0214 9.21378C45.832 9.16995 45.6842 9.13712 45.5412 9.1076ZM42.4717 9.2565C42.5588 9.5194 43.1755 10.2936 43.4663 10.477L43.4892 10.4406C43.2066 10.2624 42.5963 9.49624 42.5124 9.24294L42.4717 9.2565ZM43.0132 11.1201C42.9171 10.885 42.3208 9.99452 42.0015 9.57486L42.0356 9.54875C42.3572 9.97154 42.9548 10.8639 43.0529 11.1037L43.0132 11.1201ZM42.8627 9.19582C43.0618 9.42222 43.7138 9.92006 44.0108 10.0401L44.0268 10.0002C43.7365 9.88288 43.0898 9.38906 42.8948 9.16736L42.8627 9.19582ZM41.6517 6.78336C41.5317 6.84573 41.4442 6.93694 41.372 7.06393L41.4089 7.08651C41.4772 6.96647 41.5588 6.88135 41.6709 6.82309L41.6517 6.78336ZM39.6592 8.18841C39.6474 8.02652 39.6641 7.81575 39.708 7.66435L39.7492 7.67637C39.7068 7.82244 39.6905 8.02818 39.702 8.18527L39.6592 8.18841ZM39.6885 8.45512C39.6534 8.6052 39.6794 8.95444 39.7274 9.14757L39.7689 9.13716C39.7224 8.95007 39.697 8.60719 39.7303 8.46496L39.6885 8.45512ZM39.8402 9.61023C39.8203 9.57855 39.8052 9.54871 39.7955 9.5207L39.8359 9.50568C39.8443 9.53011 39.8579 9.55698 39.8761 9.58597C39.8989 9.62227 39.9283 9.66092 39.9638 9.70224C39.9931 9.7364 40.017 9.76208 40.0627 9.80969L40.0323 9.84104C39.9861 9.79286 39.9617 9.76674 39.9318 9.73179C39.895 9.68894 39.8643 9.64862 39.8402 9.61023ZM40.0069 8.71194C39.9872 8.96144 40.1242 9.43498 40.2634 9.59553C40.2939 9.86113 40.478 10.2413 40.7379 10.5033L40.7682 10.4729C40.5151 10.2177 40.3352 9.84628 40.3008 9.57867C40.1645 9.41592 40.0308 8.95382 40.0496 8.71533L40.0069 8.71194ZM39.9491 8.4338C39.9269 8.27613 39.9217 8.118 39.9396 8.01753L39.9818 8.02513C39.9648 8.12018 39.97 8.27425 39.9915 8.42779L39.9491 8.4338ZM40.3176 7.03824C40.2322 7.25376 40.1846 7.70979 40.21 7.88779C40.2148 7.92189 40.2142 7.93051 40.1991 8.0737C40.1717 8.33481 40.1826 8.53285 40.2689 8.78866L40.3095 8.77487C40.2255 8.52587 40.215 8.33368 40.2418 8.0782C40.2575 7.92854 40.258 7.92129 40.2525 7.88173C40.228 7.71093 40.2749 7.26248 40.3574 7.05414L40.3176 7.03824ZM40.6166 8.69054C40.5252 8.38344 40.5219 7.64601 40.6164 7.25583L40.658 7.26598C40.5653 7.64904 40.5685 8.37876 40.6577 8.67823L40.6166 8.69054ZM40.5 8.80626C40.4484 9.03533 40.4539 9.30054 40.5202 9.50013L40.5608 9.48653C40.4971 9.29483 40.4918 9.03754 40.5418 8.81576L40.5 8.80626ZM41.2782 8.4548C41.0213 8.1679 40.8657 7.74011 40.8763 7.40611L40.9192 7.40748C40.9089 7.7304 41.0605 8.1474 41.31 8.42605L41.2782 8.4548ZM40.8088 8.47794C40.7792 8.84853 40.8005 9.18892 40.8679 9.38341C40.8853 9.4336 40.8975 9.4946 40.9147 9.60634C40.9228 9.65962 40.9274 9.69007 40.9314 9.71517C40.9381 9.75804 40.9443 9.79413 40.9509 9.82873C40.9833 9.99747 41.0258 10.1216 41.0931 10.2176L41.1282 10.1929C41.0651 10.1029 41.0243 9.98387 40.993 9.8206C40.9865 9.78653 40.9804 9.75088 40.9737 9.70844C40.9698 9.68349 40.9652 9.65319 40.957 9.59978C40.9395 9.48546 40.9269 9.42277 40.9084 9.36929C40.8433 9.18153 40.8224 8.84654 40.8516 8.48137L40.8088 8.47794ZM41.154 9.08219L41.138 9.02127L41.1794 9.01022L41.1955 9.0714C41.2178 9.15761 41.2309 9.22261 41.237 9.2875C41.2458 9.38117 41.2374 9.46202 41.2075 9.53116L41.1682 9.514C41.1948 9.4524 41.2025 9.37856 41.1944 9.29153C41.1885 9.2294 41.1758 9.16637 41.154 9.08219ZM41.3895 8.73918C41.4607 8.97341 41.5051 9.25999 41.4949 9.38456L41.5376 9.38809C41.5484 9.25728 41.5032 8.96562 41.4305 8.72662L41.3895 8.73918ZM41.691 10.635C41.6028 10.4798 41.5228 10.2318 41.5045 10.0317L41.5472 10.0278C41.5649 10.2217 41.643 10.4637 41.7282 10.6137L41.691 10.635ZM41.1867 10.6215C41.2676 10.8654 41.4065 11.1173 41.5321 11.2166L41.5587 11.1828C41.4412 11.0899 41.3058 10.8446 41.2273 10.6079L41.1867 10.6215ZM42.3753 11.3041C42.2895 11.0442 42.2333 10.918 42.0977 10.7248L42.1328 10.7C42.2712 10.8973 42.329 11.027 42.416 11.2906L42.3753 11.3041Z" fill="black"/>
<path fill-rule="evenodd" clip-rule="evenodd" d="M40.5286 10.7823C40.5553 10.7852 40.5719 10.7862 40.6179 10.7885C40.7247 10.7939 40.7621 10.8048 40.8102 10.8557C40.8419 10.8893 40.8734 10.94 40.9074 11.0139C41.026 11.2718 41.3502 11.6661 41.5396 11.789L41.5394 11.7891C41.7903 12.2306 41.9017 12.8134 41.8239 13.1262C41.8015 12.9886 41.7236 12.8827 41.6033 12.796C41.5566 12.7623 41.5268 12.7451 41.4457 12.7019C41.3383 12.7958 41.1817 12.9038 41.1027 12.9207L41.1116 12.9628C41.2008 12.9437 41.3645 12.8308 41.4514 12.7354C41.491 12.7699 41.517 12.788 41.5458 12.808L41.5459 12.808L41.5459 12.8081L41.5459 12.8081C41.5561 12.8152 41.5667 12.8225 41.5783 12.8309C41.6903 12.9117 41.7615 13.0086 41.7817 13.1338L41.8237 13.1269L41.8209 13.1378L41.8623 13.149C41.9455 12.8404 41.8448 12.273 41.6078 11.8246C41.8999 11.9592 42.0866 12.1108 42.1232 12.3247L42.1639 12.3298L42.1849 12.2827C42.2823 12.0633 42.3193 11.9125 42.2822 11.7567L42.2859 11.7611L42.3201 11.8024C42.4276 11.9319 42.5067 12.0271 42.5653 12.0991L42.5613 12.0997C42.5671 12.1407 42.5725 12.2031 42.5789 12.2982C42.58 12.3152 42.5831 12.3643 42.5867 12.4202C42.5915 12.4962 42.5971 12.5845 42.5996 12.6213C42.615 12.8473 42.6304 12.9978 42.6514 13.096L42.6933 13.0869C42.6729 12.9915 42.6576 12.8422 42.6423 12.6184C42.6398 12.5817 42.6343 12.4937 42.6295 12.4178C42.6259 12.3617 42.6228 12.3124 42.6216 12.2953C42.6178 12.2377 42.6142 12.192 42.6108 12.1555C42.7021 12.2701 42.7259 12.3102 42.7383 12.3536C42.742 12.3666 42.7447 12.3799 42.7479 12.3956L42.7479 12.3956L42.7479 12.3956L42.7515 12.4132C42.7872 12.5842 42.9246 12.8187 43.0625 12.9694L43.094 12.9403C42.9609 12.7949 42.8273 12.5668 42.7934 12.4044L42.7888 12.3818C42.7855 12.3648 42.7826 12.3505 42.7786 12.3365C42.7572 12.2617 42.7029 12.1963 42.3585 11.7815L42.3585 11.7815L42.3585 11.7815L42.3585 11.7815L42.3585 11.7814L42.3188 11.7336C42.2895 11.6984 42.2631 11.6661 42.2382 11.6349L42.202 11.6573C42.2872 11.8432 42.2633 11.9977 42.1504 12.2546C42.0868 12.0497 41.8916 11.9049 41.6024 11.775C41.4354 11.7001 41.0711 11.2672 40.9463 10.9959C40.9105 10.9181 40.8767 10.8636 40.8413 10.8261C40.7836 10.765 40.7369 10.7514 40.62 10.7456C40.5749 10.7433 40.5588 10.7423 40.5331 10.7396L40.5286 10.7823ZM42.6108 12.1555C42.6084 12.131 42.6061 12.1107 42.6037 12.0937L42.5653 12.0991C42.5821 12.1198 42.5972 12.1385 42.6108 12.1555ZM41.8237 13.1269L41.824 13.1269L41.8239 13.1262L41.8237 13.1269ZM41.6078 11.8246L41.5849 11.8142C41.571 11.8079 41.5558 11.7994 41.5396 11.789L41.5766 11.7678C41.5873 11.7865 41.5977 11.8054 41.6078 11.8246ZM40.829 11.4342C40.9041 11.6612 40.9638 11.9336 40.9699 12.0913L41.0127 12.0897C41.0064 11.9273 40.946 11.6511 40.8697 11.4207L40.829 11.4342ZM41.4787 12.5531C41.472 12.4258 41.3921 12.0924 41.3126 11.8703L41.3529 11.8558C41.4338 12.0815 41.5145 12.4187 41.5215 12.5508L41.4787 12.5531ZM42.2274 12.4755C42.2896 12.6259 42.3289 12.8634 42.3163 13.0049L42.359 13.0087C42.3722 12.8601 42.3318 12.6157 42.267 12.459L42.2274 12.4755Z" fill="black"/>
</g>
</svg>
